<?xml version="1.0" encoding="UTF-8"?>
<!DOCTYPE svg PUBLIC "-//W3C//DTD SVG 1.1//EN" "http://www.w3.org/Graphics/SVG/1.1/DTD/svg11.dtd">
<svg xmlns="http://www.w3.org/2000/svg" version="1.1" width="146px" height="104px" style="shape-rendering:geometricPrecision; text-rendering:geometricPrecision; image-rendering:optimizeQuality; fill-rule:evenodd; clip-rule:evenodd" xmlns:xlink="http://www.w3.org/1999/xlink">
<g><path style="opacity:1" fill="#5cafa8" d="M 48.5,-0.5 C 50.1667,-0.5 51.8333,-0.5 53.5,-0.5C 58.3757,2.36123 59.5424,6.36123 57,11.5C 46.1667,22.3333 35.3333,33.1667 24.5,44C 63.8333,44.3333 103.167,44.6667 142.5,45C 143.373,46.045 144.373,46.8783 145.5,47.5C 145.5,50.1667 145.5,52.8333 145.5,55.5C 144.373,56.1217 143.373,56.955 142.5,58C 103.167,58.3333 63.8333,58.6667 24.5,59C 35.3333,69.8333 46.1667,80.6667 57,91.5C 59.5424,96.6388 58.3757,100.639 53.5,103.5C 51.8333,103.5 50.1667,103.5 48.5,103.5C 32.1934,87.5273 15.8601,71.5273 -0.5,55.5C -0.5,52.8333 -0.5,50.1667 -0.5,47.5C 15.8601,31.4727 32.1934,15.4727 48.5,-0.5 Z"/></g>
</svg>
