<?xml version="1.0" encoding="UTF-8"?>
<!DOCTYPE svg PUBLIC "-//W3C//DTD SVG 1.1//EN" "http://www.w3.org/Graphics/SVG/1.1/DTD/svg11.dtd">
<svg xmlns="http://www.w3.org/2000/svg" version="1.1" width="146px" height="104px" style="shape-rendering:geometricPrecision; text-rendering:geometricPrecision; image-rendering:optimizeQuality; fill-rule:evenodd; clip-rule:evenodd" xmlns:xlink="http://www.w3.org/1999/xlink">
<g><path style="opacity:1" fill="#5cafa8" d="M 91.5,-0.5 C 93.1667,-0.5 94.8333,-0.5 96.5,-0.5C 112.807,15.4727 129.14,31.4727 145.5,47.5C 145.5,50.1667 145.5,52.8333 145.5,55.5C 129.14,71.5273 112.807,87.5273 96.5,103.5C 94.8333,103.5 93.1667,103.5 91.5,103.5C 86.6243,100.639 85.4576,96.6388 88,91.5C 98.8333,80.6667 109.667,69.8333 120.5,59C 81.1667,58.6667 41.8333,58.3333 2.5,58C 1.62656,56.955 0.626561,56.1217 -0.5,55.5C -0.5,52.8333 -0.5,50.1667 -0.5,47.5C 0.626561,46.8783 1.62656,46.045 2.5,45C 41.8333,44.6667 81.1667,44.3333 120.5,44C 109.667,33.1667 98.8333,22.3333 88,11.5C 85.4576,6.36123 86.6243,2.36123 91.5,-0.5 Z"/></g>
</svg>
