<?xml version="1.0" encoding="UTF-8"?>
<!DOCTYPE svg PUBLIC "-//W3C//DTD SVG 1.1//EN" "http://www.w3.org/Graphics/SVG/1.1/DTD/svg11.dtd">
<svg xmlns="http://www.w3.org/2000/svg" version="1.1" width="878px" height="504px" style="shape-rendering:geometricPrecision; text-rendering:geometricPrecision; image-rendering:optimizeQuality; fill-rule:evenodd; clip-rule:evenodd" xmlns:xlink="http://www.w3.org/1999/xlink">
<g><path style="opacity:1" fill="#cc4a32" d="M 293.5,127.5 C 464.62,199.56 635.62,271.894 806.5,344.5C 806.5,345.167 806.167,345.5 805.5,345.5C 634.719,291.806 464.052,237.806 293.5,183.5C 293.5,164.833 293.5,146.167 293.5,127.5 Z"/></g>
<g><path style="opacity:1" fill="#323269" d="M 827.5,352.5 C 826.417,352.461 825.417,352.127 824.5,351.5C 811.039,352.15 797.705,352.816 784.5,353.5C 593.665,353.478 402.998,354.144 212.5,355.5C 150.832,355.667 89.1658,355.5 27.5,355C 96.3667,291.132 165.533,227.632 235,164.5C 254.413,171.138 273.913,177.471 293.5,183.5C 464.052,237.806 634.719,291.806 805.5,345.5C 810.206,347.901 815.206,349.401 820.5,350C 815.77,348.258 811.103,346.425 806.5,344.5C 635.62,271.894 464.62,199.56 293.5,127.5C 329.969,92.5333 366.635,57.7 403.5,23C 404.5,22.3333 405.5,22.3333 406.5,23C 547.02,132.697 687.353,242.53 827.5,352.5 Z"/></g>
<g><path style="opacity:1" fill="#a5413f" d="M 806.5,344.5 C 811.103,346.425 815.77,348.258 820.5,350C 815.206,349.401 810.206,347.901 805.5,345.5C 806.167,345.5 806.5,345.167 806.5,344.5 Z"/></g>
<g><path style="opacity:1" fill="#5c375c" d="M 827.5,352.5 C 828.067,353.42 827.401,353.754 825.5,353.5C 811.833,353.5 798.167,353.5 784.5,353.5C 797.705,352.816 811.039,352.15 824.5,351.5C 825.417,352.127 826.417,352.461 827.5,352.5 Z"/></g>
<g><path style="opacity:1" fill="#cd5038" d="M 784.5,353.5 C 798.167,353.5 811.833,353.5 825.5,353.5C 621.624,378.488 417.624,403.488 213.5,428.5C 212.5,404.176 212.167,379.842 212.5,355.5C 402.998,354.144 593.665,353.478 784.5,353.5 Z"/></g>
</svg>
