<?xml version="1.0" encoding="UTF-8"?>
<!DOCTYPE svg PUBLIC "-//W3C//DTD SVG 1.1//EN" "http://www.w3.org/Graphics/SVG/1.1/DTD/svg11.dtd">
<svg xmlns="http://www.w3.org/2000/svg" version="1.1" width="185px" height="385px" style="shape-rendering:geometricPrecision; text-rendering:geometricPrecision; image-rendering:optimizeQuality; fill-rule:evenodd; clip-rule:evenodd" xmlns:xlink="http://www.w3.org/1999/xlink">
<g><path style="opacity:1" fill="#e1bb32" d="M 167.5,-0.5 C 171.167,-0.5 174.833,-0.5 178.5,-0.5C 153.462,24.5227 128.628,49.8561 104,75.5C 103.822,54.7604 103.322,34.0938 102.5,13.5C 123.684,5.99837 145.351,1.3317 167.5,-0.5 Z"/></g>
<g><path style="opacity:1" fill="#f2d87a" d="M 178.5,-0.5 C 178.833,-0.5 179.167,-0.5 179.5,-0.5C 181.539,0.911036 182.539,2.91104 182.5,5.5C 157.672,28.1613 134.005,51.9946 111.5,77C 133.933,72.8953 156.6,70.062 179.5,68.5C 179.167,70.5 178.833,72.5 178.5,74.5C 153.615,76.4597 128.949,79.9597 104.5,85C 91.9333,97.3982 80.2666,110.565 69.5,124.5C 102.502,125.705 135.502,125.705 168.5,124.5C 167.985,126.894 167.319,129.228 166.5,131.5C 132.258,131.746 98.0912,131.746 64,131.5C 49.7858,148.712 35.9525,166.212 22.5,184C 33.4071,182.454 44.4071,181.121 55.5,180C 87.4923,178.816 119.492,177.982 151.5,177.5C 150.486,179.574 149.486,181.574 148.5,183.5C 114.47,183.84 80.47,185.007 46.5,187C 36.2754,187.674 26.2754,189.508 16.5,192.5C 10.8114,200.567 5.14471,208.567 -0.5,216.5C -0.5,212.833 -0.5,209.167 -0.5,205.5C 3.64556,199.901 7.81223,194.234 12,188.5C 9.23226,153.487 6.0656,118.487 2.5,83.5C 4.16667,81.1667 6.16667,79.1667 8.5,77.5C 11.4677,111.511 14.6344,145.511 18,179.5C 31.6193,161.546 45.6193,143.879 60,126.5C 57.305,97.8797 54.805,69.213 52.5,40.5C 54.1475,38.6736 56.1475,37.3403 58.5,36.5C 60.2425,63.9246 62.9091,91.2579 66.5,118.5C 76.4802,106.685 86.6468,95.0188 97,83.5C 97.8296,60.9962 97.6629,38.6629 96.5,16.5C 98.4261,15.5139 100.426,14.5139 102.5,13.5C 103.322,34.0938 103.822,54.7604 104,75.5C 128.628,49.8561 153.462,24.5227 178.5,-0.5 Z"/></g>
<g><path style="opacity:1" fill="#e1bb32" d="M 182.5,5.5 C 183.167,7.5 183.833,9.5 184.5,11.5C 184.5,18.5 184.5,25.5 184.5,32.5C 182.845,44.3646 181.178,56.3646 179.5,68.5C 156.6,70.062 133.933,72.8953 111.5,77C 134.005,51.9946 157.672,28.1613 182.5,5.5 Z"/></g>
<g><path style="opacity:1" fill="#e1bb32" d="M 96.5,16.5 C 97.6629,38.6629 97.8296,60.9962 97,83.5C 86.6468,95.0188 76.4802,106.685 66.5,118.5C 62.9091,91.2579 60.2425,63.9246 58.5,36.5C 70.2423,28.2932 82.909,21.6265 96.5,16.5 Z"/></g>
<g><path style="opacity:1" fill="#e1bb32" d="M 52.5,40.5 C 54.805,69.213 57.305,97.8797 60,126.5C 45.6193,143.879 31.6193,161.546 18,179.5C 14.6344,145.511 11.4677,111.511 8.5,77.5C 21.4042,62.9172 36.0709,50.5838 52.5,40.5 Z"/></g>
<g><path style="opacity:1" fill="#e1bb32" d="M 178.5,74.5 C 175.806,91.3016 172.473,107.968 168.5,124.5C 135.502,125.705 102.502,125.705 69.5,124.5C 80.2666,110.565 91.9333,97.3982 104.5,85C 128.949,79.9597 153.615,76.4597 178.5,74.5 Z"/></g>
<g><path style="opacity:1" fill="#e1bb34" d="M 2.5,83.5 C 6.0656,118.487 9.23226,153.487 12,188.5C 7.81223,194.234 3.64556,199.901 -0.5,205.5C -0.5,165.5 -0.5,125.5 -0.5,85.5C 0.5,84.8333 1.5,84.1667 2.5,83.5 Z"/></g>
<g><path style="opacity:1" fill="#e1bb32" d="M 166.5,131.5 C 162.299,147.104 157.299,162.437 151.5,177.5C 119.492,177.982 87.4923,178.816 55.5,180C 44.4071,181.121 33.4071,182.454 22.5,184C 35.9525,166.212 49.7858,148.712 64,131.5C 98.0912,131.746 132.258,131.746 166.5,131.5 Z"/></g>
<g><path style="opacity:1" fill="#e1bb32" d="M 148.5,183.5 C 141.462,201.921 132.129,218.921 120.5,234.5C 80.1437,234.272 39.8104,234.939 -0.5,236.5C -0.5,229.833 -0.5,223.167 -0.5,216.5C 5.14471,208.567 10.8114,200.567 16.5,192.5C 26.2754,189.508 36.2754,187.674 46.5,187C 80.47,185.007 114.47,183.84 148.5,183.5 Z"/></g>
<g><path style="opacity:1" fill="#f2d87a" d="M 120.5,234.5 C 119.66,236.853 118.326,238.853 116.5,240.5C 77.4921,240.941 38.4921,241.608 -0.5,242.5C -0.5,240.5 -0.5,238.5 -0.5,236.5C 39.8104,234.939 80.1437,234.272 120.5,234.5 Z"/></g>
<g><path style="opacity:1" fill="#e1bb32" d="M 116.5,240.5 C 106.963,255.044 96.6295,269.044 85.5,282.5C 85.1667,282.5 84.8333,282.5 84.5,282.5C 56.382,279.9 28.0487,278.567 -0.5,278.5C -0.5,266.5 -0.5,254.5 -0.5,242.5C 38.4921,241.608 77.4921,240.941 116.5,240.5 Z"/></g>
<g><path style="opacity:1" fill="#eed57b" d="M -0.5,278.5 C 28.0487,278.567 56.382,279.9 84.5,282.5C 84.1583,283.338 83.4916,283.672 82.5,283.5C 66.7872,281.973 51.1206,282.306 35.5,284.5C 33.0504,284.298 30.717,284.631 28.5,285.5C 28.1667,285.5 27.8333,285.5 27.5,285.5C 18.3483,284.506 9.01496,284.173 -0.5,284.5C -0.5,282.5 -0.5,280.5 -0.5,278.5 Z"/></g>
<g><path style="opacity:1" fill="#32326a" d="M 82.5,283.5 C 69.471,302.381 56.8044,321.548 44.5,341C 29.511,344.158 14.511,347.324 -0.5,350.5C -0.5,346.833 -0.5,343.167 -0.5,339.5C 11.7457,321.346 23.7457,303.012 35.5,284.5C 51.1206,282.306 66.7872,281.973 82.5,283.5 Z"/></g>
<g><path style="opacity:1" fill="#4f4ea4" d="M 84.5,282.5 C 84.8333,282.5 85.1667,282.5 85.5,282.5C 86.209,283.404 87.209,283.737 88.5,283.5C 76.2617,301.634 64.2617,319.967 52.5,338.5C 64.965,336.68 77.6317,334.514 90.5,332C 101.765,318.576 112.431,304.743 122.5,290.5C 124.786,290.595 126.786,291.262 128.5,292.5C 118.066,305.172 107.732,318.005 97.5,331C 125.732,327.409 154.065,324.242 182.5,321.5C 183.451,322.919 183.784,324.585 183.5,326.5C 156.023,328.46 128.689,331.627 101.5,336C 117.648,345.328 133.648,354.828 149.5,364.5C 148.055,366.063 146.389,367.396 144.5,368.5C 128.397,357.606 111.731,347.439 94.5,338C 79.3616,339.198 64.3616,341.531 49.5,345C 66.6411,357.65 83.3077,370.816 99.5,384.5C 96.8333,384.5 94.1667,384.5 91.5,384.5C 75.9029,372.019 60.2363,359.519 44.5,347C 29.2217,348.735 14.2217,351.902 -0.5,356.5C -0.5,354.5 -0.5,352.5 -0.5,350.5C 14.511,347.324 29.511,344.158 44.5,341C 56.8044,321.548 69.471,302.381 82.5,283.5C 83.4916,283.672 84.1583,283.338 84.5,282.5 Z"/></g>
<g><path style="opacity:1" fill="#d5b138" d="M -0.5,284.5 C 9.01496,284.173 18.3483,284.506 27.5,285.5C 18.1652,287.167 8.83185,288.834 -0.5,290.5C -0.5,288.5 -0.5,286.5 -0.5,284.5 Z"/></g>
<g><path style="opacity:1" fill="#504ea4" d="M 35.5,284.5 C 23.7457,303.012 11.7457,321.346 -0.5,339.5C -0.5,336.5 -0.5,333.5 -0.5,330.5C 9.55325,315.774 19.2199,300.774 28.5,285.5C 30.717,284.631 33.0504,284.298 35.5,284.5 Z"/></g>
<g><path style="opacity:1" fill="#32326a" d="M 88.5,283.5 C 100.262,284.345 111.595,286.678 122.5,290.5C 112.431,304.743 101.765,318.576 90.5,332C 77.6317,334.514 64.965,336.68 52.5,338.5C 64.2617,319.967 76.2617,301.634 88.5,283.5 Z"/></g>
<g><path style="opacity:1" fill="#32326a" d="M 27.5,285.5 C 27.8333,285.5 28.1667,285.5 28.5,285.5C 19.2199,300.774 9.55325,315.774 -0.5,330.5C -0.5,317.167 -0.5,303.833 -0.5,290.5C 8.83185,288.834 18.1652,287.167 27.5,285.5 Z"/></g>
<g><path style="opacity:1" fill="#32326a" d="M 128.5,292.5 C 148.599,298.545 166.599,308.212 182.5,321.5C 154.065,324.242 125.732,327.409 97.5,331C 107.732,318.005 118.066,305.172 128.5,292.5 Z"/></g>
<g><path style="opacity:1" fill="#32326a" d="M 183.5,326.5 C 181.225,330.615 178.725,334.615 176,338.5C 167.298,347.369 158.465,356.036 149.5,364.5C 133.648,354.828 117.648,345.328 101.5,336C 128.689,331.627 156.023,328.46 183.5,326.5 Z"/></g>
<g><path style="opacity:1" fill="#32326a" d="M 144.5,368.5 C 138.833,373.833 133.167,379.167 127.5,384.5C 118.167,384.5 108.833,384.5 99.5,384.5C 83.3077,370.816 66.6411,357.65 49.5,345C 64.3616,341.531 79.3616,339.198 94.5,338C 111.731,347.439 128.397,357.606 144.5,368.5 Z"/></g>
<g><path style="opacity:1" fill="#32326a" d="M 91.5,384.5 C 71.1667,384.5 50.8333,384.5 30.5,384.5C 20.9924,376.333 10.659,369.333 -0.5,363.5C -0.5,361.167 -0.5,358.833 -0.5,356.5C 14.2217,351.902 29.2217,348.735 44.5,347C 60.2363,359.519 75.9029,372.019 91.5,384.5 Z"/></g>
<g><path style="opacity:1" fill="#4f4ea4" d="M -0.5,363.5 C 10.659,369.333 20.9924,376.333 30.5,384.5C 27.5,384.5 24.5,384.5 21.5,384.5C 14.7201,378.726 7.38672,373.726 -0.5,369.5C -0.5,367.5 -0.5,365.5 -0.5,363.5 Z"/></g>
<g><path style="opacity:1" fill="#32326a" d="M -0.5,369.5 C 7.38672,373.726 14.7201,378.726 21.5,384.5C 14.1667,384.5 6.83333,384.5 -0.5,384.5C -0.5,379.5 -0.5,374.5 -0.5,369.5 Z"/></g>
</svg>
