<?xml version="1.0" encoding="UTF-8"?>
<!DOCTYPE svg PUBLIC "-//W3C//DTD SVG 1.1//EN" "http://www.w3.org/Graphics/SVG/1.1/DTD/svg11.dtd">
<svg xmlns="http://www.w3.org/2000/svg" version="1.1" width="332px" height="82px" style="shape-rendering:geometricPrecision; text-rendering:geometricPrecision; image-rendering:optimizeQuality; fill-rule:evenodd; clip-rule:evenodd" xmlns:xlink="http://www.w3.org/1999/xlink">
<g><path style="opacity:1" fill="#f9faf9" d="M 12.5,-0.5 C 16.5,-0.5 20.5,-0.5 24.5,-0.5C 28.0433,1.20165 31.2099,3.53498 34,6.5C 35.9809,11.1279 38.4809,15.4613 41.5,19.5C 47.667,24.6287 54.0004,24.7954 60.5,20C 63.8899,15.5018 66.7233,10.6684 69,5.5C 71.8426,2.83733 75.0093,0.837327 78.5,-0.5C 82.5,-0.5 86.5,-0.5 90.5,-0.5C 94.0433,1.20165 97.2099,3.53498 100,6.5C 101.981,11.1279 104.481,15.4613 107.5,19.5C 113.667,24.6287 120,24.7954 126.5,20C 129.851,14.9469 133.018,9.7802 136,4.5C 138.682,2.41499 141.516,0.748322 144.5,-0.5C 148.5,-0.5 152.5,-0.5 156.5,-0.5C 163.969,2.81084 168.803,8.4775 171,16.5C 177.127,24.1257 184.293,25.2923 192.5,20C 195.851,14.9469 199.018,9.7802 202,4.5C 204.479,2.68589 206.979,1.01922 209.5,-0.5C 213.833,-0.5 218.167,-0.5 222.5,-0.5C 229.969,2.81084 234.803,8.4775 237,16.5C 244.657,25.2487 252.657,25.582 261,17.5C 262.039,15.2537 263.206,13.087 264.5,11C 267.657,10.7826 268.824,12.2826 268,15.5C 261.097,28.6882 250.93,31.8549 237.5,25C 233.279,21.3948 230.446,16.8948 229,11.5C 223.084,4.11353 215.917,2.61353 207.5,7C 203.837,12.6289 200.17,18.2956 196.5,24C 180.623,32.4852 169.456,28.3185 163,11.5C 154.998,2.5407 146.665,2.20737 138,10.5C 132.462,27.1259 121.628,31.9592 105.5,25C 101.214,20.9364 98.0477,16.1031 96,10.5C 88.0323,2.57657 80.0323,2.57657 72,10.5C 66.4617,27.1259 55.6284,31.9592 39.5,25C 35.2143,20.9364 32.0477,16.1031 30,10.5C 18.7274,1.16602 9.56071,2.99935 2.5,16C 1.42317,16.4696 0.423175,16.3029 -0.5,15.5C -0.5,13.8333 -0.5,12.1667 -0.5,10.5C 2.4508,5.19239 6.78413,1.52572 12.5,-0.5 Z"/></g>
<g><path style="opacity:1" fill="#f9faf9" d="M 331.5,64.5 C 331.5,66.1667 331.5,67.8333 331.5,69.5C 328.176,75.6541 323.176,79.6541 316.5,81.5C 313.833,81.5 311.167,81.5 308.5,81.5C 304.097,80.2959 300.263,77.9626 297,74.5C 294.687,69.8905 292.187,65.3905 289.5,61C 282.833,56.3333 276.167,56.3333 269.5,61C 266.605,65.2901 264.105,69.7901 262,74.5C 258.737,77.9626 254.903,80.2959 250.5,81.5C 247.833,81.5 245.167,81.5 242.5,81.5C 238.097,80.2959 234.263,77.9626 231,74.5C 228.687,69.8905 226.187,65.3905 223.5,61C 216.833,56.3333 210.167,56.3333 203.5,61C 200.62,65.2582 198.12,69.7582 196,74.5C 192.737,77.9626 188.903,80.2959 184.5,81.5C 181.833,81.5 179.167,81.5 176.5,81.5C 172.097,80.2959 168.263,77.9626 165,74.5C 162.687,69.8905 160.187,65.3905 157.5,61C 150.833,56.3333 144.167,56.3333 137.5,61C 134.62,65.2582 132.12,69.7582 130,74.5C 126.737,77.9626 122.903,80.2959 118.5,81.5C 115.833,81.5 113.167,81.5 110.5,81.5C 105.753,79.9531 101.586,77.2864 98,73.5C 96.3772,69.2896 94.3772,65.2896 92,61.5C 80.8697,54.3815 72.3697,56.7148 66.5,68.5C 64.5616,69.5345 63.2283,68.8678 62.5,66.5C 66.7669,54.697 75.1002,50.197 87.5,53C 95.1638,55.998 99.9971,61.498 102,69.5C 108.189,76.8407 115.356,78.0074 123.5,73C 126.629,69.2478 129.129,65.0812 131,60.5C 139.303,51.6807 148.803,50.1807 159.5,56C 163.721,59.6052 166.554,64.1052 168,69.5C 175.712,78.2697 183.712,78.603 192,70.5C 197.44,53.8625 208.273,48.6958 224.5,55C 229.295,58.755 232.462,63.5884 234,69.5C 243.395,79.158 252.061,78.4913 260,67.5C 265.786,53.0092 275.952,48.8426 290.5,55C 295.295,58.755 298.462,63.5884 300,69.5C 306.189,76.8407 313.356,78.0074 321.5,73C 324.505,70.6543 326.505,67.6543 327.5,64C 328.928,63.4209 330.262,63.5876 331.5,64.5 Z"/></g>
</svg>
