<?xml version="1.0" encoding="UTF-8"?>
<!DOCTYPE svg PUBLIC "-//W3C//DTD SVG 1.1//EN" "http://www.w3.org/Graphics/SVG/1.1/DTD/svg11.dtd">
<svg xmlns="http://www.w3.org/2000/svg" version="1.1" width="736px" height="344px" style="shape-rendering:geometricPrecision; text-rendering:geometricPrecision; image-rendering:optimizeQuality; fill-rule:evenodd; clip-rule:evenodd" xmlns:xlink="http://www.w3.org/1999/xlink">
<g><path style="opacity:1" fill="#323169" d="M 61.5,-0.5 C 172.833,-0.5 284.167,-0.5 395.5,-0.5C 425.897,13.4403 441.897,37.2737 443.5,71C 443.893,104.427 429.226,128.26 399.5,142.5C 286.247,142.632 172.914,142.632 59.5,142.5C 55.1957,137.534 55.529,133.034 60.5,129C 70.7544,127.574 81.0878,127.074 91.5,127.5C 128.332,128.167 165.332,128.5 202.5,128.5C 241.861,128.646 281.194,128.146 320.5,127C 345.182,119.984 359.682,103.818 364,78.5C 365.616,46.4493 351.116,25.616 320.5,16C 244.194,14.5211 167.861,14.0211 91.5,14.5C 81.1613,14.6665 70.828,14.4998 60.5,14C 55.0573,8.80887 55.3906,3.97554 61.5,-0.5 Z"/></g>
<g><path style="opacity:1" fill="#5050a6" d="M 395.5,-0.5 C 404.833,-0.5 414.167,-0.5 423.5,-0.5C 457.878,32.1601 466.045,70.4935 448,114.5C 442.52,125.125 435.354,134.458 426.5,142.5C 417.5,142.5 408.5,142.5 399.5,142.5C 429.226,128.26 443.893,104.427 443.5,71C 441.897,37.2737 425.897,13.4403 395.5,-0.5 Z"/></g>
<g><path style="opacity:1" fill="#32326a" d="M 423.5,-0.5 C 498.833,-0.5 574.167,-0.5 649.5,-0.5C 679.93,13.6475 695.93,37.6475 697.5,71.5C 697.245,105.386 681.911,129.386 651.5,143.5C 649.5,143.5 647.5,143.5 645.5,143.5C 572.541,142.506 499.541,142.173 426.5,142.5C 435.354,134.458 442.52,125.125 448,114.5C 466.045,70.4935 457.878,32.1601 423.5,-0.5 Z"/></g>
<g><path style="opacity:1" fill="#504fa6" d="M 649.5,-0.5 C 656.5,-0.5 663.5,-0.5 670.5,-0.5C 673.345,0.343778 676.345,1.01044 679.5,1.5C 716.68,39.7114 721.513,81.7114 694,127.5C 690.33,132.002 686.497,136.335 682.5,140.5C 672.364,143.01 662.03,144.01 651.5,143.5C 681.911,129.386 697.245,105.386 697.5,71.5C 695.93,37.6475 679.93,13.6475 649.5,-0.5 Z"/></g>
<g><path style="opacity:1" fill="#32316a" d="M 679.5,1.5 C 712.1,10.7597 730.767,32.093 735.5,65.5C 735.5,69.5 735.5,73.5 735.5,77.5C 731.223,109.699 713.556,130.699 682.5,140.5C 686.497,136.335 690.33,132.002 694,127.5C 721.513,81.7114 716.68,39.7114 679.5,1.5 Z"/></g>
<g><path style="opacity:1" fill="#eccd57" d="M 91.5,14.5 C 167.861,14.0211 244.194,14.5211 320.5,16C 351.116,25.616 365.616,46.4493 364,78.5C 359.682,103.818 345.182,119.984 320.5,127C 281.194,128.146 241.861,128.646 202.5,128.5C 165.332,128.5 128.332,128.167 91.5,127.5C 91.5,89.8333 91.5,52.1667 91.5,14.5 Z"/></g>
<g><path style="opacity:1" fill="#f1d87c" d="M 558.5,45.5 C 585.407,44.7978 612.073,46.9645 638.5,52C 649.224,54.236 659.058,58.4027 668,64.5C 672.718,69.475 672.552,74.3084 667.5,79C 651.467,88.345 634.134,93.6783 615.5,95C 581.28,99.1454 547.28,97.8121 513.5,91C 504.341,88.8376 495.674,85.5043 487.5,81C 482.466,77.7691 480.632,73.2691 482,67.5C 489.68,60.0365 498.847,55.2032 509.5,53C 525.771,49.1294 542.104,46.6294 558.5,45.5 Z"/></g>
<g><path style="opacity:1" fill="#72ddd0" d="M 59.5,142.5 C 172.914,142.632 286.247,142.632 399.5,142.5C 408.5,142.5 417.5,142.5 426.5,142.5C 499.541,142.173 572.541,142.506 645.5,143.5C 650.31,148.046 653.143,153.713 654,160.5C 655.535,170.913 654.202,180.913 650,190.5C 646.494,195.669 641.661,197.669 635.5,196.5C 445.833,196.5 256.167,196.5 66.5,196.5C 47.8304,196.667 29.1637,196.5 10.5,196C 7.41727,195.214 5.2506,193.381 4,190.5C 1.9716,186.568 0.471604,182.568 -0.5,178.5C -0.5,172.5 -0.5,166.5 -0.5,160.5C 0.619861,153.43 3.95319,147.596 9.5,143C 26.1633,142.5 42.83,142.333 59.5,142.5 Z"/></g>
<g><path style="opacity:1" fill="#5dafa7" d="M 49.5,158.5 C 234.5,158.5 419.5,158.5 604.5,158.5C 604.5,165.833 604.5,173.167 604.5,180.5C 419.5,180.5 234.5,180.5 49.5,180.5C 49.5,173.167 49.5,165.833 49.5,158.5 Z"/></g>
<g><path style="opacity:1" fill="#e6433e" d="M 66.5,196.5 C 256.167,196.5 445.833,196.5 635.5,196.5C 641.726,200.408 642.059,204.908 636.5,210C 626.172,210.5 615.839,210.666 605.5,210.5C 517.499,210.333 429.499,210.5 341.5,211C 333.116,212.528 325.449,215.695 318.5,220.5C 317.5,220.833 316.833,221.5 316.5,222.5C 315.833,222.833 315.167,223.167 314.5,223.5C 313.5,223.833 312.833,224.5 312.5,225.5C 307.771,229.898 303.771,234.898 300.5,240.5C 300.5,240.833 300.5,241.167 300.5,241.5C 299.662,241.842 299.328,242.508 299.5,243.5C 296.658,248.366 294.991,253.699 294.5,259.5C 294.5,260.167 294.5,260.833 294.5,261.5C 294.179,267.026 294.512,272.36 295.5,277.5C 295.5,278.167 295.5,278.833 295.5,279.5C 296.516,285.215 298.516,290.548 301.5,295.5C 301.833,296.167 302.167,296.833 302.5,297.5C 302.5,298.167 302.833,298.5 303.5,298.5C 306.855,305.188 311.855,310.188 318.5,313.5C 318.833,314.5 319.5,315.167 320.5,315.5C 321.167,315.833 321.833,316.167 322.5,316.5C 328.59,320.256 335.257,322.756 342.5,324C 390.499,324.5 438.499,324.667 486.5,324.5C 486.194,330.086 484.527,335.086 481.5,339.5C 421.167,339.5 360.833,339.5 300.5,339.5C 302.517,337.783 302.85,335.783 301.5,333.5C 275.224,313.19 264.724,286.523 270,253.5C 275.345,233.139 286.012,216.139 302,202.5C 302.165,198.023 299.998,196.523 295.5,198C 261.902,228.225 253.068,264.391 269,306.5C 275.482,319.507 284.315,330.507 295.5,339.5C 222.166,339.667 148.833,339.5 75.5,339C 38.4869,333.987 16.3202,313.154 9,276.5C 7.53762,234.822 26.7043,208.155 66.5,196.5 Z"/></g>
<g><path style="opacity:1" fill="#3b3268" d="M 300.5,339.5 C 298.901,340.562 297.234,340.562 295.5,339.5C 284.315,330.507 275.482,319.507 269,306.5C 253.068,264.391 261.902,228.225 295.5,198C 299.998,196.523 302.165,198.023 302,202.5C 286.012,216.139 275.345,233.139 270,253.5C 264.724,286.523 275.224,313.19 301.5,333.5C 302.85,335.783 302.517,337.783 300.5,339.5 Z"/></g>
<g><path style="opacity:1" fill="#c8e0f2" d="M 605.5,210.5 C 605.5,214.5 605.5,218.5 605.5,222.5C 605.167,222.5 604.833,222.5 604.5,222.5C 509.167,221.833 413.833,221.167 318.5,220.5C 325.449,215.695 333.116,212.528 341.5,211C 429.499,210.5 517.499,210.333 605.5,210.5 Z"/></g>
<g><path style="opacity:1" fill="#b5c7e6" d="M 318.5,220.5 C 413.833,221.167 509.167,221.833 604.5,222.5C 508.5,222.5 412.5,222.5 316.5,222.5C 316.833,221.5 317.5,220.833 318.5,220.5 Z"/></g>
<g><path style="opacity:1" fill="#322a95" d="M 316.5,222.5 C 412.5,222.5 508.5,222.5 604.5,222.5C 604.833,222.5 605.167,222.5 605.5,222.5C 605.5,223.167 605.5,223.833 605.5,224.5C 508.332,224.833 411.332,224.499 314.5,223.5C 315.167,223.167 315.833,222.833 316.5,222.5 Z"/></g>
<g><path style="opacity:1" fill="#8f9bcd" d="M 314.5,223.5 C 411.332,224.499 508.332,224.833 605.5,224.5C 605.5,224.833 605.5,225.167 605.5,225.5C 507.833,225.5 410.167,225.5 312.5,225.5C 312.833,224.5 313.5,223.833 314.5,223.5 Z"/></g>
<g><path style="opacity:1" fill="#c8e0f2" d="M 312.5,225.5 C 410.167,225.5 507.833,225.5 605.5,225.5C 605.5,230.5 605.5,235.5 605.5,240.5C 503.833,240.5 402.167,240.5 300.5,240.5C 303.771,234.898 307.771,229.898 312.5,225.5 Z"/></g>
<g><path style="opacity:1" fill="#383398" d="M 300.5,240.5 C 402.167,240.5 503.833,240.5 605.5,240.5C 605.5,241.167 605.5,241.833 605.5,242.5C 503.665,242.833 401.999,242.499 300.5,241.5C 300.5,241.167 300.5,240.833 300.5,240.5 Z"/></g>
<g><path style="opacity:1" fill="#6a6fb4" d="M 300.5,241.5 C 401.999,242.499 503.665,242.833 605.5,242.5C 605.5,242.833 605.5,243.167 605.5,243.5C 503.5,243.5 401.5,243.5 299.5,243.5C 299.328,242.508 299.662,241.842 300.5,241.5 Z"/></g>
<g><path style="opacity:1" fill="#c3dbef" d="M 299.5,243.5 C 401.5,243.5 503.5,243.5 605.5,243.5C 605.5,248.833 605.5,254.167 605.5,259.5C 501.833,259.5 398.167,259.5 294.5,259.5C 294.991,253.699 296.658,248.366 299.5,243.5 Z"/></g>
<g><path style="opacity:1" fill="#363269" d="M 42.5,248.5 C 105.834,248.333 169.168,248.5 232.5,249C 237.791,249.625 241.291,252.459 243,257.5C 244.127,263.755 243.46,269.755 241,275.5C 239.421,277.041 237.587,278.208 235.5,279C 170.5,279.667 105.5,279.667 40.5,279C 34.6876,275.71 32.0209,270.71 32.5,264C 32.474,256.528 35.8074,251.362 42.5,248.5 Z"/></g>
<g><path style="opacity:1" fill="#322b96" d="M 294.5,259.5 C 398.167,259.5 501.833,259.5 605.5,259.5C 605.5,260.167 605.5,260.833 605.5,261.5C 501.833,261.5 398.167,261.5 294.5,261.5C 294.5,260.833 294.5,260.167 294.5,259.5 Z"/></g>
<g><path style="opacity:1" fill="#c5def1" d="M 294.5,261.5 C 398.167,261.5 501.833,261.5 605.5,261.5C 605.5,266.833 605.5,272.167 605.5,277.5C 502.167,277.5 398.833,277.5 295.5,277.5C 294.512,272.36 294.179,267.026 294.5,261.5 Z"/></g>
<g><path style="opacity:1" fill="#322b96" d="M 295.5,277.5 C 398.833,277.5 502.167,277.5 605.5,277.5C 605.5,278.167 605.5,278.833 605.5,279.5C 502.167,279.5 398.833,279.5 295.5,279.5C 295.5,278.833 295.5,278.167 295.5,277.5 Z"/></g>
<g><path style="opacity:1" fill="#c5def1" d="M 295.5,279.5 C 398.833,279.5 502.167,279.5 605.5,279.5C 605.5,284.833 605.5,290.167 605.5,295.5C 578.5,295.5 551.5,295.5 524.5,295.5C 508.833,295.5 493.167,295.5 477.5,295.5C 418.833,295.5 360.167,295.5 301.5,295.5C 298.516,290.548 296.516,285.215 295.5,279.5 Z"/></g>
<g><path style="opacity:1" fill="#322b95" d="M 301.5,295.5 C 360.167,295.5 418.833,295.5 477.5,295.5C 419.51,297.496 361.176,298.163 302.5,297.5C 302.167,296.833 301.833,296.167 301.5,295.5 Z"/></g>
<g><path style="opacity:1" fill="#3e3d77" d="M 477.5,295.5 C 493.167,295.5 508.833,295.5 524.5,295.5C 524.611,296.117 524.944,296.617 525.5,297C 552.165,297.5 578.831,297.667 605.5,297.5C 605.5,297.833 605.5,298.167 605.5,298.5C 579.165,298.333 552.831,298.5 526.5,299C 529.105,303.543 531.438,308.209 533.5,313C 557.164,313.5 580.831,313.667 604.5,313.5C 581.004,314.332 557.337,314.832 533.5,315C 557.498,315.5 581.498,315.667 605.5,315.5C 605.5,315.833 605.5,316.167 605.5,316.5C 581.833,316.5 558.167,316.5 534.5,316.5C 534.833,319.167 535.167,321.833 535.5,324.5C 535.538,329.716 534.538,334.716 532.5,339.5C 532.167,340.833 531.833,342.167 531.5,343.5C 530.833,343.5 530.167,343.5 529.5,343.5C 528.488,342.128 527.488,340.795 526.5,339.5C 522.749,334.348 518.749,329.348 514.5,324.5C 512.702,320.886 510.702,320.886 508.5,324.5C 500.934,328.776 493.934,333.776 487.5,339.5C 485.205,340.475 483.205,341.808 481.5,343.5C 481.167,343.5 480.833,343.5 480.5,343.5C 480.833,342.167 481.167,340.833 481.5,339.5C 484.527,335.086 486.194,330.086 486.5,324.5C 486.5,321.833 486.5,319.167 486.5,316.5C 486.5,315.833 486.5,315.167 486.5,314.5C 486.737,313.209 486.404,312.209 485.5,311.5C 484.447,306.894 482.447,302.727 479.5,299C 420.834,298.5 362.168,298.333 303.5,298.5C 302.833,298.5 302.5,298.167 302.5,297.5C 361.176,298.163 419.51,297.496 477.5,295.5 Z"/></g>
<g><path style="opacity:1" fill="#322b95" d="M 524.5,295.5 C 551.5,295.5 578.5,295.5 605.5,295.5C 605.5,296.167 605.5,296.833 605.5,297.5C 578.831,297.667 552.165,297.5 525.5,297C 524.944,296.617 524.611,296.117 524.5,295.5 Z"/></g>
<g><path style="opacity:1" fill="#c7e0f2" d="M 303.5,298.5 C 362.168,298.333 420.834,298.5 479.5,299C 482.447,302.727 484.447,306.894 485.5,311.5C 430.177,313.496 374.51,314.163 318.5,313.5C 311.855,310.188 306.855,305.188 303.5,298.5 Z"/></g>
<g><path style="opacity:1" fill="#c7e0f2" d="M 605.5,298.5 C 605.5,303.5 605.5,308.5 605.5,313.5C 605.167,313.5 604.833,313.5 604.5,313.5C 580.831,313.667 557.164,313.5 533.5,313C 531.438,308.209 529.105,303.543 526.5,299C 552.831,298.5 579.165,298.333 605.5,298.5 Z"/></g>
<g><path style="opacity:1" fill="#5757a7" d="M 485.5,311.5 C 486.404,312.209 486.737,313.209 486.5,314.5C 430.997,314.168 375.664,314.501 320.5,315.5C 319.5,315.167 318.833,314.5 318.5,313.5C 374.51,314.163 430.177,313.496 485.5,311.5 Z"/></g>
<g><path style="opacity:1" fill="#322b95" d="M 604.5,313.5 C 604.833,313.5 605.167,313.5 605.5,313.5C 605.5,314.167 605.5,314.833 605.5,315.5C 581.498,315.667 557.498,315.5 533.5,315C 557.337,314.832 581.004,314.332 604.5,313.5 Z"/></g>
<g><path style="opacity:1" fill="#4c48a1" d="M 320.5,315.5 C 375.664,314.501 430.997,314.168 486.5,314.5C 486.5,315.167 486.5,315.833 486.5,316.5C 431.833,316.5 377.167,316.5 322.5,316.5C 321.833,316.167 321.167,315.833 320.5,315.5 Z"/></g>
<g><path style="opacity:1" fill="#c8deef" d="M 322.5,316.5 C 377.167,316.5 431.833,316.5 486.5,316.5C 486.5,319.167 486.5,321.833 486.5,324.5C 438.499,324.667 390.499,324.5 342.5,324C 335.257,322.756 328.59,320.256 322.5,316.5 Z"/></g>
<g><path style="opacity:1" fill="#c8def0" d="M 605.5,316.5 C 605.5,318.833 605.5,321.167 605.5,323.5C 582.339,324.498 559.006,324.831 535.5,324.5C 535.167,321.833 534.833,319.167 534.5,316.5C 558.167,316.5 581.833,316.5 605.5,316.5 Z"/></g>
<g><path style="opacity:1" fill="#b7c0d3" d="M 514.5,324.5 C 512.5,324.5 510.5,324.5 508.5,324.5C 510.702,320.886 512.702,320.886 514.5,324.5 Z"/></g>
<g><path style="opacity:1" fill="#e3423e" d="M 508.5,324.5 C 510.5,324.5 512.5,324.5 514.5,324.5C 518.749,329.348 522.749,334.348 526.5,339.5C 513.5,339.5 500.5,339.5 487.5,339.5C 493.934,333.776 500.934,328.776 508.5,324.5 Z"/></g>
<g><path style="opacity:1" fill="#e6433e" d="M 605.5,323.5 C 615.912,323.074 626.246,323.574 636.5,325C 642.133,330.487 641.466,335.154 634.5,339C 600.502,339.5 566.502,339.667 532.5,339.5C 534.538,334.716 535.538,329.716 535.5,324.5C 559.006,324.831 582.339,324.498 605.5,323.5 Z"/></g>
</svg>
