<?xml version="1.0" encoding="UTF-8"?>
<!DOCTYPE svg PUBLIC "-//W3C//DTD SVG 1.1//EN" "http://www.w3.org/Graphics/SVG/1.1/DTD/svg11.dtd">
<svg xmlns="http://www.w3.org/2000/svg" version="1.1" width="924px" height="533px" style="shape-rendering:geometricPrecision; text-rendering:geometricPrecision; image-rendering:optimizeQuality; fill-rule:evenodd; clip-rule:evenodd" xmlns:xlink="http://www.w3.org/1999/xlink">
<g><path style="opacity:1" fill="#e0bb31" d="M 600.5,21.5 C 659.85,21.2422 698.684,49.2422 717,105.5C 727.387,145.593 729.22,186.093 722.5,227C 722.833,227.833 723.167,228.667 723.5,229.5C 742.862,213.817 764.529,202.317 788.5,195C 824.862,186.274 852.695,197.774 872,229.5C 901.27,284.583 900.603,339.249 870,393.5C 854.978,418.586 834.145,437.086 807.5,449C 796.422,453.072 785.089,454.572 773.5,453.5C 576.62,463.922 379.62,467.755 182.5,465C 153.745,464.232 125.079,462.232 96.5,459C 48.9625,456.629 23.9625,431.795 21.5,384.5C 22.7327,350.212 35.7327,321.379 60.5,298C 89.887,276.161 121.554,272.494 155.5,287C 165.817,291.488 175.484,296.988 184.5,303.5C 184.833,301.667 185.167,299.833 185.5,298C 180.45,250.737 184.284,204.237 197,158.5C 206.391,125.853 224.558,99.3526 251.5,79C 312.292,43.8269 366.126,52.3269 413,104.5C 436.939,135.039 454.606,169.039 466,206.5C 472.275,166.341 484.942,128.341 504,92.5C 512.773,76.8034 523.606,62.6368 536.5,50C 554.728,33.428 576.061,23.928 600.5,21.5 Z"/></g>
</svg>
