<?xml version="1.0" encoding="UTF-8"?>
<!DOCTYPE svg PUBLIC "-//W3C//DTD SVG 1.1//EN" "http://www.w3.org/Graphics/SVG/1.1/DTD/svg11.dtd">
<svg xmlns="http://www.w3.org/2000/svg" version="1.1" width="414px" height="454px" style="shape-rendering:geometricPrecision; text-rendering:geometricPrecision; image-rendering:optimizeQuality; fill-rule:evenodd; clip-rule:evenodd" xmlns:xlink="http://www.w3.org/1999/xlink">
<g><path style="opacity:1" fill="#322b65" d="M 226.5,-0.5 C 229.167,-0.5 231.833,-0.5 234.5,-0.5C 234.611,0.117425 234.944,0.617425 235.5,1C 234,1.16667 232.5,1.33333 231,1.5C 229.014,1.43135 227.514,0.764682 226.5,-0.5 Z"/></g>
<g><path style="opacity:1" fill="#332c67" d="M 205.5,0.5 C 206.978,0.237978 208.311,0.571312 209.5,1.5C 206.663,3.47385 203.663,3.80718 200.5,2.5C 202.291,1.83015 203.958,1.16348 205.5,0.5 Z"/></g>
<g><path style="opacity:1" fill="#302b6a" d="M 216.5,0.5 C 216.5,1.16667 216.5,1.83333 216.5,2.5C 212.5,1.83333 212.5,1.16667 216.5,0.5 Z"/></g>
<g><path style="opacity:1" fill="#322e67" d="M 218.5,-0.5 C 219.5,-0.5 220.5,-0.5 221.5,-0.5C 221.611,0.117425 221.944,0.617425 222.5,1C 220.564,1.81299 218.564,2.31299 216.5,2.5C 216.5,1.83333 216.5,1.16667 216.5,0.5C 217.492,0.67158 218.158,0.338246 218.5,-0.5 Z"/></g>
<g><path style="opacity:1" fill="#332e67" d="M 239.5,-0.5 C 240.833,-0.5 242.167,-0.5 243.5,-0.5C 243.842,0.338246 244.508,0.67158 245.5,0.5C 245.167,1.16667 244.833,1.83333 244.5,2.5C 242.152,2.40775 240.486,1.40775 239.5,-0.5 Z"/></g>
<g><path style="opacity:1" fill="#342b6a" d="M 245.5,0.5 C 249.139,1.26755 248.806,1.93421 244.5,2.5C 244.833,1.83333 245.167,1.16667 245.5,0.5 Z"/></g>
<g><path style="opacity:1" fill="#332c67" d="M 252.5,0.5 C 255.321,0.538686 257.988,1.20535 260.5,2.5C 258.926,3.63088 257.259,3.79755 255.5,3C 253.881,2.76445 252.881,1.93112 252.5,0.5 Z"/></g>
<g><path style="opacity:1" fill="#323065" d="M 193.5,2.5 C 197.5,3.16667 197.5,3.83333 193.5,4.5C 193.5,3.83333 193.5,3.16667 193.5,2.5 Z"/></g>
<g><path style="opacity:1" fill="#342d67" d="M 265.5,2.5 C 268.482,2.10445 271.149,2.77111 273.5,4.5C 273,4.83333 272.5,5.16667 272,5.5C 269.27,5.29438 267.103,4.29438 265.5,2.5 Z"/></g>
<g><path style="opacity:1" fill="#322c66" d="M 193.5,2.5 C 193.5,3.16667 193.5,3.83333 193.5,4.5C 185.526,5.13118 185.526,4.46451 193.5,2.5 Z"/></g>
<g><path style="opacity:1" fill="#323268" d="M 280.5,4.5 C 280.167,5.16667 279.833,5.83333 279.5,6.5C 278.243,5.3774 278.576,4.71073 280.5,4.5 Z"/></g>
<g><path style="opacity:1" fill="#332b68" d="M 280.5,4.5 C 281.609,4.55688 282.609,4.89022 283.5,5.5C 283.5,6.16667 283.5,6.83333 283.5,7.5C 282.167,7.16667 280.833,6.83333 279.5,6.5C 279.833,5.83333 280.167,5.16667 280.5,4.5 Z"/></g>
<g><path style="opacity:1" fill="#333265" d="M 283.5,5.5 C 284.167,5.5 284.833,5.5 285.5,5.5C 285.167,6.16667 284.833,6.83333 284.5,7.5C 284.167,7.5 283.833,7.5 283.5,7.5C 283.5,6.83333 283.5,6.16667 283.5,5.5 Z"/></g>
<g><path style="opacity:1" fill="#322b65" d="M 285.5,5.5 C 286.757,6.6226 286.424,7.28927 284.5,7.5C 284.833,6.83333 285.167,6.16667 285.5,5.5 Z"/></g>
<g><path style="opacity:1" fill="#342d66" d="M 180.5,4.5 C 181.756,4.46141 182.756,4.96141 183.5,6C 180.48,7.51059 177.48,8.01059 174.5,7.5C 176.282,6.01587 178.282,5.01587 180.5,4.5 Z"/></g>
<g><path style="opacity:1" fill="#342d68" d="M 167.5,7.5 C 169.549,7.70575 169.883,8.53908 168.5,10C 166.17,11.3454 163.837,11.5121 161.5,10.5C 163.594,9.4824 165.594,8.4824 167.5,7.5 Z"/></g>
<g><path style="opacity:1" fill="#322e66" d="M 290.5,7.5 C 293.321,7.53869 295.988,8.20535 298.5,9.5C 296.56,10.5284 294.56,10.5284 292.5,9.5C 291.287,9.25284 290.62,8.58617 290.5,7.5 Z"/></g>
<g><path style="opacity:1" fill="#342b67" d="M 305.5,11.5 C 305.5,12.1667 305.5,12.8333 305.5,13.5C 304.522,13.189 303.855,12.5223 303.5,11.5C 304.257,10.2267 304.923,10.2267 305.5,11.5 Z"/></g>
<g><path style="opacity:1" fill="#333264" d="M 305.5,11.5 C 306.167,11.5 306.833,11.5 307.5,11.5C 307.167,12.1667 306.833,12.8333 306.5,13.5C 306.167,13.5 305.833,13.5 305.5,13.5C 305.5,12.8333 305.5,12.1667 305.5,11.5 Z"/></g>
<g><path style="opacity:1" fill="#332c68" d="M 151.5,13.5 C 151.5,14.1667 151.833,14.5 152.5,14.5C 150.814,16.1475 149.147,16.3141 147.5,15C 148.563,13.8118 149.897,13.3118 151.5,13.5 Z"/></g>
<g><path style="opacity:1" fill="#352e68" d="M 152.5,14.5 C 151.833,14.5 151.5,14.1667 151.5,13.5C 152.641,12.661 153.974,11.9943 155.5,11.5C 156.462,13.8833 155.462,14.8833 152.5,14.5 Z"/></g>
<g><path style="opacity:1" fill="#322c66" d="M 307.5,11.5 C 312.61,13.8021 312.277,14.4688 306.5,13.5C 306.833,12.8333 307.167,12.1667 307.5,11.5 Z"/></g>
<g><path style="opacity:1" fill="#332d67" d="M 315.5,14.5 C 318.509,15.2727 321.176,16.606 323.5,18.5C 323.167,18.8333 322.833,19.1667 322.5,19.5C 321.205,18.9017 319.872,18.4017 318.5,18C 316.574,17.5776 315.574,16.4109 315.5,14.5 Z"/></g>
<g><path style="opacity:1" fill="#332d68" d="M 141.5,16.5 C 143.337,16.6395 143.67,17.3061 142.5,18.5C 140.5,19.5 138.5,20.5 136.5,21.5C 136.167,21.1667 135.833,20.8333 135.5,20.5C 137.219,18.6478 139.219,17.3145 141.5,16.5 Z"/></g>
<g><path style="opacity:1" fill="#322d67" d="M 327.5,19.5 C 330.423,20.295 333.09,21.6284 335.5,23.5C 335.167,23.8333 334.833,24.1667 334.5,24.5C 333.205,23.9017 331.872,23.4017 330.5,23C 328.574,22.5776 327.574,21.4109 327.5,19.5 Z"/></g>
<g><path style="opacity:1" fill="#342c69" d="M 129.5,21.5 C 130.776,22.3864 130.776,23.3864 129.5,24.5C 127.368,26.1174 125.035,26.6174 122.5,26C 124.898,24.4758 127.231,22.9758 129.5,21.5 Z"/></g>
<g><path style="opacity:1" fill="#322e66" d="M 339.5,25.5 C 341.681,25.2837 343.347,26.117 344.5,28C 341.981,28.7409 340.315,27.9076 339.5,25.5 Z"/></g>
<g><path style="opacity:1" fill="#332e68" d="M 115.5,28.5 C 116.675,28.281 117.675,28.6143 118.5,29.5C 116.33,31.0862 113.996,32.4196 111.5,33.5C 110.479,32.9984 110.312,32.3317 111,31.5C 112.652,30.6006 114.152,29.6006 115.5,28.5 Z"/></g>
<g><path style="opacity:1" fill="#322e67" d="M 348.5,29.5 C 350.2,30.016 351.533,31.016 352.5,32.5C 351.21,33.4077 349.877,33.241 348.5,32C 347.402,31.2303 347.402,30.397 348.5,29.5 Z"/></g>
<g><path style="opacity:1" fill="#352e68" d="M 104.5,34.5 C 106.927,35.2789 106.927,36.4455 104.5,38C 102.99,38.8498 101.49,39.6831 100,40.5C 99.5,40.1667 99,39.8333 98.5,39.5C 100.571,37.8149 102.571,36.1482 104.5,34.5 Z"/></g>
<g><path style="opacity:1" fill="#333067" d="M 93.5,44.5 C 92.8333,44.5 92.1667,44.5 91.5,44.5C 91.811,43.5222 92.4777,42.8555 93.5,42.5C 94.7733,43.2565 94.7733,43.9232 93.5,44.5 Z"/></g>
<g><path style="opacity:1" fill="#342d69" d="M 91.5,44.5 C 92.1667,44.5 92.8333,44.5 93.5,44.5C 92.0858,46.0542 90.4192,47.3875 88.5,48.5C 87.7383,46.2192 88.7383,44.8859 91.5,44.5 Z"/></g>
<g><path style="opacity:1" fill="#323066" d="M 82.5,52.5 C 81.8333,52.5 81.1667,52.5 80.5,52.5C 80.811,51.5222 81.4777,50.8555 82.5,50.5C 83.7733,51.2565 83.7733,51.9232 82.5,52.5 Z"/></g>
<g><path style="opacity:1" fill="#352f68" d="M 80.5,52.5 C 79.8333,53.5 79.1667,54.5 78.5,55.5C 78.44,56.0431 78.1067,56.3764 77.5,56.5C 76.7383,54.2192 77.7383,52.8859 80.5,52.5 Z"/></g>
<g><path style="opacity:1" fill="#372b69" d="M 80.5,52.5 C 81.1667,52.5 81.8333,52.5 82.5,52.5C 81.7377,54.2624 80.4044,55.2624 78.5,55.5C 79.1667,54.5 79.8333,53.5 80.5,52.5 Z"/></g>
<g><path style="opacity:1" fill="#323067" d="M 70.5,62.5 C 69.8333,62.5 69.1667,62.5 68.5,62.5C 69.4056,60.0863 71.0722,59.253 73.5,60C 72.6266,61.045 71.6266,61.8783 70.5,62.5 Z"/></g>
<g><path style="opacity:1" fill="#312d67" d="M 68.5,62.5 C 69.1667,62.5 69.8333,62.5 70.5,62.5C 69.5944,64.9137 67.9278,65.747 65.5,65C 66.3734,63.955 67.3734,63.1217 68.5,62.5 Z"/></g>
<g><path style="opacity:1" fill="#322f68" d="M 60.5,68.5 C 61.3764,68.3691 62.0431,68.7025 62.5,69.5C 60.8509,71.6499 59.0176,73.6499 57,75.5C 56.3333,74.5 56.3333,73.5 57,72.5C 58.3756,71.2949 59.5423,69.9616 60.5,68.5 Z"/></g>
<g><path style="opacity:1" fill="#312d67" d="M 51.5,78.5 C 53.0281,78.5173 53.5281,79.184 53,80.5C 51.3163,82.3513 49.4829,84.018 47.5,85.5C 46.479,84.9984 46.3123,84.3317 47,83.5C 48.7073,81.9625 50.2073,80.2959 51.5,78.5 Z"/></g>
<g><path style="opacity:1" fill="#332e67" d="M 42.5,88.5 C 43.3764,88.3691 44.0431,88.7025 44.5,89.5C 37.7521,98.9036 37.0854,98.5703 42.5,88.5 Z"/></g>
<g><path style="opacity:1" fill="#332e68" d="M 34.5,99.5 C 35.2891,99.7828 35.9558,100.283 36.5,101C 34.9544,103.257 33.2877,105.424 31.5,107.5C 30.4173,106.635 30.2506,105.635 31,104.5C 32.1764,102.804 33.343,101.138 34.5,99.5 Z"/></g>
<g><path style="opacity:1" fill="#322d68" d="M 26.5,111.5 C 27.3764,111.369 28.0431,111.702 28.5,112.5C 27.1971,114.968 25.6971,117.301 24,119.5C 23.5,119 23,118.5 22.5,118C 24.2206,116.056 25.554,113.89 26.5,111.5 Z"/></g>
<g><path style="opacity:1" fill="#322f67" d="M 19.5,123.5 C 20.4972,123.47 21.1639,123.97 21.5,125C 20.7854,127.605 19.4521,129.772 17.5,131.5C 17.1667,131.167 16.8333,130.833 16.5,130.5C 17.7878,128.261 18.7878,125.928 19.5,123.5 Z"/></g>
<g><path style="opacity:1" fill="#332e67" d="M 14.5,135.5 C 15.5715,138.781 14.7381,141.781 12,144.5C 11.6396,141.206 12.473,138.206 14.5,135.5 Z"/></g>
<g><path style="opacity:1" fill="#332e67" d="M 8.5,148.5 C 9.58617,148.62 10.2528,149.287 10.5,150.5C 9.96391,152.942 9.13058,155.275 8,157.5C 7.30762,156.975 6.80762,156.308 6.5,155.5C 7.57706,153.271 8.24372,150.937 8.5,148.5 Z"/></g>
<g><path style="opacity:1" fill="#332f67" d="M 5.5,166.5 C 4.83333,166.5 4.5,166.167 4.5,165.5C 4.31181,163.897 4.81181,162.563 6,161.5C 6.77961,163.387 6.61295,165.054 5.5,166.5 Z"/></g>
<g><path style="opacity:1" fill="#332c65" d="M 4.5,165.5 C 4.5,166.167 4.83333,166.5 5.5,166.5C 5.76202,167.978 5.42869,169.311 4.5,170.5C 3.21214,168.701 3.21214,167.035 4.5,165.5 Z"/></g>
<g><path style="opacity:1" fill="#342c66" d="M 3.5,178.5 C 2.83333,178.167 2.16667,177.833 1.5,177.5C 1.36912,176.624 1.70245,175.957 2.5,175.5C 3.38568,176.325 3.71901,177.325 3.5,178.5 Z"/></g>
<g><path style="opacity:1" fill="#363264" d="M 1.5,177.5 C 2.16667,177.833 2.83333,178.167 3.5,178.5C 3.5,179.167 3.5,179.833 3.5,180.5C 2.83333,180.167 2.16667,179.833 1.5,179.5C 1.5,178.833 1.5,178.167 1.5,177.5 Z"/></g>
<g><path style="opacity:1" fill="#312c68" d="M 1.5,179.5 C 2.16667,179.833 2.83333,180.167 3.5,180.5C 3.58517,181.995 2.91851,182.995 1.5,183.5C 0.708401,182.3 0.708401,180.967 1.5,179.5 Z"/></g>
<g><path style="opacity:1" fill="#322e67" d="M -0.5,197.5 C -0.5,195.5 -0.5,193.5 -0.5,191.5C 0.26791,190.737 0.76791,189.737 1,188.5C 1.86992,189.108 2.36992,189.941 2.5,191C 2.29438,193.73 1.29438,195.897 -0.5,197.5 Z"/></g>
<g><path style="opacity:1" fill="#352b68" d="M -0.5,203.5 C -0.5,203.167 -0.5,202.833 -0.5,202.5C 0.833333,202.5 1.5,203.167 1.5,204.5C 0.833333,204.167 0.166667,203.833 -0.5,203.5 Z"/></g>
<g><path style="opacity:1" fill="#323067" d="M -0.5,203.5 C 0.166667,203.833 0.833333,204.167 1.5,204.5C 2.01017,207.388 1.34351,209.721 -0.5,211.5C -0.5,208.833 -0.5,206.167 -0.5,203.5 Z"/></g>
<g><path style="opacity:1" fill="#332f66" d="M 0.5,216.5 C 1.93112,216.881 2.76445,217.881 3,219.5C 3.80766,221.579 3.64099,223.579 2.5,225.5C 1.32194,222.609 0.65527,219.609 0.5,216.5 Z"/></g>
<g><path style="opacity:1" fill="#342f67" d="M 3.5,229.5 C 5.23943,231.375 6.23943,233.708 6.5,236.5C 6.16667,237.167 5.83333,237.833 5.5,238.5C 3.66727,235.531 3.00061,232.531 3.5,229.5 Z"/></g>
<g><path style="opacity:1" fill="#332f66" d="M 140.5,237.5 C 140.167,238.167 139.833,238.833 139.5,239.5C 138.325,239.719 137.325,239.386 136.5,238.5C 137.689,237.571 139.022,237.238 140.5,237.5 Z"/></g>
<g><path style="opacity:1" fill="#342c68" d="M 140.5,237.5 C 141.978,237.238 143.311,237.571 144.5,238.5C 142.955,239.452 141.288,239.785 139.5,239.5C 139.833,238.833 140.167,238.167 140.5,237.5 Z"/></g>
<g><path style="opacity:1" fill="#332f66" d="M 148.5,237.5 C 150.857,237.337 153.19,237.503 155.5,238C 156.711,238.893 156.711,239.726 155.5,240.5C 152.655,240.234 150.322,239.234 148.5,237.5 Z"/></g>
<g><path style="opacity:1" fill="#342d68" d="M 128.5,239.5 C 129.978,239.238 131.311,239.571 132.5,240.5C 129.982,242.464 127.316,243.13 124.5,242.5C 125.901,241.479 127.235,240.479 128.5,239.5 Z"/></g>
<g><path style="opacity:1" fill="#322d66" d="M 161.5,239.5 C 164.1,240.468 166.434,241.801 168.5,243.5C 168.167,243.833 167.833,244.167 167.5,244.5C 165.615,243.391 163.615,242.557 161.5,242C 160.402,241.23 160.402,240.397 161.5,239.5 Z"/></g>
<g><path style="opacity:1" fill="#332e68" d="M 118.5,245.5 C 119.552,245.351 120.552,245.517 121.5,246C 119.679,247.743 117.679,249.243 115.5,250.5C 114.479,249.998 114.312,249.332 115,248.5C 116.145,247.364 117.312,246.364 118.5,245.5 Z"/></g>
<g><path style="opacity:1" fill="#332e67" d="M 171.5,245.5 C 174.624,245.943 176.957,247.61 178.5,250.5C 177.998,251.521 177.332,251.688 176.5,251C 174.576,249.25 172.909,247.417 171.5,245.5 Z"/></g>
<g><path style="opacity:1" fill="#322e68" d="M 6.5,243.5 C 7.4959,243.414 8.32924,243.748 9,244.5C 9.55731,246.615 10.3906,248.615 11.5,250.5C 11.1667,250.833 10.8333,251.167 10.5,251.5C 8.60698,249.181 7.27365,246.514 6.5,243.5 Z"/></g>
<g><path style="opacity:1" fill="#352e68" d="M 181.5,253.5 C 184.523,255.542 185.856,258.209 185.5,261.5C 183.724,259.462 182.057,257.296 180.5,255C 181.056,254.617 181.389,254.117 181.5,253.5 Z"/></g>
<g><path style="opacity:1" fill="#342f68" d="M 109.5,253.5 C 110.376,253.369 111.043,253.702 111.5,254.5C 109.808,256.359 108.308,258.359 107,260.5C 106.308,259.975 105.808,259.308 105.5,258.5C 106.857,256.814 108.19,255.148 109.5,253.5 Z"/></g>
<g><path style="opacity:1" fill="#322e68" d="M 11.5,255.5 C 12.4959,255.414 13.3292,255.748 14,256.5C 15.5899,258.65 16.2566,260.983 16,263.5C 13.7159,261.264 12.2159,258.598 11.5,255.5 Z"/></g>
<g><path style="opacity:1" fill="#322e67" d="M 102.5,263.5 C 103.239,263.369 103.906,263.536 104.5,264C 103.292,266.25 101.959,268.417 100.5,270.5C 99.6333,267.857 100.3,265.523 102.5,263.5 Z"/></g>
<g><path style="opacity:1" fill="#342f68" d="M 22.5,270.5 C 21.5,270.5 20.5,270.5 19.5,270.5C 18.4713,265.653 19.4713,265.653 22.5,270.5 Z"/></g>
<g><path style="opacity:1" fill="#332d68" d="M 19.5,270.5 C 20.5,270.5 21.5,270.5 22.5,270.5C 24.4202,271.821 24.5868,273.154 23,274.5C 21.6244,273.295 20.4577,271.962 19.5,270.5 Z"/></g>
<g><path style="opacity:1" fill="#332f67" d="M 187.5,264.5 C 189.427,267.137 189.927,270.137 189,273.5C 187.25,270.602 186.75,267.602 187.5,264.5 Z"/></g>
<g><path style="opacity:1" fill="#332f68" d="M 96.5,274.5 C 97.4972,274.47 98.1639,274.97 98.5,276C 98.1648,278.577 97.1648,280.744 95.5,282.5C 95.1667,282.167 94.8333,281.833 94.5,281.5C 95.5771,279.271 96.2437,276.937 96.5,274.5 Z"/></g>
<g><path style="opacity:1" fill="#332f67" d="M 188.5,277.5 C 189.497,277.47 190.164,277.97 190.5,279C 190.022,281.226 189.355,283.392 188.5,285.5C 187.551,282.874 187.551,280.208 188.5,277.5 Z"/></g>
<g><path style="opacity:1" fill="#332d68" d="M 26.5,277.5 C 28.8122,279.146 30.8122,281.146 32.5,283.5C 31.5,284.833 30.5,284.833 29.5,283.5C 28.3523,281.851 27.019,280.351 25.5,279C 26.056,278.617 26.3893,278.117 26.5,277.5 Z"/></g>
<g><path style="opacity:1" fill="#332e66" d="M 93.5,286.5 C 94.5862,286.62 95.2528,287.287 95.5,288.5C 95.1401,290.608 94.4734,292.608 93.5,294.5C 92.5508,291.874 92.5508,289.208 93.5,286.5 Z"/></g>
<g><path style="opacity:1" fill="#332d66" d="M 34.5,287.5 C 37.2254,288.713 39.5588,290.546 41.5,293C 41,293.5 40.5,294 40,294.5C 37.5464,292.559 35.713,290.225 34.5,287.5 Z"/></g>
<g><path style="opacity:1" fill="#322e66" d="M 185.5,289.5 C 186.478,289.811 187.145,290.478 187.5,291.5C 186.649,293.882 185.316,295.882 183.5,297.5C 183.167,297.333 182.833,297.167 182.5,297C 183.991,294.692 184.991,292.192 185.5,289.5 Z"/></g>
<g><path style="opacity:1" fill="#322e67" d="M 44.5,296.5 C 47.3404,297.423 49.6737,299.09 51.5,301.5C 51.1667,301.833 50.8333,302.167 50.5,302.5C 47.5279,301.37 45.5279,299.37 44.5,296.5 Z"/></g>
<g><path style="opacity:1" fill="#322b68" d="M 92.5,300.5 C 92.56,299.957 92.8933,299.624 93.5,299.5C 94.4287,300.689 94.762,302.022 94.5,303.5C 93.8333,302.5 93.1667,301.5 92.5,300.5 Z"/></g>
<g><path style="opacity:1" fill="#333266" d="M 92.5,300.5 C 93.1667,301.5 93.8333,302.5 94.5,303.5C 94.5,304.5 94.5,305.5 94.5,306.5C 93.8333,305.833 93.1667,305.167 92.5,304.5C 92.5,303.167 92.5,301.833 92.5,300.5 Z"/></g>
<g><path style="opacity:1" fill="#342f67" d="M 179.5,301.5 C 180.376,301.369 181.043,301.702 181.5,302.5C 179.833,304.5 178.167,306.5 176.5,308.5C 175.417,307.635 175.251,306.635 176,305.5C 177.376,304.295 178.542,302.962 179.5,301.5 Z"/></g>
<g><path style="opacity:1" fill="#322b68" d="M 92.5,304.5 C 93.1667,305.167 93.8333,305.833 94.5,306.5C 94.44,307.043 94.1067,307.376 93.5,307.5C 92.6143,306.675 92.281,305.675 92.5,304.5 Z"/></g>
<g><path style="opacity:1" fill="#332e68" d="M 54.5,305.5 C 57.5545,304.663 60.2212,305.663 62.5,308.5C 61.635,309.583 60.635,309.749 59.5,309C 57.8043,307.824 56.1376,306.657 54.5,305.5 Z"/></g>
<g><path style="opacity:1" fill="#332d67" d="M 66.5,310.5 C 69.3013,311.735 71.9679,313.235 74.5,315C 70.4011,315.789 67.7345,314.289 66.5,310.5 Z"/></g>
<g><path style="opacity:1" fill="#322e67" d="M 93.5,311.5 C 94.1174,311.611 94.6174,311.944 95,312.5C 95.3108,314.556 95.8108,316.556 96.5,318.5C 95.7261,319.711 94.8928,319.711 94,318.5C 93.5034,316.19 93.3367,313.857 93.5,311.5 Z"/></g>
<g><path style="opacity:1" fill="#342f68" d="M 170.5,310.5 C 172.028,310.517 172.528,311.184 172,312.5C 170.587,314.414 168.753,315.747 166.5,316.5C 165.479,315.998 165.312,315.332 166,314.5C 167.992,313.672 169.492,312.339 170.5,310.5 Z"/></g>
<g><path style="opacity:1" fill="#332c67" d="M 78.5,316.5 C 81.4665,316.989 84.1332,318.155 86.5,320C 84.0871,320.484 81.7538,320.15 79.5,319C 78.7476,318.329 78.4142,317.496 78.5,316.5 Z"/></g>
<g><path style="opacity:1" fill="#332e68" d="M 159.5,317.5 C 160.552,317.351 161.552,317.517 162.5,318C 160.382,320.142 157.882,321.642 155,322.5C 154.333,321.833 154.333,321.167 155,320.5C 156.652,319.601 158.152,318.601 159.5,317.5 Z"/></g>
<g><path style="opacity:1" fill="#322e67" d="M 99.5,330.5 C 98.8333,330.167 98.1667,329.833 97.5,329.5C 96.2616,327.786 95.595,325.786 95.5,323.5C 93.8561,323.714 92.3561,323.38 91,322.5C 90.3123,321.668 90.479,321.002 91.5,320.5C 93.9252,321.308 96.2585,322.308 98.5,323.5C 98.2907,324.086 97.9574,324.586 97.5,325C 98.464,326.725 99.1307,328.559 99.5,330.5 Z"/></g>
<g><path style="opacity:1" fill="#342c67" d="M 144.5,325.5 C 144.5,324.833 144.5,324.167 144.5,323.5C 146.402,322.489 148.402,322.322 150.5,323C 148.713,324.319 146.713,325.152 144.5,325.5 Z"/></g>
<g><path style="opacity:1" fill="#323066" d="M 144.5,323.5 C 144.5,324.167 144.5,324.833 144.5,325.5C 140.711,325.263 140.711,324.596 144.5,323.5 Z"/></g>
<g><path style="opacity:1" fill="#333067" d="M 106.5,324.5 C 106.158,325.338 105.492,325.672 104.5,325.5C 103.227,324.923 103.227,324.257 104.5,323.5C 105.183,323.863 105.85,324.196 106.5,324.5 Z"/></g>
<g><path style="opacity:1" fill="#332c67" d="M 133.5,324.5 C 134.978,324.238 136.311,324.571 137.5,325.5C 134.987,327.405 132.321,327.739 129.5,326.5C 130.949,325.828 132.282,325.161 133.5,324.5 Z"/></g>
<g><path style="opacity:1" fill="#352b6a" d="M 106.5,324.5 C 106.833,324.5 107.167,324.5 107.5,324.5C 107.5,325.167 107.5,325.833 107.5,326.5C 106.209,326.737 105.209,326.404 104.5,325.5C 105.492,325.672 106.158,325.338 106.5,324.5 Z"/></g>
<g><path style="opacity:1" fill="#322f68" d="M 107.5,324.5 C 112.833,325.167 112.833,325.833 107.5,326.5C 107.5,325.833 107.5,325.167 107.5,324.5 Z"/></g>
<g><path style="opacity:1" fill="#323168" d="M 116.5,325.5 C 119.247,325.187 121.914,325.52 124.5,326.5C 123.167,326.833 121.833,327.167 120.5,327.5C 118.667,327.415 117.334,326.748 116.5,325.5 Z"/></g>
<g><path style="opacity:1" fill="#322b6a" d="M 97.5,329.5 C 98.1667,329.833 98.8333,330.167 99.5,330.5C 98.3774,331.757 97.7107,331.424 97.5,329.5 Z"/></g>
<g><path style="opacity:1" fill="#342e68" d="M 100.5,335.5 C 103.241,337.627 104.241,340.294 103.5,343.5C 101.377,341.255 100.377,338.588 100.5,335.5 Z"/></g>
<g><path style="opacity:1" fill="#322e68" d="M 105.5,347.5 C 108.068,348.574 109.735,350.574 110.5,353.5C 110.167,353.833 109.833,354.167 109.5,354.5C 107.4,352.636 106.067,350.303 105.5,347.5 Z"/></g>
<g><path style="opacity:1" fill="#352e68" d="M 112.5,357.5 C 115.528,359.552 116.861,362.218 116.5,365.5C 114.095,363.358 112.762,360.691 112.5,357.5 Z"/></g>
<g><path style="opacity:1" fill="#322e67" d="M 119.5,368.5 C 122.37,369.528 124.37,371.528 125.5,374.5C 125.167,374.833 124.833,375.167 124.5,375.5C 122.09,373.674 120.423,371.34 119.5,368.5 Z"/></g>
<g><path style="opacity:1" fill="#322e67" d="M 127.5,378.5 C 130.407,379.734 132.741,381.734 134.5,384.5C 133.998,385.521 133.332,385.688 132.5,385C 130.21,383.223 128.543,381.056 127.5,378.5 Z"/></g>
<g><path style="opacity:1" fill="#322e68" d="M 136.5,389.5 C 139.56,388.775 141.893,390.108 143.5,393.5C 142.998,394.521 142.332,394.688 141.5,394C 139.963,392.293 138.296,390.793 136.5,389.5 Z"/></g>
<g><path style="opacity:1" fill="#342e67" d="M 146.5,397.5 C 149.655,397.984 151.988,399.651 153.5,402.5C 152.998,403.521 152.332,403.688 151.5,403C 149.234,401.574 147.568,399.74 146.5,397.5 Z"/></g>
<g><path style="opacity:1" fill="#322e67" d="M 157.5,406.5 C 160.455,406.981 162.789,408.481 164.5,411C 163.5,411.667 162.5,411.667 161.5,411C 159.365,410.124 158.031,408.624 157.5,406.5 Z"/></g>
<g><path style="opacity:1" fill="#332e68" d="M 168.5,413.5 C 171.117,414.786 173.45,416.453 175.5,418.5C 175.167,418.833 174.833,419.167 174.5,419.5C 172.37,418.533 170.37,417.366 168.5,416C 167.402,415.23 167.402,414.397 168.5,413.5 Z"/></g>
<g><path style="opacity:1" fill="#352d68" d="M 413.5,413.5 C 413.5,413.833 413.5,414.167 413.5,414.5C 408.092,417.013 407.592,416.346 412,412.5C 412.383,413.056 412.883,413.389 413.5,413.5 Z"/></g>
<g><path style="opacity:1" fill="#332e67" d="M 405.5,416.5 C 407.885,417.867 407.552,419.201 404.5,420.5C 404.167,420.167 403.833,419.833 403.5,419.5C 404.193,418.482 404.859,417.482 405.5,416.5 Z"/></g>
<g><path style="opacity:1" fill="#332f67" d="M 185.5,424.5 C 184.833,424.5 184.5,424.833 184.5,425.5C 182.695,424.763 181.029,423.763 179.5,422.5C 181.933,421.551 183.933,422.218 185.5,424.5 Z"/></g>
<g><path style="opacity:1" fill="#332d68" d="M 397.5,421.5 C 399.549,421.706 399.883,422.539 398.5,424C 396.545,426.071 394.212,426.738 391.5,426C 393.684,424.637 395.684,423.137 397.5,421.5 Z"/></g>
<g><path style="opacity:1" fill="#352c68" d="M 185.5,424.5 C 186.376,424.369 187.043,424.702 187.5,425.5C 186.386,426.776 185.386,426.776 184.5,425.5C 184.5,424.833 184.833,424.5 185.5,424.5 Z"/></g>
<g><path style="opacity:1" fill="#342e68" d="M 385.5,430.5 C 384.508,430.672 383.842,430.338 383.5,429.5C 385.28,427.864 386.947,427.697 388.5,429C 387.756,430.039 386.756,430.539 385.5,430.5 Z"/></g>
<g><path style="opacity:1" fill="#322d66" d="M 191.5,427.5 C 194.598,428.216 197.264,429.716 199.5,432C 196.983,432.257 194.65,431.59 192.5,430C 191.748,429.329 191.414,428.496 191.5,427.5 Z"/></g>
<g><path style="opacity:1" fill="#342d69" d="M 383.5,429.5 C 383.842,430.338 384.508,430.672 385.5,430.5C 384.105,432.3 382.439,432.634 380.5,431.5C 381.357,430.575 382.357,429.908 383.5,429.5 Z"/></g>
<g><path style="opacity:1" fill="#322e67" d="M 203.5,433.5 C 206.467,433.989 209.133,435.155 211.5,437C 211,437.5 210.5,438 210,438.5C 207.243,437.397 205.076,435.731 203.5,433.5 Z"/></g>
<g><path style="opacity:1" fill="#342d68" d="M 373.5,433.5 C 374.675,433.281 375.675,433.614 376.5,434.5C 374.192,437.007 371.525,437.674 368.5,436.5C 370.36,435.675 372.026,434.675 373.5,433.5 Z"/></g>
<g><path style="opacity:1" fill="#322c66" d="M 215.5,438.5 C 218.475,438.713 221.142,439.713 223.5,441.5C 221.534,442.372 219.534,442.205 217.5,441C 216.244,440.583 215.577,439.75 215.5,438.5 Z"/></g>
<g><path style="opacity:1" fill="#342e67" d="M 360.5,438.5 C 361.978,438.238 363.311,438.571 364.5,439.5C 361.894,441.275 359.228,441.941 356.5,441.5C 357.901,440.479 359.235,439.479 360.5,438.5 Z"/></g>
<g><path style="opacity:1" fill="#322e67" d="M 228.5,442.5 C 231.416,442.893 234.083,443.893 236.5,445.5C 234.534,446.372 232.534,446.205 230.5,445C 229.244,444.583 228.577,443.75 228.5,442.5 Z"/></g>
<g><path style="opacity:1" fill="#342d67" d="M 348.5,442.5 C 349.978,442.238 351.311,442.571 352.5,443.5C 350.077,444.729 347.577,445.729 345,446.5C 344.517,445.552 344.351,444.552 344.5,443.5C 346.099,443.768 347.432,443.434 348.5,442.5 Z"/></g>
<g><path style="opacity:1" fill="#322d67" d="M 241.5,446.5 C 244.4,446.28 247.067,446.946 249.5,448.5C 247.56,449.528 245.56,449.528 243.5,448.5C 242.287,448.253 241.62,447.586 241.5,446.5 Z"/></g>
<g><path style="opacity:1" fill="#322d66" d="M 336.5,445.5 C 337.675,445.281 338.675,445.614 339.5,446.5C 337.133,448.395 334.466,448.895 331.5,448C 333.175,447.015 334.842,446.181 336.5,445.5 Z"/></g>
<g><path style="opacity:1" fill="#322c66" d="M 259.5,449.5 C 259.5,450.167 259.5,450.833 259.5,451.5C 257.516,451.617 255.85,450.95 254.5,449.5C 256.095,448.566 257.761,448.566 259.5,449.5 Z"/></g>
<g><path style="opacity:1" fill="#332b67" d="M 323.5,448.5 C 323.5,449.167 323.5,449.833 323.5,450.5C 321.628,451.795 319.962,451.628 318.5,450C 320.025,448.991 321.692,448.491 323.5,448.5 Z"/></g>
<g><path style="opacity:1" fill="#342b66" d="M 325.5,448.5 C 328.167,449.167 328.167,449.833 325.5,450.5C 325.5,449.833 325.5,449.167 325.5,448.5 Z"/></g>
<g><path style="opacity:1" fill="#333267" d="M 323.5,448.5 C 324.167,448.5 324.833,448.5 325.5,448.5C 325.5,449.167 325.5,449.833 325.5,450.5C 324.833,450.5 324.167,450.5 323.5,450.5C 323.5,449.833 323.5,449.167 323.5,448.5 Z"/></g>
<g><path style="opacity:1" fill="#333167" d="M 259.5,449.5 C 264.629,450.614 264.629,451.281 259.5,451.5C 259.5,450.833 259.5,450.167 259.5,449.5 Z"/></g>
<g><path style="opacity:1" fill="#322b67" d="M 271.5,450.5 C 272.978,450.238 274.311,450.571 275.5,451.5C 273.955,452.452 272.288,452.785 270.5,452.5C 270.833,451.833 271.167,451.167 271.5,450.5 Z"/></g>
<g><path style="opacity:1" fill="#323167" d="M 271.5,450.5 C 271.167,451.167 270.833,451.833 270.5,452.5C 269.325,452.719 268.325,452.386 267.5,451.5C 268.689,450.571 270.022,450.238 271.5,450.5 Z"/></g>
<g><path style="opacity:1" fill="#323164" d="M 285.5,451.5 C 287.179,451.285 288.179,451.952 288.5,453.5C 287.167,453.5 285.833,453.5 284.5,453.5C 284.833,452.833 285.167,452.167 285.5,451.5 Z"/></g>
<g><path style="opacity:1" fill="#332b68" d="M 301.5,453.5 C 298.833,453.5 296.167,453.5 293.5,453.5C 294.334,452.252 295.667,451.585 297.5,451.5C 299.333,451.585 300.666,452.252 301.5,453.5 Z"/></g>
<g><path style="opacity:1" fill="#333165" d="M 310.5,450.5 C 310.5,451.167 310.5,451.833 310.5,452.5C 305.167,451.833 305.167,451.167 310.5,450.5 Z"/></g>
<g><path style="opacity:1" fill="#342c67" d="M 310.5,450.5 C 315.833,451.167 315.833,451.833 310.5,452.5C 310.5,451.833 310.5,451.167 310.5,450.5 Z"/></g>
<g><path style="opacity:1" fill="#322b65" d="M 285.5,451.5 C 285.167,452.167 284.833,452.833 284.5,453.5C 283.167,453.5 281.833,453.5 280.5,453.5C 281.552,451.744 283.219,451.077 285.5,451.5 Z"/></g>
</svg>
