<?xml version="1.0" encoding="UTF-8"?>
<!DOCTYPE svg PUBLIC "-//W3C//DTD SVG 1.1//EN" "http://www.w3.org/Graphics/SVG/1.1/DTD/svg11.dtd">
<svg xmlns="http://www.w3.org/2000/svg" version="1.1" width="517px" height="599px" style="shape-rendering:geometricPrecision; text-rendering:geometricPrecision; image-rendering:optimizeQuality; fill-rule:evenodd; clip-rule:evenodd" xmlns:xlink="http://www.w3.org/1999/xlink">
<g><path style="opacity:1" fill="#322b67" d="M 260.5,56.5 C 260.5,57.1667 260.5,57.8333 260.5,58.5C 253.833,57.8333 253.833,57.1667 260.5,56.5 Z"/></g>
<g><path style="opacity:1" fill="#363068" d="M 260.5,56.5 C 265.833,57.1667 265.833,57.8333 260.5,58.5C 260.5,57.8333 260.5,57.1667 260.5,56.5 Z"/></g>
<g><path style="opacity:1" fill="#322b6a" d="M 271.5,56.5 C 273.167,57.1667 274.833,57.8333 276.5,58.5C 274.076,58.8076 271.743,58.4742 269.5,57.5C 269.957,56.7025 270.624,56.3691 271.5,56.5 Z"/></g>
<g><path style="opacity:1" fill="#323169" d="M 271.5,56.5 C 273.604,56.2011 275.604,56.5344 277.5,57.5C 277.376,58.1067 277.043,58.44 276.5,58.5C 274.833,57.8333 273.167,57.1667 271.5,56.5 Z"/></g>
<g><path style="opacity:1" fill="#312b68" d="M 286.5,56.5 C 286.5,57.1667 286.5,57.8333 286.5,58.5C 281.371,57.3856 281.371,56.719 286.5,56.5 Z"/></g>
<g><path style="opacity:1" fill="#333266" d="M 286.5,56.5 C 293.167,57.1667 293.167,57.8333 286.5,58.5C 286.5,57.8333 286.5,57.1667 286.5,56.5 Z"/></g>
<g><path style="opacity:1" fill="#302b68" d="M 299.5,57.5 C 299.167,58.1667 298.833,58.8333 298.5,59.5C 297.624,59.6309 296.957,59.2975 296.5,58.5C 297.325,57.6143 298.325,57.281 299.5,57.5 Z"/></g>
<g><path style="opacity:1" fill="#353265" d="M 299.5,57.5 C 300.167,57.5 300.833,57.5 301.5,57.5C 301.167,58.1667 300.833,58.8333 300.5,59.5C 299.833,59.5 299.167,59.5 298.5,59.5C 298.833,58.8333 299.167,58.1667 299.5,57.5 Z"/></g>
<g><path style="opacity:1" fill="#352d68" d="M 301.5,57.5 C 303.346,57.2222 304.68,57.8888 305.5,59.5C 303.997,60.0522 302.331,60.0522 300.5,59.5C 300.833,58.8333 301.167,58.1667 301.5,57.5 Z"/></g>
<g><path style="opacity:1" fill="#332d66" d="M 245.5,57.5 C 247.288,57.2148 248.955,57.5481 250.5,58.5C 247.602,60.2844 244.602,60.6178 241.5,59.5C 242.949,58.8281 244.282,58.1614 245.5,57.5 Z"/></g>
<g><path style="opacity:1" fill="#333264" d="M 312.5,59.5 C 313.167,59.5 313.833,59.5 314.5,59.5C 314.167,60.1667 313.833,60.8333 313.5,61.5C 313.167,61.5 312.833,61.5 312.5,61.5C 312.5,60.8333 312.5,60.1667 312.5,59.5 Z"/></g>
<g><path style="opacity:1" fill="#362b66" d="M 229.5,60.5 C 229.5,61.1667 229.5,61.8333 229.5,62.5C 226.833,61.8333 226.833,61.1667 229.5,60.5 Z"/></g>
<g><path style="opacity:1" fill="#333264" d="M 229.5,60.5 C 230.167,60.5 230.833,60.5 231.5,60.5C 231.5,61.1667 231.5,61.8333 231.5,62.5C 230.833,62.5 230.167,62.5 229.5,62.5C 229.5,61.8333 229.5,61.1667 229.5,60.5 Z"/></g>
<g><path style="opacity:1" fill="#332b67" d="M 312.5,59.5 C 312.5,60.1667 312.5,60.8333 312.5,61.5C 309.833,60.8333 309.833,60.1667 312.5,59.5 Z"/></g>
<g><path style="opacity:1" fill="#322d68" d="M 314.5,59.5 C 316.312,59.7713 317.978,60.438 319.5,61.5C 317.54,62.5192 315.54,62.5192 313.5,61.5C 313.833,60.8333 314.167,60.1667 314.5,59.5 Z"/></g>
<g><path style="opacity:1" fill="#332c67" d="M 231.5,62.5 C 231.5,61.8333 231.5,61.1667 231.5,60.5C 238.167,59.8568 238.167,60.5235 231.5,62.5 Z"/></g>
<g><path style="opacity:1" fill="#342d67" d="M 218.5,62.5 C 219.978,62.238 221.311,62.5713 222.5,63.5C 220.077,64.7289 217.577,65.7289 215,66.5C 214.517,65.552 214.351,64.552 214.5,63.5C 216.099,63.7678 217.432,63.4345 218.5,62.5 Z"/></g>
<g><path style="opacity:1" fill="#332d67" d="M 324.5,62.5 C 327.829,62.2637 330.829,63.097 333.5,65C 331.134,65.5625 328.801,65.3958 326.5,64.5C 325.287,64.2528 324.62,63.5862 324.5,62.5 Z"/></g>
<g><path style="opacity:1" fill="#342c67" d="M 207.5,65.5 C 209.549,65.7058 209.883,66.5391 208.5,68C 198.184,70.1665 197.851,69.3332 207.5,65.5 Z"/></g>
<g><path style="opacity:1" fill="#332c66" d="M 342.5,67.5 C 342.5,68.1667 342.167,68.5 341.5,68.5C 338.538,68.8833 337.538,67.8833 338.5,65.5C 340.026,65.9943 341.359,66.661 342.5,67.5 Z"/></g>
<g><path style="opacity:1" fill="#332b66" d="M 342.5,67.5 C 345.775,67.2328 346.608,68.2328 345,70.5C 343.698,69.9152 342.531,69.2485 341.5,68.5C 342.167,68.5 342.5,68.1667 342.5,67.5 Z"/></g>
<g><path style="opacity:1" fill="#322d68" d="M 350.5,70.5 C 353.691,71.0922 356.691,72.2589 359.5,74C 359,74.5 358.5,75 358,75.5C 355.808,74.6005 353.642,73.6005 351.5,72.5C 350.702,72.0431 350.369,71.3764 350.5,70.5 Z"/></g>
<g><path style="opacity:1" fill="#342d67" d="M 192.5,70.5 C 193.873,70.3433 195.207,70.51 196.5,71C 193.79,73.4107 190.79,74.2441 187.5,73.5C 189.145,72.3037 190.811,71.3037 192.5,70.5 Z"/></g>
<g><path style="opacity:1" fill="#342d68" d="M 179.5,75.5 C 180.873,75.3433 182.207,75.51 183.5,76C 180.881,78.6656 177.881,79.4989 174.5,78.5C 176.36,77.6751 178.026,76.6751 179.5,75.5 Z"/></g>
<g><path style="opacity:1" fill="#322e67" d="M 363.5,76.5 C 367.55,76.6245 369.883,78.2912 370.5,81.5C 367.501,80.5243 365.168,78.8577 363.5,76.5 Z"/></g>
<g><path style="opacity:1" fill="#342c68" d="M 168.5,80.5 C 170.549,80.7058 170.883,81.5391 169.5,83C 167.285,84.8142 164.952,85.3142 162.5,84.5C 164.565,83.1433 166.565,81.81 168.5,80.5 Z"/></g>
<g><path style="opacity:1" fill="#323067" d="M 381.5,86.5 C 380.833,86.5 380.5,86.8333 380.5,87.5C 378.513,86.8358 376.846,85.6692 375.5,84C 378.082,83.4585 380.082,84.2918 381.5,86.5 Z"/></g>
<g><path style="opacity:1" fill="#322b66" d="M 381.5,86.5 C 382.376,86.3691 383.043,86.7025 383.5,87.5C 382.386,88.7759 381.386,88.7759 380.5,87.5C 380.5,86.8333 380.833,86.5 381.5,86.5 Z"/></g>
<g><path style="opacity:1" fill="#342f68" d="M 154.5,87.5 C 155.873,87.3433 157.207,87.51 158.5,88C 156.301,89.6971 153.968,91.1971 151.5,92.5C 150.479,91.9984 150.312,91.3317 151,90.5C 152.518,89.8366 153.685,88.8366 154.5,87.5 Z"/></g>
<g><path style="opacity:1" fill="#332d67" d="M 387.5,90.5 C 391.037,91.858 393.203,94.1913 394,97.5C 390.88,95.8866 388.713,93.5533 387.5,90.5 Z"/></g>
<g><path style="opacity:1" fill="#332d68" d="M 143.5,94.5 C 146.999,94.259 147.332,95.0924 144.5,97C 142.99,97.8498 141.49,98.6831 140,99.5C 139.5,99.1667 139,98.8333 138.5,98.5C 140.21,97.1128 141.877,95.7794 143.5,94.5 Z"/></g>
<g><path style="opacity:1" fill="#322b68" d="M 398.5,99.5 C 401.245,100.737 403.578,102.57 405.5,105C 405,105.5 404.5,106 404,106.5C 401.555,105.023 399.388,103.19 397.5,101C 398.056,100.617 398.389,100.117 398.5,99.5 Z"/></g>
<g><path style="opacity:1" fill="#332e68" d="M 132.5,101.5 C 133.376,101.369 134.043,101.702 134.5,102.5C 132.782,105.856 130.115,107.356 126.5,107C 128.763,105.383 130.763,103.55 132.5,101.5 Z"/></g>
<g><path style="opacity:1" fill="#362e68" d="M 120.5,113.5 C 120.5,112.833 120.167,112.5 119.5,112.5C 120.427,110.524 121.76,110.191 123.5,111.5C 122.995,112.919 121.995,113.585 120.5,113.5 Z"/></g>
<g><path style="opacity:1" fill="#322f67" d="M 119.5,112.5 C 120.167,112.5 120.5,112.833 120.5,113.5C 119.678,115.728 118.345,116.395 116.5,115.5C 117.188,114.145 118.188,113.145 119.5,112.5 Z"/></g>
<g><path style="opacity:1" fill="#322f68" d="M 407.5,109.5 C 410.407,110.734 412.741,112.734 414.5,115.5C 413.998,116.521 413.332,116.688 412.5,116C 410.21,114.223 408.543,112.056 407.5,109.5 Z"/></g>
<g><path style="opacity:1" fill="#332e67" d="M 111.5,118.5 C 113.028,118.517 113.528,119.184 113,120.5C 111.316,122.351 109.483,124.018 107.5,125.5C 106.479,124.998 106.312,124.332 107,123.5C 108.707,121.963 110.207,120.296 111.5,118.5 Z"/></g>
<g><path style="opacity:1" fill="#332e67" d="M 416.5,120.5 C 419.37,121.528 421.37,123.528 422.5,126.5C 422.167,126.833 421.833,127.167 421.5,127.5C 419.09,125.674 417.423,123.34 416.5,120.5 Z"/></g>
<g><path style="opacity:1" fill="#322c66" d="M 102.5,127.5 C 103.225,130.56 101.892,132.893 98.5,134.5C 97.479,133.998 97.3123,133.332 98,132.5C 99.7073,130.963 101.207,129.296 102.5,127.5 Z"/></g>
<g><path style="opacity:1" fill="#352e68" d="M 424.5,131.5 C 426.497,133.513 428.164,135.846 429.5,138.5C 429.167,138.833 428.833,139.167 428.5,139.5C 425.833,137.5 424.5,134.833 424.5,131.5 Z"/></g>
<g><path style="opacity:1" fill="#333067" d="M 92.5,140.5 C 91.8333,140.833 91.1667,141.167 90.5,141.5C 90.8859,138.738 92.2192,137.738 94.5,138.5C 94.1445,139.522 93.4778,140.189 92.5,140.5 Z"/></g>
<g><path style="opacity:1" fill="#332c67" d="M 92.5,140.5 C 92.1141,143.262 90.7808,144.262 88.5,143.5C 88.8555,142.478 89.5222,141.811 90.5,141.5C 91.1667,141.167 91.8333,140.833 92.5,140.5 Z"/></g>
<g><path style="opacity:1" fill="#342e67" d="M 430.5,144.5 C 431.75,144.577 432.583,145.244 433,146.5C 434.205,148.534 434.372,150.534 433.5,152.5C 431.713,150.142 430.713,147.475 430.5,144.5 Z"/></g>
<g><path style="opacity:1" fill="#332e68" d="M 84.5,147.5 C 85.3764,147.369 86.0431,147.702 86.5,148.5C 84.823,150.54 83.1563,152.54 81.5,154.5C 81.1667,154.167 80.8333,153.833 80.5,153.5C 81.4671,151.21 82.8004,149.21 84.5,147.5 Z"/></g>
<g><path style="opacity:1" fill="#322d65" d="M 75.5,163.5 C 74.8333,163.5 74.1667,163.5 73.5,163.5C 74.3298,161.176 75.6631,159.176 77.5,157.5C 77.8333,157.833 78.1667,158.167 78.5,158.5C 77.7401,160.36 76.7401,162.027 75.5,163.5 Z"/></g>
<g><path style="opacity:1" fill="#342e68" d="M 434.5,156.5 C 435.75,156.577 436.583,157.244 437,158.5C 437.346,160.218 437.846,161.885 438.5,163.5C 437.726,164.711 436.893,164.711 436,163.5C 435.338,161.187 434.838,158.854 434.5,156.5 Z"/></g>
<g><path style="opacity:1" fill="#372b6a" d="M 73.5,163.5 C 74.1667,163.5 74.8333,163.5 75.5,163.5C 74.7624,165.76 73.7624,165.927 72.5,164C 72.7284,163.601 73.0618,163.435 73.5,163.5 Z"/></g>
<g><path style="opacity:1" fill="#322e67" d="M 69.5,168.5 C 70.2389,168.369 70.9056,168.536 71.5,169C 70.4271,171.657 68.7605,173.823 66.5,175.5C 66.1667,175.167 65.8333,174.833 65.5,174.5C 66.8435,172.471 68.1769,170.471 69.5,168.5 Z"/></g>
<g><path style="opacity:1" fill="#343067" d="M 437.5,169.5 C 438.931,169.881 439.764,170.881 440,172.5C 440.798,174.259 440.631,175.926 439.5,177.5C 438.205,174.988 437.539,172.321 437.5,169.5 Z"/></g>
<g><path style="opacity:1" fill="#322e67" d="M 62.5,179.5 C 63.3764,179.369 64.0431,179.702 64.5,180.5C 59.0767,189.899 58.41,189.565 62.5,179.5 Z"/></g>
<g><path style="opacity:1" fill="#342f68" d="M 441.5,183.5 C 440.833,184.167 440.167,184.833 439.5,185.5C 439.281,184.325 439.614,183.325 440.5,182.5C 441.107,182.624 441.44,182.957 441.5,183.5 Z"/></g>
<g><path style="opacity:1" fill="#333066" d="M 441.5,183.5 C 441.813,186.247 441.48,188.914 440.5,191.5C 439.534,189.604 439.201,187.604 439.5,185.5C 440.167,184.833 440.833,184.167 441.5,183.5 Z"/></g>
<g><path style="opacity:1" fill="#322e68" d="M 55.5,191.5 C 56.552,191.351 57.552,191.517 58.5,192C 54.1941,200.828 53.1941,200.662 55.5,191.5 Z"/></g>
<g><path style="opacity:1" fill="#332e66" d="M 439.5,195.5 C 440.765,196.514 441.431,198.014 441.5,200C 441.167,201.5 440.833,203 440.5,204.5C 439.516,201.572 439.183,198.572 439.5,195.5 Z"/></g>
<g><path style="opacity:1" fill="#322d67" d="M 50.5,202.5 C 51.4972,202.47 52.1639,202.97 52.5,204C 51.7854,206.605 50.4521,208.772 48.5,210.5C 48.1667,210.333 47.8333,210.167 47.5,210C 48.6422,207.55 49.6422,205.05 50.5,202.5 Z"/></g>
<g><path style="opacity:1" fill="#332e67" d="M 438.5,209.5 C 439.649,209.791 440.316,210.624 440.5,212C 440.327,214.021 439.66,215.854 438.5,217.5C 437.795,214.911 437.795,212.244 438.5,209.5 Z"/></g>
<g><path style="opacity:1" fill="#332e66" d="M 45.5,220.5 C 45.7373,219.209 45.404,218.209 44.5,217.5C 45.1187,214.405 46.1187,214.071 47.5,216.5C 47.0057,218.026 46.339,219.359 45.5,220.5 Z"/></g>
<g><path style="opacity:1" fill="#332b66" d="M 363.5,216.5 C 366.247,216.187 368.914,216.52 371.5,217.5C 370.167,217.833 368.833,218.167 367.5,218.5C 365.667,218.415 364.334,217.748 363.5,216.5 Z"/></g>
<g><path style="opacity:1" fill="#342d67" d="M 353.5,217.5 C 355.527,217.338 357.527,217.505 359.5,218C 356.685,219.958 353.685,220.458 350.5,219.5C 351.602,218.824 352.602,218.158 353.5,217.5 Z"/></g>
<g><path style="opacity:1" fill="#342f67" d="M 44.5,217.5 C 45.404,218.209 45.7373,219.209 45.5,220.5C 45.5386,221.756 45.0386,222.756 44,223.5C 43.5099,221.455 43.6765,219.455 44.5,217.5 Z"/></g>
<g><path style="opacity:1" fill="#322c67" d="M 376.5,217.5 C 379.253,218.022 381.92,218.856 384.5,220C 384,220.5 383.5,221 383,221.5C 380.48,220.793 377.98,219.96 375.5,219C 376.056,218.617 376.389,218.117 376.5,217.5 Z"/></g>
<g><path style="opacity:1" fill="#342d68" d="M 344.5,220.5 C 346.028,220.517 346.528,221.184 346,222.5C 344.013,223.218 342.179,224.218 340.5,225.5C 339.479,224.998 339.312,224.332 340,223.5C 341.409,222.219 342.909,221.219 344.5,220.5 Z"/></g>
<g><path style="opacity:1" fill="#332d66" d="M 388.5,221.5 C 391.516,221.841 394.182,223.007 396.5,225C 394.447,225.325 392.447,224.991 390.5,224C 389.244,223.583 388.577,222.75 388.5,221.5 Z"/></g>
<g><path style="opacity:1" fill="#322f67" d="M 436.5,228.5 C 435.833,228.833 435.167,229.167 434.5,229.5C 434.936,227.254 435.603,225.087 436.5,223C 437.332,222.312 437.998,222.479 438.5,223.5C 437.972,225.336 437.306,227.003 436.5,228.5 Z"/></g>
<g><path style="opacity:1" fill="#322d66" d="M 399.5,226.5 C 403.268,227.109 405.435,229.109 406,232.5C 403.168,231.038 401.001,229.038 399.5,226.5 Z"/></g>
<g><path style="opacity:1" fill="#352d68" d="M 334.5,226.5 C 335.573,227.251 335.74,228.251 335,229.5C 333.045,230.453 331.378,231.787 330,233.5C 330.004,230.307 331.504,227.974 334.5,226.5 Z"/></g>
<g><path style="opacity:1" fill="#352b6a" d="M 436.5,228.5 C 436.289,230.424 435.623,230.757 434.5,229.5C 435.167,229.167 435.833,228.833 436.5,228.5 Z"/></g>
<g><path style="opacity:1" fill="#332e67" d="M 41.5,227.5 C 42.3764,227.369 43.0431,227.702 43.5,228.5C 42.6924,230.925 41.6924,233.258 40.5,235.5C 39.5219,232.732 39.8553,230.066 41.5,227.5 Z"/></g>
<g><path style="opacity:1" fill="#333067" d="M 409.5,235.5 C 412.56,234.775 414.893,236.108 416.5,239.5C 415.998,240.521 415.332,240.688 414.5,240C 412.963,238.293 411.296,236.793 409.5,235.5 Z"/></g>
<g><path style="opacity:1" fill="#342e67" d="M 37.5,239.5 C 38.4972,239.47 39.1639,239.97 39.5,241C 39,242.5 38.5,244 38,245.5C 37.3076,244.975 36.8076,244.308 36.5,243.5C 37.2458,242.264 37.5792,240.93 37.5,239.5 Z"/></g>
<g><path style="opacity:1" fill="#322e67" d="M 325.5,235.5 C 326.289,235.783 326.956,236.283 327.5,237C 326,239.167 324.5,241.333 323,243.5C 322.5,243 322,242.5 321.5,242C 323.058,239.948 324.392,237.781 325.5,235.5 Z"/></g>
<g><path style="opacity:1" fill="#332e67" d="M 432.5,234.5 C 433.497,234.47 434.164,234.97 434.5,236C 433.906,238.79 432.739,241.29 431,243.5C 430.861,240.425 431.361,237.425 432.5,234.5 Z"/></g>
<g><path style="opacity:1" fill="#352b69" d="M 422.5,245.5 C 421.833,245.833 421.167,246.167 420.5,246.5C 417.623,244.154 417.956,243.321 421.5,244C 422.056,244.383 422.389,244.883 422.5,245.5 Z"/></g>
<g><path style="opacity:1" fill="#332f68" d="M 422.5,245.5 C 425.228,251.627 424.561,251.961 420.5,246.5C 421.167,246.167 421.833,245.833 422.5,245.5 Z"/></g>
<g><path style="opacity:1" fill="#322f68" d="M 319.5,246.5 C 320.289,246.783 320.956,247.283 321.5,248C 320.598,250.202 319.598,252.368 318.5,254.5C 318.167,254 317.833,253.5 317.5,253C 318.274,250.846 318.941,248.679 319.5,246.5 Z"/></g>
<g><path style="opacity:1" fill="#322f67" d="M 428.5,254.5 C 428.5,255.167 428.167,255.5 427.5,255.5C 426.994,253.895 426.327,253.561 425.5,254.5C 424.957,254.44 424.624,254.107 424.5,253.5C 425.657,251.322 426.99,249.322 428.5,247.5C 428.228,249.771 428.228,252.105 428.5,254.5 Z"/></g>
<g><path style="opacity:1" fill="#392b6a" d="M 427.5,255.5 C 426.508,255.672 425.842,255.338 425.5,254.5C 426.327,253.561 426.994,253.895 427.5,255.5 Z"/></g>
<g><path style="opacity:1" fill="#332e68" d="M 428.5,254.5 C 429.725,255.937 430.725,257.604 431.5,259.5C 430.998,260.521 430.332,260.688 429.5,260C 428.418,258.67 427.751,257.17 427.5,255.5C 428.167,255.5 428.5,255.167 428.5,254.5 Z"/></g>
<g><path style="opacity:1" fill="#332e67" d="M 316.5,258.5 C 317.695,258.866 318.361,259.699 318.5,261C 317.873,263.135 317.373,265.302 317,267.5C 316.009,266.57 315.509,265.404 315.5,264C 315.943,262.175 316.277,260.342 316.5,258.5 Z"/></g>
<g><path style="opacity:1" fill="#322d66" d="M 421.5,258.5 C 422.376,258.369 423.043,258.702 423.5,259.5C 422.189,262.135 420.522,264.469 418.5,266.5C 418.167,266.167 417.833,265.833 417.5,265.5C 419.098,263.302 420.431,260.969 421.5,258.5 Z"/></g>
<g><path style="opacity:1" fill="#352e68" d="M 432.5,264.5 C 434.411,264.574 435.578,265.574 436,267.5C 437.267,269.424 437.267,271.09 436,272.5C 434.544,269.968 433.377,267.301 432.5,264.5 Z"/></g>
<g><path style="opacity:1" fill="#322e67" d="M 414.5,269.5 C 415.225,272.56 413.892,274.893 410.5,276.5C 409.479,275.998 409.312,275.332 410,274.5C 411.707,272.963 413.207,271.296 414.5,269.5 Z"/></g>
<g><path style="opacity:1" fill="#332e67" d="M 316.5,271.5 C 317.75,271.577 318.583,272.244 319,273.5C 319.346,275.218 319.846,276.885 320.5,278.5C 319.726,279.711 318.893,279.711 318,278.5C 317.338,276.187 316.838,273.854 316.5,271.5 Z"/></g>
<g><path style="opacity:1" fill="#332d66" d="M 404.5,283.5 C 404.5,282.833 404.167,282.5 403.5,282.5C 404.322,280.272 405.655,279.605 407.5,280.5C 406.812,281.855 405.812,282.855 404.5,283.5 Z"/></g>
<g><path style="opacity:1" fill="#352f66" d="M 437.5,276.5 C 438.496,276.414 439.329,276.748 440,277.5C 441.15,279.754 441.484,282.087 441,284.5C 439.155,282.133 437.989,279.467 437.5,276.5 Z"/></g>
<g><path style="opacity:1" fill="#342c68" d="M 403.5,282.5 C 404.167,282.5 404.5,282.833 404.5,283.5C 403.562,286.045 402.229,286.545 400.5,285C 401.373,283.955 402.373,283.122 403.5,282.5 Z"/></g>
<g><path style="opacity:1" fill="#342e68" d="M 321.5,283.5 C 324.468,284.954 325.968,287.287 326,290.5C 323.418,288.772 321.918,286.439 321.5,283.5 Z"/></g>
<g><path style="opacity:1" fill="#333264" d="M 443.5,289.5 C 442.833,289.833 442.167,290.167 441.5,290.5C 441.711,288.576 442.377,288.243 443.5,289.5 Z"/></g>
<g><path style="opacity:1" fill="#342e67" d="M 392.5,293.5 C 392.5,292.833 392.5,292.167 392.5,291.5C 393.479,288.843 395.146,288.177 397.5,289.5C 395.814,290.857 394.148,292.19 392.5,293.5 Z"/></g>
<g><path style="opacity:1" fill="#342d67" d="M 443.5,289.5 C 444.089,291.352 444.756,293.185 445.5,295C 445,295.5 444.5,296 444,296.5C 442.865,294.63 442.032,292.63 441.5,290.5C 442.167,290.167 442.833,289.833 443.5,289.5 Z"/></g>
<g><path style="opacity:1" fill="#363067" d="M 392.5,291.5 C 392.5,292.167 392.5,292.833 392.5,293.5C 389.833,292.833 389.833,292.167 392.5,291.5 Z"/></g>
<g><path style="opacity:1" fill="#322e67" d="M 329.5,292.5 C 332.274,293.723 334.941,295.223 337.5,297C 337,297.5 336.5,298 336,298.5C 333.168,297.038 331.001,295.038 329.5,292.5 Z"/></g>
<g><path style="opacity:1" fill="#332d68" d="M 383.5,295.5 C 384.675,295.281 385.675,295.614 386.5,296.5C 384.25,298.798 381.584,299.631 378.5,299C 380.233,297.811 381.9,296.644 383.5,295.5 Z"/></g>
<g><path style="opacity:1" fill="#332e67" d="M 341.5,298.5 C 351.848,301.98 351.848,302.813 341.5,301C 340.402,300.23 340.402,299.397 341.5,298.5 Z"/></g>
<g><path style="opacity:1" fill="#322c66" d="M 353.5,301.5 C 356.247,301.187 358.914,301.52 361.5,302.5C 361.167,303.5 360.5,304.167 359.5,304.5C 356.953,304.229 354.953,303.229 353.5,301.5 Z"/></g>
<g><path style="opacity:1" fill="#322d67" d="M 373.5,299.5 C 374.774,300.189 374.774,301.023 373.5,302C 371.099,303.039 368.766,303.206 366.5,302.5C 368.764,301.131 371.097,300.131 373.5,299.5 Z"/></g>
<g><path style="opacity:1" fill="#332f67" d="M 444.5,300.5 C 445.586,300.62 446.253,301.287 446.5,302.5C 447.396,304.801 447.562,307.134 447,309.5C 445.097,306.829 444.264,303.829 444.5,300.5 Z"/></g>
<g><path style="opacity:1" fill="#332f67" d="M 446.5,313.5 C 448.045,314.23 448.878,315.563 449,317.5C 449.798,319.259 449.631,320.926 448.5,322.5C 447.068,319.673 446.401,316.673 446.5,313.5 Z"/></g>
<g><path style="opacity:1" fill="#332e68" d="M 447.5,327.5 C 448.75,327.577 449.583,328.244 450,329.5C 450.851,332.053 450.518,334.386 449,336.5C 448.498,333.487 447.998,330.487 447.5,327.5 Z"/></g>
<g><path style="opacity:1" fill="#332d67" d="M 448.5,340.5 C 449.765,341.514 450.431,343.014 450.5,345C 450.167,346.5 449.833,348 449.5,349.5C 448.516,346.572 448.183,343.572 448.5,340.5 Z"/></g>
<g><path style="opacity:1" fill="#342e67" d="M 448.5,354.5 C 449.376,354.369 450.043,354.702 450.5,355.5C 449.926,358.177 449.259,360.843 448.5,363.5C 447.259,360.463 447.259,357.463 448.5,354.5 Z"/></g>
<g><path style="opacity:1" fill="#342d67" d="M 448.5,371.5 C 447.833,370.833 447.167,370.167 446.5,369.5C 446.783,368.711 447.283,368.044 448,367.5C 448.49,368.793 448.657,370.127 448.5,371.5 Z"/></g>
<g><path style="opacity:1" fill="#333264" d="M 446.5,369.5 C 447.167,370.167 447.833,370.833 448.5,371.5C 448.5,372.167 448.5,372.833 448.5,373.5C 447.833,373.167 447.167,372.833 446.5,372.5C 446.5,371.5 446.5,370.5 446.5,369.5 Z"/></g>
<g><path style="opacity:1" fill="#322e69" d="M 446.5,372.5 C 447.167,372.833 447.833,373.167 448.5,373.5C 448.585,374.995 447.919,375.995 446.5,376.5C 445.708,375.3 445.708,373.967 446.5,372.5 Z"/></g>
<g><path style="opacity:1" fill="#322f66" d="M 444.5,381.5 C 445.649,381.791 446.316,382.624 446.5,384C 446.327,386.021 445.66,387.854 444.5,389.5C 444.051,386.956 444.051,384.29 444.5,381.5 Z"/></g>
<g><path style="opacity:1" fill="#332f67" d="M 442.5,394.5 C 443.779,397.634 443.279,400.634 441,403.5C 440.404,400.314 440.904,397.314 442.5,394.5 Z"/></g>
<g><path style="opacity:1" fill="#332f68" d="M 438.5,407.5 C 439.376,407.369 440.043,407.702 440.5,408.5C 436.398,419.141 435.731,418.807 438.5,407.5 Z"/></g>
<g><path style="opacity:1" fill="#332f66" d="M 433.5,420.5 C 434.497,420.47 435.164,420.97 435.5,422C 434.976,424.413 433.976,426.58 432.5,428.5C 432.167,428 431.833,427.5 431.5,427C 432.609,424.953 433.276,422.787 433.5,420.5 Z"/></g>
<g><path style="opacity:1" fill="#322e68" d="M 428.5,433.5 C 429.376,433.369 430.043,433.702 430.5,434.5C 425.352,443.687 424.686,443.354 428.5,433.5 Z"/></g>
<g><path style="opacity:1" fill="#322f67" d="M 422.5,445.5 C 423.376,445.369 424.043,445.702 424.5,446.5C 419.077,455.899 418.41,455.565 422.5,445.5 Z"/></g>
<g><path style="opacity:1" fill="#332f69" d="M 416.5,460.5 C 415.662,460.158 415.328,459.492 415.5,458.5C 415.783,457.711 416.283,457.044 417,456.5C 417.579,457.928 417.412,459.262 416.5,460.5 Z"/></g>
<g><path style="opacity:1" fill="#322e67" d="M 415.5,458.5 C 415.328,459.492 415.662,460.158 416.5,460.5C 415.524,461.815 414.524,463.148 413.5,464.5C 412.551,462.067 413.218,460.067 415.5,458.5 Z"/></g>
<g><path style="opacity:1" fill="#352f68" d="M 408.5,467.5 C 409.289,467.783 409.956,468.283 410.5,469C 408.994,471.333 407.327,473.5 405.5,475.5C 405.167,475.167 404.833,474.833 404.5,474.5C 405.889,472.132 407.222,469.799 408.5,467.5 Z"/></g>
<g><path style="opacity:1" fill="#333067" d="M 399.5,483.5 C 398.167,483.5 397.5,484.167 397.5,485.5C 396.775,482.44 398.108,480.107 401.5,478.5C 401.833,478.833 402.167,479.167 402.5,479.5C 401.476,480.852 400.476,482.185 399.5,483.5 Z"/></g>
<g><path style="opacity:1" fill="#3b2b6a" d="M 399.5,483.5 C 399.167,484.5 398.5,485.167 397.5,485.5C 397.5,484.167 398.167,483.5 399.5,483.5 Z"/></g>
<g><path style="opacity:1" fill="#322e68" d="M 391.5,488.5 C 392.552,488.351 393.552,488.517 394.5,489C 392.65,491.018 390.65,492.851 388.5,494.5C 388.167,494.167 387.833,493.833 387.5,493.5C 388.857,491.814 390.19,490.148 391.5,488.5 Z"/></g>
<g><path style="opacity:1" fill="#322f68" d="M 382.5,497.5 C 383.376,497.369 384.043,497.702 384.5,498.5C 383.079,501.343 381.079,502.676 378.5,502.5C 379.857,500.814 381.19,499.148 382.5,497.5 Z"/></g>
<g><path style="opacity:1" fill="#332e68" d="M 372.5,506.5 C 373.675,506.281 374.675,506.614 375.5,507.5C 373.5,509.167 371.5,510.833 369.5,512.5C 369.167,512.167 368.833,511.833 368.5,511.5C 369.857,509.814 371.19,508.148 372.5,506.5 Z"/></g>
<g><path style="opacity:1" fill="#332f67" d="M 362.5,517.5 C 361.833,517.5 361.167,517.5 360.5,517.5C 361.479,514.843 363.146,514.177 365.5,515.5C 364.643,516.425 363.643,517.092 362.5,517.5 Z"/></g>
<g><path style="opacity:1" fill="#322b69" d="M 360.5,517.5 C 361.167,517.5 361.833,517.5 362.5,517.5C 361.118,519.895 359.452,520.395 357.5,519C 358.244,517.961 359.244,517.461 360.5,517.5 Z"/></g>
<g><path style="opacity:1" fill="#362c68" d="M 350.5,526.5 C 350.5,525.833 350.5,525.167 350.5,524.5C 351.315,523.163 352.482,522.163 354,521.5C 354.239,524.011 353.072,525.677 350.5,526.5 Z"/></g>
<g><path style="opacity:1" fill="#333067" d="M 350.5,524.5 C 350.5,525.167 350.5,525.833 350.5,526.5C 349.425,527.562 348.425,527.562 347.5,526.5C 348.005,525.081 349.005,524.415 350.5,524.5 Z"/></g>
<g><path style="opacity:1" fill="#332e68" d="M 341.5,528.5 C 343.028,528.517 343.528,529.184 343,530.5C 341.172,532.081 339.172,533.415 337,534.5C 336.5,534 336,533.5 335.5,533C 337.747,531.723 339.747,530.223 341.5,528.5 Z"/></g>
<g><path style="opacity:1" fill="#332e68" d="M 328.5,538.5 C 328.5,537.833 328.167,537.5 327.5,537.5C 328.799,535.901 330.465,535.401 332.5,536C 331.529,537.481 330.196,538.315 328.5,538.5 Z"/></g>
<g><path style="opacity:1" fill="#362d68" d="M 327.5,537.5 C 328.167,537.5 328.5,537.833 328.5,538.5C 327.469,539.249 326.302,539.915 325,540.5C 324.481,538.511 325.314,537.511 327.5,537.5 Z"/></g>
<g><path style="opacity:1" fill="#342c67" d="M 318.5,540.5 C 320.549,540.706 320.883,541.539 319.5,543C 317.17,544.523 314.836,545.023 312.5,544.5C 314.397,542.983 316.397,541.65 318.5,540.5 Z"/></g>
<g><path style="opacity:1" fill="#352d68" d="M 302.5,549.5 C 302.833,548.833 303.167,548.167 303.5,547.5C 304.895,545.7 306.561,545.366 308.5,546.5C 306.757,548.038 304.757,549.038 302.5,549.5 Z"/></g>
<g><path style="opacity:1" fill="#333068" d="M 303.5,547.5 C 303.167,548.167 302.833,548.833 302.5,549.5C 301.624,549.631 300.957,549.298 300.5,548.5C 301.325,547.614 302.325,547.281 303.5,547.5 Z"/></g>
<g><path style="opacity:1" fill="#342c66" d="M 293.5,549.5 C 294.756,549.461 295.756,549.961 296.5,551C 294.635,552.301 292.635,552.635 290.5,552C 291.571,551.148 292.571,550.315 293.5,549.5 Z"/></g>
</svg>
