<?xml version="1.0" encoding="UTF-8"?>
<!DOCTYPE svg PUBLIC "-//W3C//DTD SVG 1.1//EN" "http://www.w3.org/Graphics/SVG/1.1/DTD/svg11.dtd">
<svg xmlns="http://www.w3.org/2000/svg" version="1.1" width="655px" height="453px" style="shape-rendering:geometricPrecision; text-rendering:geometricPrecision; image-rendering:optimizeQuality; fill-rule:evenodd; clip-rule:evenodd" xmlns:xlink="http://www.w3.org/1999/xlink">
<g><path style="opacity:1" fill="#32326a" d="M 309.5,27.5 C 341.282,25.5957 369.615,34.429 394.5,54C 423.468,79.7391 444.635,110.906 458,147.5C 457.953,165.243 456.953,182.909 455,200.5C 477.179,182.664 502.346,171.164 530.5,166C 558.662,162.268 581.495,171.435 599,193.5C 626.795,234.736 632.128,278.736 615,325.5C 600.76,359.74 576.927,384.907 543.5,401C 424.528,405.367 305.528,406.367 186.5,404C 148.957,403.487 111.623,400.487 74.5,395C 45.5191,389.02 28.3524,371.52 23,342.5C 19.7079,306.03 31.5412,275.53 58.5,251C 83.7339,231.902 111.734,226.569 142.5,235C 157.402,239.618 171.402,246.118 184.5,254.5C 184.833,253.333 185.167,252.167 185.5,251C 180.257,207.422 183.757,164.588 196,122.5C 213.853,66.6938 251.686,35.0272 309.5,27.5 Z"/></g>
</svg>
