<?xml version="1.0" encoding="UTF-8"?>
<!DOCTYPE svg PUBLIC "-//W3C//DTD SVG 1.1//EN" "http://www.w3.org/Graphics/SVG/1.1/DTD/svg11.dtd">
<svg xmlns="http://www.w3.org/2000/svg" version="1.1" width="184px" height="80px" style="shape-rendering:geometricPrecision; text-rendering:geometricPrecision; image-rendering:optimizeQuality; fill-rule:evenodd; clip-rule:evenodd" xmlns:xlink="http://www.w3.org/1999/xlink">
<g><path style="opacity:1" fill="#32316a" d="M -0.5,-0.5 C 7.16667,-0.5 14.8333,-0.5 22.5,-0.5C 38.5445,12.2106 54.8778,24.5439 71.5,36.5C 57.3106,44.569 42.3106,50.9023 26.5,55.5C 27.5981,54.603 27.5981,53.7697 26.5,53C 17.6234,45.9505 8.62342,39.1172 -0.5,32.5C -0.5,21.5 -0.5,10.5 -0.5,-0.5 Z"/></g>
<g><path style="opacity:1" fill="#4f4ea3" d="M 22.5,-0.5 C 25.5,-0.5 28.5,-0.5 31.5,-0.5C 46.1667,11.1667 60.8333,22.8333 75.5,34.5C 74.4863,35.6737 73.153,36.3404 71.5,36.5C 54.8778,24.5439 38.5445,12.2106 22.5,-0.5 Z"/></g>
<g><path style="opacity:1" fill="#32316a" d="M 31.5,-0.5 C 51.8333,-0.5 72.1667,-0.5 92.5,-0.5C 97.8767,4.2097 103.543,8.54303 109.5,12.5C 98.8843,20.8163 87.5509,28.1496 75.5,34.5C 60.8333,22.8333 46.1667,11.1667 31.5,-0.5 Z"/></g>
<g><path style="opacity:1" fill="#4f4da3" d="M 92.5,-0.5 C 95.1667,-0.5 97.8333,-0.5 100.5,-0.5C 104.614,3.06416 108.948,6.39749 113.5,9.5C 112.564,10.9744 111.23,11.9744 109.5,12.5C 103.543,8.54303 97.8767,4.2097 92.5,-0.5 Z"/></g>
<g><path style="opacity:1" fill="#32316a" d="M 100.5,-0.5 C 109.167,-0.5 117.833,-0.5 126.5,-0.5C 122.386,3.06416 118.052,6.39749 113.5,9.5C 108.948,6.39749 104.614,3.06416 100.5,-0.5 Z"/></g>
<g><path style="opacity:1" fill="#4f4da3" d="M -0.5,32.5 C 8.62342,39.1172 17.6234,45.9505 26.5,53C 27.5981,53.7697 27.5981,54.603 26.5,55.5C 24.9582,56.3007 23.2915,56.634 21.5,56.5C 14.7431,50.0751 7.40979,44.4085 -0.5,39.5C -0.5,37.1667 -0.5,34.8333 -0.5,32.5 Z"/></g>
<g><path style="opacity:1" fill="#32316a" d="M -0.5,39.5 C 7.40979,44.4085 14.7431,50.0751 21.5,56.5C 14.4405,59.1006 7.10716,61.1006 -0.5,62.5C -0.5,54.8333 -0.5,47.1667 -0.5,39.5 Z"/></g>
</svg>
