<?xml version="1.0" encoding="UTF-8"?>
<!DOCTYPE svg PUBLIC "-//W3C//DTD SVG 1.1//EN" "http://www.w3.org/Graphics/SVG/1.1/DTD/svg11.dtd">
<svg xmlns="http://www.w3.org/2000/svg" version="1.1" width="183px" height="181px" style="shape-rendering:geometricPrecision; text-rendering:geometricPrecision; image-rendering:optimizeQuality; fill-rule:evenodd; clip-rule:evenodd" xmlns:xlink="http://www.w3.org/1999/xlink">
<g><path style="opacity:1" fill="#f9faf9" d="M 136.5,-0.5 C 139.833,-0.5 143.167,-0.5 146.5,-0.5C 149.557,1.39512 151.723,4.06178 153,7.5C 153.5,14.4921 153.666,21.4921 153.5,28.5C 160.841,28.3337 168.174,28.5003 175.5,29C 178.358,30.6941 180.691,32.8607 182.5,35.5C 182.5,38.5 182.5,41.5 182.5,44.5C 180.691,47.1393 178.358,49.3059 175.5,51C 168.174,51.4997 160.841,51.6663 153.5,51.5C 153.901,59.5852 153.401,67.5852 152,75.5C 144.564,83.4587 137.564,83.1254 131,74.5C 129.644,66.9048 129.144,59.2382 129.5,51.5C 122.492,51.6663 115.492,51.4996 108.5,51C 100.631,46.7208 98.7978,40.5542 103,32.5C 104.579,30.9588 106.413,29.7922 108.5,29C 115.492,28.5004 122.492,28.3337 129.5,28.5C 129.189,20.7718 129.689,13.1052 131,5.5C 132.36,2.97739 134.193,0.977392 136.5,-0.5 Z"/></g>
<g><path style="opacity:1" fill="#f9faf9" d="M 36.5,180.5 C 33.8333,180.5 31.1667,180.5 28.5,180.5C 25.4433,178.605 23.2767,175.938 22,172.5C 21.5007,167.511 21.3341,162.511 21.5,157.5C 16.1563,157.666 10.8229,157.499 5.5,157C 2.97739,155.64 0.977392,153.807 -0.5,151.5C -0.5,148.5 -0.5,145.5 -0.5,142.5C 1.61218,139.937 4.27885,138.104 7.5,137C 12.1548,136.501 16.8215,136.334 21.5,136.5C 21.1493,130.738 21.6493,125.072 23,119.5C 27.1195,114.29 32.2862,113.123 38.5,116C 40.0488,117.214 41.2155,118.714 42,120.5C 42.4994,125.823 42.666,131.156 42.5,136.5C 48.5771,136.196 54.5771,136.696 60.5,138C 65.5959,142.248 66.7625,147.415 64,153.5C 62.786,155.049 61.286,156.215 59.5,157C 53.8431,157.499 48.1764,157.666 42.5,157.5C 42.6661,163.176 42.4994,168.843 42,174.5C 40.6403,177.023 38.807,179.023 36.5,180.5 Z M 29.5,117.5 C 34.1328,116.458 37.2994,118.125 39,122.5C 39.4995,128.491 39.6662,134.491 39.5,140.5C 45.8421,140.334 52.1754,140.5 58.5,141C 64.0359,145.838 63.7026,150.171 57.5,154C 51.5092,154.499 45.5092,154.666 39.5,154.5C 39.6662,160.509 39.4995,166.509 39,172.5C 34.6117,178.971 30.2784,178.971 26,172.5C 25.5005,166.509 25.3338,160.509 25.5,154.5C 19.4908,154.666 13.4908,154.499 7.5,154C 1.29739,150.171 0.964059,145.838 6.5,141C 12.8246,140.5 19.1579,140.334 25.5,140.5C 25.3338,134.158 25.5005,127.825 26,121.5C 27.3756,120.295 28.5423,118.962 29.5,117.5 Z"/></g>
</svg>
