<?xml version="1.0" encoding="UTF-8"?>
<!DOCTYPE svg PUBLIC "-//W3C//DTD SVG 1.1//EN" "http://www.w3.org/Graphics/SVG/1.1/DTD/svg11.dtd">
<svg xmlns="http://www.w3.org/2000/svg" version="1.1" width="58px" height="57px" style="shape-rendering:geometricPrecision; text-rendering:geometricPrecision; image-rendering:optimizeQuality; fill-rule:evenodd; clip-rule:evenodd" xmlns:xlink="http://www.w3.org/1999/xlink">
<g><path style="opacity:1" fill="#f9faf9" d="M 24.5,-0.5 C 27.1667,-0.5 29.8333,-0.5 32.5,-0.5C 34.9015,0.745833 36.4015,2.74583 37,5.5C 37.4992,10.1548 37.6658,14.8215 37.5,19.5C 42.5111,19.3341 47.5111,19.5007 52.5,20C 54.687,21.025 56.3536,22.525 57.5,24.5C 57.5,26.8333 57.5,29.1667 57.5,31.5C 56.2542,33.9015 54.2542,35.4015 51.5,36C 46.8452,36.4992 42.1785,36.6658 37.5,36.5C 37.6658,41.1785 37.4992,45.8452 37,50.5C 36.1959,53.1459 34.6959,55.1459 32.5,56.5C 30.1667,56.5 27.8333,56.5 25.5,56.5C 23.525,55.3536 22.025,53.687 21,51.5C 20.5007,46.5111 20.3341,41.5111 20.5,36.5C 15.4889,36.6659 10.4889,36.4993 5.5,36C 2.55813,34.5639 0.55813,32.3972 -0.5,29.5C -0.5,28.8333 -0.5,28.1667 -0.5,27.5C 0.107669,24.0417 2.10767,21.5417 5.5,20C 10.4889,19.5007 15.4889,19.3341 20.5,19.5C 20.3341,14.4889 20.5007,9.48892 21,4.5C 21.9973,2.67694 23.1639,1.01027 24.5,-0.5 Z"/></g>
</svg>
