<?xml version="1.0" encoding="UTF-8"?>
<!DOCTYPE svg PUBLIC "-//W3C//DTD SVG 1.1//EN" "http://www.w3.org/Graphics/SVG/1.1/DTD/svg11.dtd">
<svg xmlns="http://www.w3.org/2000/svg" version="1.1" width="79px" height="79px" style="shape-rendering:geometricPrecision; text-rendering:geometricPrecision; image-rendering:optimizeQuality; fill-rule:evenodd; clip-rule:evenodd" xmlns:xlink="http://www.w3.org/1999/xlink">
<g><path style="opacity:1" fill="#f9faf9" d="M 33.5,-0.5 C 36.8333,-0.5 40.1667,-0.5 43.5,-0.5C 47.2867,1.79717 49.7867,5.13051 51,9.5C 51.4994,15.1569 51.6661,20.8236 51.5,26.5C 57.8421,26.3338 64.1754,26.5005 70.5,27C 74.5048,29.1608 77.1714,32.3275 78.5,36.5C 78.5,37.8333 78.5,39.1667 78.5,40.5C 77.1859,44.3287 74.8526,47.4954 71.5,50C 64.908,51.3288 58.2414,51.8288 51.5,51.5C 51.8696,57.9251 51.3696,64.2584 50,70.5C 48.0893,74.6992 44.9227,77.3658 40.5,78.5C 39.1667,78.5 37.8333,78.5 36.5,78.5C 32.3275,77.1714 29.1608,74.5048 27,70.5C 26.5005,64.1754 26.3338,57.8421 26.5,51.5C 20.8236,51.6661 15.1569,51.4994 9.5,51C 5.13051,49.7867 1.79717,47.2867 -0.5,43.5C -0.5,40.1667 -0.5,36.8333 -0.5,33.5C 1.30904,30.8607 3.64238,28.6941 6.5,27C 13.1583,26.5004 19.825,26.3337 26.5,26.5C 26.3337,19.825 26.5004,13.1583 27,6.5C 28.6941,3.64238 30.8607,1.30904 33.5,-0.5 Z M 35.5,3.5 C 40.2797,2.64088 43.7797,4.30755 46,8.5C 46.4997,15.8258 46.6663,23.1591 46.5,30.5C 53.8409,30.3337 61.1742,30.5003 68.5,31C 73.0685,33.5414 74.5685,37.3747 73,42.5C 71.8333,43.6667 70.6667,44.8333 69.5,46C 61.8406,46.4997 54.1739,46.6664 46.5,46.5C 46.6664,54.1739 46.4997,61.8406 46,69.5C 40.5135,75.0804 35.5135,74.747 31,68.5C 30.5003,61.1742 30.3337,53.8409 30.5,46.5C 23.1591,46.6663 15.8258,46.4997 8.5,46C 3.46475,42.9867 2.29808,38.8201 5,33.5C 5.90252,32.2986 7.06919,31.4652 8.5,31C 15.8258,30.5003 23.1591,30.3337 30.5,30.5C 30.3337,23.1591 30.5003,15.8258 31,8.5C 32.025,6.31305 33.525,4.64638 35.5,3.5 Z"/></g>
</svg>
