<?xml version="1.0" encoding="UTF-8"?>
<!DOCTYPE svg PUBLIC "-//W3C//DTD SVG 1.1//EN" "http://www.w3.org/Graphics/SVG/1.1/DTD/svg11.dtd">
<svg xmlns="http://www.w3.org/2000/svg" version="1.1" width="530px" height="150px" style="shape-rendering:geometricPrecision; text-rendering:geometricPrecision; image-rendering:optimizeQuality; fill-rule:evenodd; clip-rule:evenodd" xmlns:xlink="http://www.w3.org/1999/xlink">
<g><path style="opacity:1" fill="#5dafa8" d="M -0.5,1.5 C 176.167,1.5 352.833,1.5 529.5,1.5C 529.5,1.83333 529.5,2.16667 529.5,2.5C 500.329,25.5004 470.995,48.3338 441.5,71C 470.995,93.6662 500.329,116.5 529.5,139.5C 529.5,139.833 529.5,140.167 529.5,140.5C 352.833,140.5 176.167,140.5 -0.5,140.5C -0.5,94.1667 -0.5,47.8333 -0.5,1.5 Z"/></g>
<g><path style="opacity:1" fill="#e3f7f7" d="M 222.5,15.5 C 225.5,15.5 228.5,15.5 231.5,15.5C 222.913,52.2631 213.913,88.9297 204.5,125.5C 201.5,126.833 198.5,126.833 195.5,125.5C 204.816,88.9037 213.816,52.2371 222.5,15.5 Z"/></g>
<g><path style="opacity:1" fill="#e4f8f7" d="M 329.5,35.5 C 352.058,35.885 360.225,46.885 354,68.5C 349.313,76.8583 343.48,84.3583 336.5,91C 332.5,94.3333 328.5,97.6667 324.5,101C 335.828,101.5 347.162,101.667 358.5,101.5C 358.5,103.833 358.5,106.167 358.5,108.5C 342.5,108.5 326.5,108.5 310.5,108.5C 310.337,106.143 310.503,103.81 311,101.5C 322.978,92.854 333.645,82.854 343,71.5C 347.859,64.1169 348.526,56.4502 345,48.5C 337.635,41.9099 330.302,41.9099 323,48.5C 320.668,51.8219 319.502,55.4885 319.5,59.5C 316.5,59.5 313.5,59.5 310.5,59.5C 311.147,46.821 317.481,38.821 329.5,35.5 Z"/></g>
<g><path style="opacity:1" fill="#e4f8f7" d="M 162.5,37.5 C 168.5,37.5 174.5,37.5 180.5,37.5C 180.5,61.5 180.5,85.5 180.5,109.5C 177.5,109.5 174.5,109.5 171.5,109.5C 171.5,88.1667 171.5,66.8333 171.5,45.5C 168.5,45.5 165.5,45.5 162.5,45.5C 162.5,42.8333 162.5,40.1667 162.5,37.5 Z"/></g>
<g><path style="opacity:1" fill="#e3f7f7" d="M 122.5,37.5 C 125.448,37.2229 128.281,37.5562 131,38.5C 140.037,62.0707 149.204,85.5707 158.5,109C 155.183,109.498 151.85,109.665 148.5,109.5C 146.527,102.082 143.86,94.915 140.5,88C 130.839,87.5002 121.172,87.3335 111.5,87.5C 109.599,94.7542 106.932,101.754 103.5,108.5C 100.554,109.655 97.5541,109.821 94.5,109C 103.978,85.2119 113.312,61.3786 122.5,37.5 Z"/></g>
<g><path style="opacity:1" fill="#e3f7f7" d="M 265.5,40.5 C 269.555,40.1758 273.555,40.5091 277.5,41.5C 286.078,63.9844 294.078,86.6511 301.5,109.5C 298.428,109.817 295.428,109.484 292.5,108.5C 290.593,103.609 288.593,98.7759 286.5,94C 276.483,93.1678 266.483,93.3344 256.5,94.5C 254.229,99.3137 252.562,104.314 251.5,109.5C 248.167,109.5 244.833,109.5 241.5,109.5C 249.655,86.5426 257.655,63.5426 265.5,40.5 Z"/></g>
<g><path style="opacity:1" fill="#61b1ab" d="M 125.5,47.5 C 129.852,57.5322 133.852,67.8655 137.5,78.5C 130.197,79.4973 122.863,79.8306 115.5,79.5C 119.437,69.0209 122.771,58.3542 125.5,47.5 Z"/></g>
<g><path style="opacity:1" fill="#60b0a9" d="M 271.5,51.5 C 276.275,62.8226 280.275,74.4892 283.5,86.5C 275.5,86.5 267.5,86.5 259.5,86.5C 263.217,74.7339 267.217,63.0672 271.5,51.5 Z"/></g>
</svg>
