<?xml version="1.0" encoding="UTF-8"?>
<!DOCTYPE svg PUBLIC "-//W3C//DTD SVG 1.1//EN" "http://www.w3.org/Graphics/SVG/1.1/DTD/svg11.dtd">
<svg xmlns="http://www.w3.org/2000/svg" version="1.1" width="530px" height="150px" style="shape-rendering:geometricPrecision; text-rendering:geometricPrecision; image-rendering:optimizeQuality; fill-rule:evenodd; clip-rule:evenodd" xmlns:xlink="http://www.w3.org/1999/xlink">
<g><path style="opacity:1" fill="#c8442b" d="M -0.5,1.5 C 176.167,1.5 352.833,1.5 529.5,1.5C 529.5,1.83333 529.5,2.16667 529.5,2.5C 500.329,25.5004 470.995,48.3338 441.5,71C 470.995,93.6662 500.329,116.5 529.5,139.5C 529.5,139.833 529.5,140.167 529.5,140.5C 352.833,140.5 176.167,140.5 -0.5,140.5C -0.5,94.1667 -0.5,47.8333 -0.5,1.5 Z"/></g>
<g><path style="opacity:1" fill="#e6f2f1" d="M 220.5,15.5 C 223.572,15.1826 226.572,15.5159 229.5,16.5C 220.184,53.0963 211.184,89.7629 202.5,126.5C 199.5,126.5 196.5,126.5 193.5,126.5C 202.344,89.459 211.344,52.459 220.5,15.5 Z"/></g>
<g><path style="opacity:1" fill="#e6f4f3" d="M 317.5,99.5 C 316.711,99.7828 316.044,100.283 315.5,101C 326.828,101.5 338.162,101.667 349.5,101.5C 349.5,103.833 349.5,106.167 349.5,108.5C 333.833,108.5 318.167,108.5 302.5,108.5C 302.5,106.167 302.5,103.833 302.5,101.5C 315.53,92.3998 326.696,81.3998 336,68.5C 339.219,61.4577 339.219,54.4577 336,47.5C 327.421,41.5411 319.754,42.5411 313,50.5C 311.851,53.3926 311.351,56.3926 311.5,59.5C 308.5,59.5 305.5,59.5 302.5,59.5C 302.607,47.108 308.607,39.2746 320.5,36C 341.095,34.5948 349.929,44.0948 347,64.5C 343.933,72.3054 339.599,79.3054 334,85.5C 328.627,90.3771 323.127,95.0438 317.5,99.5 Z"/></g>
<g><path style="opacity:1" fill="#e7f7f6" d="M 159.5,37.5 C 165.833,37.5 172.167,37.5 178.5,37.5C 178.5,61.5 178.5,85.5 178.5,109.5C 175.5,109.5 172.5,109.5 169.5,109.5C 169.5,88.1667 169.5,66.8333 169.5,45.5C 166.167,45.5 162.833,45.5 159.5,45.5C 159.5,42.8333 159.5,40.1667 159.5,37.5 Z"/></g>
<g><path style="opacity:1" fill="#e6f2f1" d="M 102.5,39.5 C 112.839,39.3335 123.172,39.5002 133.5,40C 146.753,43.3547 151.587,51.5214 148,64.5C 145.642,68.3582 142.475,71.3582 138.5,73.5C 151.156,80.1232 153.99,89.7899 147,102.5C 143.703,105.567 139.869,107.733 135.5,109C 124.505,109.5 113.505,109.667 102.5,109.5C 102.5,86.1667 102.5,62.8333 102.5,39.5 Z"/></g>
<g><path style="opacity:1" fill="#e6f2f1" d="M 243.5,39.5 C 253.839,39.3335 264.172,39.5002 274.5,40C 288.761,44.0238 293.261,52.8572 288,66.5C 285.603,69.4 282.77,71.7333 279.5,73.5C 292.049,80.1704 294.883,89.8371 288,102.5C 285.436,104.727 282.603,106.561 279.5,108C 267.576,109.438 255.576,109.938 243.5,109.5C 243.5,86.1667 243.5,62.8333 243.5,39.5 Z"/></g>
<g><path style="opacity:1" fill="#c8452c" d="M 111.5,47.5 C 118.508,47.3337 125.508,47.5004 132.5,48C 137.704,49.5721 140.037,53.0721 139.5,58.5C 140.037,63.9279 137.704,67.4279 132.5,69C 125.508,69.4996 118.508,69.6663 111.5,69.5C 111.5,62.1667 111.5,54.8333 111.5,47.5 Z"/></g>
<g><path style="opacity:1" fill="#c8442b" d="M 252.5,47.5 C 260.253,47.1039 267.92,47.6039 275.5,49C 280.786,53.4406 281.952,58.9406 279,65.5C 277.421,67.0412 275.587,68.2078 273.5,69C 266.508,69.4996 259.508,69.6663 252.5,69.5C 252.5,62.1667 252.5,54.8333 252.5,47.5 Z"/></g>
<g><path style="opacity:1" fill="#c8442b" d="M 111.5,77.5 C 118.508,77.3337 125.508,77.5004 132.5,78C 140.625,80.7882 143.459,86.2882 141,94.5C 139.878,96.6238 138.378,98.4571 136.5,100C 128.251,101.406 119.917,101.906 111.5,101.5C 111.5,93.5 111.5,85.5 111.5,77.5 Z"/></g>
<g><path style="opacity:1" fill="#c8442b" d="M 252.5,77.5 C 259.508,77.3337 266.508,77.5004 273.5,78C 282.215,81.6011 284.715,87.7678 281,96.5C 279.269,98.6166 277.102,100.117 274.5,101C 267.174,101.5 259.841,101.666 252.5,101.5C 252.5,93.5 252.5,85.5 252.5,77.5 Z"/></g>
<g><path style="opacity:1" fill="#d48a77" d="M 317.5,99.5 C 328.167,100.167 338.833,100.833 349.5,101.5C 338.162,101.667 326.828,101.5 315.5,101C 316.044,100.283 316.711,99.7828 317.5,99.5 Z"/></g>
<g><path style="opacity:1" fill="#d67a67" d="M 302.5,101.5 C 302.5,103.833 302.5,106.167 302.5,108.5C 318.167,108.5 333.833,108.5 349.5,108.5C 349.5,106.167 349.5,103.833 349.5,101.5C 350.473,103.948 350.806,106.615 350.5,109.5C 334.167,109.5 317.833,109.5 301.5,109.5C 301.194,106.615 301.527,103.948 302.5,101.5 Z"/></g>
</svg>
