<?xml version="1.0" encoding="UTF-8"?>
<svg version="1.1" xmlns="http://www.w3.org/2000/svg" width="218" height="218">
<path d="M0 0 C20.95712098 19.02104984 33.053563 45.83004584 34.875 73.9375 C36.28574916 104.46037535 25.93161477 132.29493305 5.7421875 155.03515625 C-11.97983218 174.43760537 -37.90076594 187.52528445 -64.23901367 189.20678711 C-67.57887785 189.30259575 -70.90882309 189.32925735 -74.25 189.3125 C-75.43440674 189.30686035 -76.61881348 189.3012207 -77.83911133 189.29541016 C-102.52387209 188.9545117 -126.36196516 180.41025626 -145 164 C-145.80695313 163.33613281 -146.61390625 162.67226562 -147.4453125 161.98828125 C-167.22322788 145.21735301 -179.69309842 120.60916645 -183 95 C-183.29122381 90.24634205 -183.33429679 85.51166545 -183.3125 80.75 C-183.30686035 79.46383789 -183.3012207 78.17767578 -183.29541016 76.85253906 C-183.18016864 67.85000887 -182.63949159 59.65554034 -180 51 C-179.80132324 50.33145996 -179.60264648 49.66291992 -179.39794922 48.97412109 C-171.14537544 21.75608187 -153.06232244 -1.38245769 -128.07421875 -15.23046875 C-85.59627332 -37.74564744 -36.01951205 -31.68432561 0 0 Z " fill="#76E5D5" transform="translate(183,29)"/>
<path d="M0 0 C5.74182834 3.00141027 8.79984382 9.51456131 10.85140991 15.47262573 C11.57321403 18.09398452 12.21468383 20.7214059 12.82421875 23.37109375 C13.05655716 24.33346451 13.28889557 25.29583527 13.52827454 26.28736877 C14.26054445 29.33457938 14.97408125 32.38582771 15.6875 35.4375 C16.17655076 37.48010146 16.66677559 39.52242219 17.15820312 41.56445312 C24.19375853 70.97423367 24.19375853 70.97423367 23 78 C20.9375 81.125 20.9375 81.125 18 83 C14.4375 83.625 14.4375 83.625 11 83 C6.07822757 78.89852298 5.95683965 74.52279882 4 68 C-5.57 68 -15.14 68 -25 68 C-25.66 69.65 -26.32 71.3 -27 73 C-31.98551191 83.37336338 -31.98551191 83.37336338 -37 86 C-40.5625 86.125 -40.5625 86.125 -44 85 C-46.65624097 82.07132406 -47.89349333 80.149772 -48.26000977 76.19311523 C-47.95898833 72.49634587 -46.94982043 69.96460849 -45.40234375 66.59765625 C-45.13270813 66.00293015 -44.86307251 65.40820404 -44.58526611 64.79545593 C-43.71336803 62.87936917 -42.82579169 60.97103424 -41.9375 59.0625 C-41.33215066 57.74098941 -40.72774252 56.41904728 -40.12426758 55.09667969 C-38.42962663 51.3914755 -36.71624049 47.69524699 -35 44 C-34.28612217 42.4519779 -33.57250889 40.90383371 -32.859375 39.35546875 C-31.78437053 37.03717639 -30.70045023 34.72298641 -29.60546875 32.4140625 C-28.39278631 29.8352682 -27.21241143 27.25008172 -26.05078125 24.6484375 C-13.97069343 -2.157055 -13.97069343 -2.157055 0 0 Z " fill="#FCFEFE" transform="translate(89,63)"/>
<path d="M0 0 C3.74681398 0.85641462 5.55913495 2.74021669 8.1875 5.5 C9.71208493 8.54916986 9.09787597 11.62308996 8.875 14.94140625 C8.80333618 16.07202232 8.80333618 16.07202232 8.73022461 17.22547913 C8.13953494 25.98972433 7.17267754 34.71049863 6.1875 43.4375 C6.0074017 45.0578971 5.82771309 46.67833979 5.6484375 48.29882812 C5.39030411 50.63194999 5.13194671 52.96504191 4.87182617 55.29794312 C4.27098421 60.69502868 3.71111126 66.09480456 3.1875 71.5 C3.92355469 71.45359375 4.65960938 71.4071875 5.41796875 71.359375 C13.45751244 71.06200747 13.45751244 71.06200747 17.3125 73.375 C20.35139418 76.81908008 20.46041123 78.95147943 20.1875 83.5 C19.625 85.6875 19.625 85.6875 18.1875 87.5 C12.1854085 90.76059565 6.74926635 91.03652812 0 91.1875 C-1.0214209 91.21803467 -2.0428418 91.24856934 -3.09521484 91.2800293 C-5.10383573 91.33714875 -7.11263942 91.38823165 -9.12158203 91.43261719 C-11.35410298 91.48852136 -13.57871291 91.57816832 -15.80859375 91.6953125 C-23.0212368 91.96544894 -23.0212368 91.96544894 -27 89.625 C-29.81196317 86.32821559 -30.23596055 83.90860869 -30.140625 79.5390625 C-29.8125 77.5 -29.8125 77.5 -27.9375 74.5625 C-24.69360326 72.42152815 -23.368116 72.16079961 -19.6171875 71.87109375 C-18.26729736 71.75979126 -18.26729736 71.75979126 -16.89013672 71.64624023 C-16.2045166 71.59798096 -15.51889648 71.54972168 -14.8125 71.5 C-13.67906282 58.84081003 -12.57416377 46.18771496 -11.8125 33.5 C-12.4725 33.5 -13.1325 33.5 -13.8125 33.5 C-14.039375 34.2425 -14.26625 34.985 -14.5 35.75 C-16.11579186 39.13546867 -17.62185492 40.54210415 -20.8125 42.5 C-23.8125 43.125 -23.8125 43.125 -26.8125 42.5 C-29.90026941 39.93780837 -31.51220702 38.38654649 -32.14453125 34.4140625 C-31.88991109 27.50294393 -28.21091048 23.49154114 -23.8125 18.5 C-22.90920825 17.40918178 -22.00968784 16.31523329 -21.11328125 15.21875 C-20.15961876 14.06186929 -19.20519301 12.90561734 -18.25 11.75 C-17.80350098 11.20698242 -17.35700195 10.66396484 -16.89697266 10.10449219 C-12.06458805 4.36768828 -7.95992564 -0.43026625 0 0 Z " fill="#FCFEFE" transform="translate(156.8125,59.5)"/>
<path d="M0 0 C2.9234153 2.44846268 3.73267175 4.65990306 4.6875 8.3125 C5.06455078 9.69888672 5.06455078 9.69888672 5.44921875 11.11328125 C6 14 6 14 6 20 C1.38 20 -3.24 20 -8 20 C-7.10567433 15.52837163 -5.93198385 12.38545634 -4 8.3125 C-3.46375 7.17425781 -2.9275 6.03601563 -2.375 4.86328125 C-1.59403287 3.23700594 -0.80680618 1.61361236 0 0 Z " fill="#7BE6D6" transform="translate(82,90)"/>
<path d="M0 0 C1.98 0.495 1.98 0.495 4 1 C4.05827558 4.5624308 4.09368885 8.12473819 4.125 11.6875 C4.14175781 12.69490234 4.15851563 13.70230469 4.17578125 14.74023438 C4.18222656 15.71669922 4.18867188 16.69316406 4.1953125 17.69921875 C4.20578613 18.59471436 4.21625977 19.49020996 4.22705078 20.4128418 C3.97703456 23.26168257 3.18016512 25.40894543 2 28 C1.01 28 0.02 28 -1 28 C-0.67 18.76 -0.34 9.52 0 0 Z " fill="#FBFEFD" transform="translate(196,98)"/>
<path d="M0 0 C3.7487156 0.55179692 6.90782719 2.35508563 10.25 4.0625 C11.32765625 4.61035156 12.4053125 5.15820312 13.515625 5.72265625 C14.74539062 6.35494141 14.74539062 6.35494141 16 7 C16 8.32 16 9.64 16 11 C10.06070672 10.62879417 5.57513349 8.9020104 1 5 C-0.23046875 2.83203125 -0.23046875 2.83203125 -1 1 C-0.67 0.67 -0.34 0.34 0 0 Z " fill="#F6FDFC" transform="translate(61,184)"/>
<path d="M0 0 C0.99 0 1.98 0 3 0 C4.21421557 3.52321568 4.06854799 4.84067728 2.56640625 8.33203125 C1.91291108 9.50040141 1.24444949 10.66050622 0.5625 11.8125 C0.05493164 12.7087207 0.05493164 12.7087207 -0.46289062 13.62304688 C-1.29577251 15.08938822 -2.14618561 16.54574756 -3 18 C-3.66 18 -4.32 18 -5 18 C-6.36139053 12.8189366 -5.59764648 10.2813915 -3.0625 5.625 C-2.49660156 4.56539062 -1.93070313 3.50578125 -1.34765625 2.4140625 C-0.90292969 1.61742187 -0.45820313 0.82078125 0 0 Z " fill="#F5FDFC" transform="translate(192,136)"/>
<path d="M0 0 C1.32 0 2.64 0 4 0 C3.75311061 3.33300679 2.79384198 4.19656928 0.3125 6.5625 C-2.61940607 8.83349679 -5.52840617 10.64155024 -9 12 C-11.375 11.6875 -11.375 11.6875 -13 11 C-12.84375 9.19921875 -12.84375 9.19921875 -12 7 C-9.53125 5.33203125 -9.53125 5.33203125 -6.5 3.8125 C-3.02607508 2.23085081 -3.02607508 2.23085081 0 0 Z " fill="#F5FDFC" transform="translate(157,181)"/>
<path d="M0 0 C1.65 0.33 3.3 0.66 5 1 C4.409882 4.78369777 2.73554726 6.89068624 0.25 9.75 C-0.76320312 10.94882813 -0.76320312 10.94882813 -1.796875 12.171875 C-4 14 -4 14 -6.765625 14.265625 C-7.87164062 14.13414062 -7.87164062 14.13414062 -9 14 C-7.65070536 10.16336928 -5.92248975 7.34827431 -3.375 4.1875 C-2.42753906 3.00220703 -2.42753906 3.00220703 -1.4609375 1.79296875 C-0.97882813 1.20128906 -0.49671875 0.60960937 0 0 Z " fill="#F6FDFC" transform="translate(177,162)"/>
<path d="M0 0 C2.62651431 0.28119857 5.25069335 0.57443838 7.875 0.875 C8.62136719 0.95363281 9.36773437 1.03226563 10.13671875 1.11328125 C15.7734375 1.7734375 15.7734375 1.7734375 18 4 C18 5.32 18 6.64 18 8 C11.69632197 7.41632611 6.01339937 5.95928381 0 4 C0 2.68 0 1.36 0 0 Z " fill="#F6FDFC" transform="translate(122,19)"/>
<path d="M0 0 C0.5625 1.9375 0.5625 1.9375 1 4 C-1.05155781 6.05155781 -5.11008525 5.45882524 -7.9375 5.625 C-9.0502832 5.70234375 -9.0502832 5.70234375 -10.18554688 5.78125 C-15.75124849 6.12437576 -15.75124849 6.12437576 -18 5 C-17.5 3.0625 -17.5 3.0625 -16 1 C-10.65632618 -0.10558769 -5.44168954 -0.09717303 0 0 Z " fill="#F6FDFC" transform="translate(110,17)"/>
<path d="M0 0 C0.99 0 1.98 0 3 0 C2.03644647 12.66970387 2.03644647 12.66970387 1 18 C-0.65 17.67 -2.3 17.34 -4 17 C-2.77419355 2.77419355 -2.77419355 2.77419355 0 0 Z " fill="#F5FDFC" transform="translate(21,83)"/>
<path d="M0 0 C1.32 0 2.64 0 4 0 C3.66830805 6.30214697 0.32676012 10.85216936 -3 16 C-4.32 15.67 -5.64 15.34 -7 15 C-6.40873984 11.04639294 -5.20334254 8.13229421 -3.1875 4.6875 C-2.68605469 3.80449219 -2.18460938 2.92148437 -1.66796875 2.01171875 C-1.11753906 1.34785156 -0.56710938 0.68398438 0 0 Z " fill="#F8FDFD" transform="translate(32,57)"/>
<path d="M0 0 C4.17012234 0.4308883 6.89581255 1.94865846 10.3125 4.3125 C11.19550781 4.90675781 12.07851562 5.50101563 12.98828125 6.11328125 C13.65214844 6.73589844 14.31601563 7.35851563 15 8 C15 9.32 15 10.64 15 12 C11.14476727 11.43365608 8.54292367 10.35391316 5.3125 8.1875 C4.54550781 7.68605469 3.77851563 7.18460938 2.98828125 6.66796875 C0.89520929 4.91209109 0.01746202 3.50828873 -1 1 C-0.67 0.67 -0.34 0.34 0 0 Z " fill="#F7FDFC" transform="translate(150,28)"/>
<path d="M0 0 C2.22972273 0.11465421 4.45878753 0.24214766 6.6875 0.375 C7.92886719 0.44460937 9.17023438 0.51421875 10.44921875 0.5859375 C13.69317772 0.96422094 16.06567185 1.61979976 19 3 C18.67 3.99 18.34 4.98 18 6 C11.59646678 6.2361959 6.15370839 5.823321 0 4 C0 2.68 0 1.36 0 0 Z " fill="#F9FDFD" transform="translate(87,195)"/>
<path d="M0 0 C-0.54322762 3.794236 -2.0215768 5.2310956 -4.9375 7.625 C-5.64777344 8.21539062 -6.35804687 8.80578125 -7.08984375 9.4140625 C-7.72019531 9.93742187 -8.35054687 10.46078125 -9 11 C-9.66 11.66 -10.32 12.32 -11 13 C-12.32 13 -13.64 13 -15 13 C-14.52702128 8.49881914 -13.11688369 6.64745901 -9.75 3.6875 C-8.59757812 2.64142578 -8.59757812 2.64142578 -7.421875 1.57421875 C-4.66768351 -0.21600572 -3.21866049 -0.33670385 0 0 Z " fill="#F6FDFC" transform="translate(57,36)"/>
<path d="M0 0 C-1 3 -1 3 -3.80078125 4.640625 C-4.95964844 5.17171875 -6.11851563 5.7028125 -7.3125 6.25 C-8.46363281 6.79140625 -9.61476563 7.3328125 -10.80078125 7.890625 C-13.90460617 8.96692082 -15.04380082 9.25547224 -18 8 C-16.96032427 5.16065167 -16.17625132 4.11040541 -13.57421875 2.48046875 C-12.62160156 2.05378906 -11.66898437 1.62710937 -10.6875 1.1875 C-9.74261719 0.74792969 -8.79773438 0.30835937 -7.82421875 -0.14453125 C-4.72928802 -1.08199989 -3.06296089 -0.90940369 0 0 Z " fill="#F7FDFC" transform="translate(83,23)"/>
<path d="M0 0 C-0.33 0.99 -0.66 1.98 -1 3 C-3.546875 3.94921875 -3.546875 3.94921875 -6.75 4.6875 C-7.79671875 4.93886719 -8.8434375 5.19023437 -9.921875 5.44921875 C-12.70277496 5.94681633 -15.18542538 6.10945568 -18 6 C-18.5625 4.0625 -18.5625 4.0625 -19 2 C-17.23483561 0.23483561 -14.70552022 0.29296909 -12.3125 -0.125 C-11.27738281 -0.31320313 -10.24226563 -0.50140625 -9.17578125 -0.6953125 C-5.8879468 -1.01075049 -3.21792097 -0.68507463 0 0 Z " fill="#F6FDFC" transform="translate(135,195)"/>
<path d="M0 0 C3.80149136 1.45398922 4.99364507 3.19679402 6.75 6.8125 C7.39195313 8.09060547 7.39195313 8.09060547 8.046875 9.39453125 C9.04444794 12.12150319 9.18599776 14.12220136 9 17 C7.20703125 16.828125 7.20703125 16.828125 5 16 C3.26171875 13.671875 3.26171875 13.671875 1.6875 10.75 C1.15511719 9.79609375 0.62273438 8.8421875 0.07421875 7.859375 C-1.11794004 4.68606506 -0.99503411 3.18876428 0 0 Z " fill="#F4FDFB" transform="translate(24,140)"/>
<path d="M0 0 C1.85546875 0.10546875 1.85546875 0.10546875 4 1 C5.30078125 3.80078125 5.30078125 3.80078125 6.3125 7.3125 C6.65925781 8.46363281 7.00601563 9.61476563 7.36328125 10.80078125 C7.95401933 13.7689683 8.0611916 15.22720906 7 18 C4 17 4 17 2.578125 14.453125 C2.13984375 13.39609375 1.7015625 12.3390625 1.25 11.25 C0.80140625 10.20328125 0.3528125 9.1565625 -0.109375 8.078125 C-1.04364469 4.84915781 -0.9640617 3.17434949 0 0 Z " fill="#F6FDFC" transform="translate(189,70)"/>
<path d="M0 0 C3.15512873 0.32752201 4.68861649 0.71347981 7.0546875 2.890625 C7.95574219 4.05851562 7.95574219 4.05851562 8.875 5.25 C9.49117187 6.01828125 10.10734375 6.7865625 10.7421875 7.578125 C12.27957624 10.53831451 11.98473084 11.8798416 11 15 C8.245107 14.6414456 7.20007901 14.22678745 5.33203125 12.109375 C4.57986328 10.94148438 4.57986328 10.94148438 3.8125 9.75 C3.30332031 8.98171875 2.79414063 8.2134375 2.26953125 7.421875 C0.95719411 4.91833954 0.40964469 2.7836097 0 0 Z " fill="#F6FDFC" transform="translate(173,47)"/>
<path d="M0 0 C4.69350812 1.24239921 6.77517676 3.77007922 9.66796875 7.44140625 C10.93649295 9.13049223 10.93649295 9.13049223 13 10 C13 11.32 13 12.64 13 14 C8.88660367 13.87535163 7.07291148 12.3239356 4.3125 9.5 C3.44044922 8.55640625 3.44044922 8.55640625 2.55078125 7.59375 C1.0715957 5.89864768 1.0715957 5.89864768 -1 5 C-0.67 3.35 -0.34 1.7 0 0 Z " fill="#F9FDFD" transform="translate(39,165)"/>
<path d="M0 0 C0.99 0 1.98 0 3 0 C3.33808686 2.06172613 3.67027361 4.1244203 4 6.1875 C4.185625 7.33605469 4.37125 8.48460938 4.5625 9.66796875 C4.93489477 12.50415393 5.08596021 15.14719564 5 18 C3.68 17.67 2.36 17.34 1 17 C-0.58813841 11.44151555 -1.30437704 6.78316385 -1 1 C-0.67 0.67 -0.34 0.34 0 0 Z " fill="#F9FEFD" transform="translate(18,112)"/>
</svg>
