<?xml version="1.0" encoding="UTF-8"?>
<svg version="1.1" xmlns="http://www.w3.org/2000/svg" width="218" height="218">
<path d="M0 0 C22.47553799 18.96373518 38.96929044 43.46993732 42 73.375 C43.54658969 108.93423944 35.25177833 137.11943675 11.7890625 163.8984375 C-7.50866401 184.34398418 -35.4084795 195.06261898 -63.07421875 196.5390625 C-93.5878752 197.31873781 -121.61880303 185.89283078 -143.66625977 165.10961914 C-164.78398218 144.50026752 -175.31832005 116.93296021 -176.3125 87.6875 C-175.74684008 61.73785104 -167.64678033 37.39690074 -151 17.375 C-150.29101562 16.51390625 -149.58203125 15.6528125 -148.8515625 14.765625 C-111.9767004 -28.09973816 -44.72689877 -34.14712663 0 0 Z " fill="#76E5D5" transform="translate(176,21.625)"/>
<path d="M0 0 C5.74182834 3.00141027 8.79984382 9.51456131 10.85140991 15.47262573 C11.57321403 18.09398452 12.21468383 20.7214059 12.82421875 23.37109375 C13.05655716 24.33346451 13.28889557 25.29583527 13.52827454 26.28736877 C14.26054445 29.33457938 14.97408125 32.38582771 15.6875 35.4375 C16.17655076 37.48010146 16.66677559 39.52242219 17.15820312 41.56445312 C24.19375853 70.97423367 24.19375853 70.97423367 23 78 C20.9375 81.125 20.9375 81.125 18 83 C14.4375 83.625 14.4375 83.625 11 83 C6.07822757 78.89852298 5.95683965 74.52279882 4 68 C-5.57 68 -15.14 68 -25 68 C-25.66 69.65 -26.32 71.3 -27 73 C-31.98551191 83.37336338 -31.98551191 83.37336338 -37 86 C-40.5625 86.125 -40.5625 86.125 -44 85 C-46.65624097 82.07132406 -47.89349333 80.149772 -48.26000977 76.19311523 C-47.95898833 72.49634587 -46.94982043 69.96460849 -45.40234375 66.59765625 C-45.13270813 66.00293015 -44.86307251 65.40820404 -44.58526611 64.79545593 C-43.71336803 62.87936917 -42.82579169 60.97103424 -41.9375 59.0625 C-41.33215066 57.74098941 -40.72774252 56.41904728 -40.12426758 55.09667969 C-38.42962663 51.3914755 -36.71624049 47.69524699 -35 44 C-34.28612217 42.4519779 -33.57250889 40.90383371 -32.859375 39.35546875 C-31.78437053 37.03717639 -30.70045023 34.72298641 -29.60546875 32.4140625 C-28.39278631 29.8352682 -27.21241143 27.25008172 -26.05078125 24.6484375 C-13.97069343 -2.157055 -13.97069343 -2.157055 0 0 Z " fill="#FCFEFE" transform="translate(88,63)"/>
<path d="M0 0 C5.67159442 3.31734768 9.25969268 7.67549603 11.3125 13.9375 C13.17579466 29.69080938 5.17371293 42.88398421 -4.17773438 54.85839844 C-5.62620682 56.67320512 -7.09152611 58.47294575 -8.5625 60.26953125 C-10.79133627 62.49939823 -10.79133627 62.49939823 -10.6875 63.9375 C-9.38554687 63.80730469 -8.08359375 63.67710938 -6.7421875 63.54296875 C-5.01574018 63.40222576 -3.2891702 63.26298171 -1.5625 63.125 C-0.7065625 63.03541016 0.149375 62.94582031 1.03125 62.85351562 C5.3498491 62.53792569 8.35634266 62.43337875 11.88671875 65.14453125 C15.11944925 68.86659616 15.11944925 68.86659616 15 72.4375 C14.74553256 75.83605408 14.30259555 76.95204717 12.3125 79.875 C5.04486955 84.87149593 -3.82688396 84.51905626 -12.37255859 84.84082031 C-13.97518202 84.90775122 -15.57715608 84.99156653 -17.17822266 85.08886719 C-19.72266596 85.24125231 -22.26528005 85.34402858 -24.8125 85.4375 C-26.0022644 85.51991943 -26.0022644 85.51991943 -27.21606445 85.60400391 C-30.61094195 85.68139858 -32.793783 85.62116534 -35.546875 83.51513672 C-38.4632694 80.32317069 -40.52775926 77.5303334 -40.4375 73.0625 C-39.72738015 63.3961747 -31.80936542 56.72585255 -25.73217773 49.80908203 C-13.90235539 36.40694273 -13.90235539 36.40694273 -7.6875 19.9375 C-13.32295066 21.70548452 -15.72701933 23.60091489 -18.6328125 28.73828125 C-19.66901076 30.89894651 -20.51447799 33.05417998 -21.3125 35.3125 C-22.6875 38.9375 -22.6875 38.9375 -25.6875 40.9375 C-31.81202002 41.60562946 -31.81202002 41.60562946 -35.0625 39.125 C-38.46396682 34.54610236 -38.47593436 29.41105389 -37.6875 23.9375 C-33.39016002 12.85650191 -26.45735508 4.94019889 -15.68359375 0.00390625 C-9.94506405 -2.03862127 -5.77305728 -1.66342328 0 0 Z " fill="#FCFEFE" transform="translate(163.6875,63.0625)"/>
<path d="M0 0 C2.9234153 2.44846268 3.73267175 4.65990306 4.6875 8.3125 C5.06455078 9.69888672 5.06455078 9.69888672 5.44921875 11.11328125 C6 14 6 14 6 20 C1.38 20 -3.24 20 -8 20 C-7.10567433 15.52837163 -5.93198385 12.38545634 -4 8.3125 C-3.46375 7.17425781 -2.9275 6.03601563 -2.375 4.86328125 C-1.59403287 3.23700594 -0.80680618 1.61361236 0 0 Z " fill="#7BE6D6" transform="translate(81,90)"/>
<path d="M0 0 C1.32 0 2.64 0 4 0 C4.02905924 3.7499837 4.04681874 7.49993837 4.0625 11.25 C4.07087891 12.31347656 4.07925781 13.37695312 4.08789062 14.47265625 C4.09111328 15.49746094 4.09433594 16.52226563 4.09765625 17.578125 C4.10289307 18.52075195 4.10812988 19.46337891 4.11352539 20.43457031 C4.00968082 22.78123437 3.66706529 24.75644478 3 27 C1.68 26.67 0.36 26.34 -1 26 C-1.02886751 21.85418113 -1.04675327 17.70838784 -1.0625 13.5625 C-1.07087891 12.37849609 -1.07925781 11.19449219 -1.08789062 9.97460938 C-1.09111328 8.84990234 -1.09433594 7.72519531 -1.09765625 6.56640625 C-1.10289307 5.52427979 -1.10812988 4.48215332 -1.11352539 3.40844727 C-1 1 -1 1 0 0 Z " fill="#FBFEFE" transform="translate(197,98)"/>
<path d="M0 0 C2.26953125 -0.24609375 2.26953125 -0.24609375 5 0 C6.94921875 1.71484375 6.94921875 1.71484375 8.6875 3.9375 C10.95941634 6.93877429 10.95941634 6.93877429 14 9 C13.67 10.65 13.34 12.3 13 14 C8.99086167 13.45747899 7.0591756 11.49208544 4.25 8.6875 C3.45078125 7.90761719 2.6515625 7.12773437 1.828125 6.32421875 C0 4 0 4 0 0 Z " fill="#FAFEFD" transform="translate(39,165)"/>
<path d="M0 0 C4.16915278 1.38971759 4.69511721 3.49568259 6.75 7.3125 C7.38421875 8.46363281 8.0184375 9.61476562 8.671875 10.80078125 C10 14 10 14 9.703125 16.41796875 C9.47109375 16.94003906 9.2390625 17.46210938 9 18 C7.20703125 17.859375 7.20703125 17.859375 5 17 C3.26171875 14.453125 3.26171875 14.453125 1.6875 11.25 C1.15511719 10.20328125 0.62273438 9.1565625 0.07421875 8.078125 C-1.07171254 4.79451098 -1.0342343 3.26600306 0 0 Z " fill="#F6FDFC" transform="translate(25,139)"/>
<path d="M0 0 C4.06225548 0.57823096 6.84762346 1.89117737 10.3125 4.0625 C11.19550781 4.61035156 12.07851562 5.15820312 12.98828125 5.72265625 C13.65214844 6.14417969 14.31601563 6.56570312 15 7 C14.67 8.65 14.34 10.3 14 12 C10.33267533 11.35736133 7.80610146 9.7740488 4.75 7.6875 C3.85796875 7.09324219 2.9659375 6.49898437 2.046875 5.88671875 C1.37140625 5.26410156 0.6959375 4.64148437 0 4 C0 2.68 0 1.36 0 0 Z " fill="#F7FDFC" transform="translate(151,28)"/>
<path d="M0 0 C2.17012128 0.72337376 4.32600947 1.47163348 6.47265625 2.26171875 C6.47265625 3.25171875 6.47265625 4.24171875 6.47265625 5.26171875 C2.11422418 6.50112222 -0.98371364 5.92425161 -5.33984375 4.82421875 C-6.50128906 4.53675781 -7.66273437 4.24929687 -8.859375 3.953125 C-9.73980469 3.72496094 -10.62023437 3.49679688 -11.52734375 3.26171875 C-11.85734375 1.94171875 -12.18734375 0.62171875 -12.52734375 -0.73828125 C-8.69209594 -2.65590515 -3.97090486 -1.15997066 0 0 Z " fill="#F7FDFC" transform="translate(134.52734375,19.73828125)"/>
<path d="M0 0 C0.56332031 0.23976562 1.12664063 0.47953125 1.70703125 0.7265625 C1.70703125 4.7265625 1.70703125 4.7265625 -0.33984375 6.8671875 C-1.67789063 7.91132812 -1.67789063 7.91132812 -3.04296875 8.9765625 C-3.9246875 9.68296875 -4.80640625 10.389375 -5.71484375 11.1171875 C-8.29296875 12.7265625 -8.29296875 12.7265625 -12.29296875 12.7265625 C-11.82374746 8.19340769 -10.36607397 6.33266824 -6.98046875 3.3515625 C-6.20058594 2.64257812 -5.42070313 1.93359375 -4.6171875 1.203125 C-2.29296875 -0.2734375 -2.29296875 -0.2734375 0 0 Z " fill="#F7FDFC" transform="translate(55.29296875,35.2734375)"/>
<path d="M0 0 C-0.27734375 1.890625 -0.27734375 1.890625 -1 4 C-6.57733135 6.73974171 -10.84237788 7.32987261 -17 7 C-17.33 5.68 -17.66 4.36 -18 3 C-15.93918639 2.49309416 -13.87626474 1.99475381 -11.8125 1.5 C-10.66394531 1.2215625 -9.51539062 0.943125 -8.33203125 0.65625 C-5.43181171 0.08504615 -2.93903615 -0.13283779 0 0 Z " fill="#F7FDFC" transform="translate(135,193)"/>
<path d="M0 0 C3.9581426 0.46444055 6.89326046 1.81161168 10.3125 3.8125 C11.19550781 4.31394531 12.07851562 4.81539062 12.98828125 5.33203125 C13.65214844 5.88246094 14.31601563 6.43289062 15 7 C15 8.32 15 9.64 15 11 C9.49998892 10.58749917 5.19744358 8.50732335 1 5 C-0.234375 2.83203125 -0.234375 2.83203125 -1 1 C-0.67 0.67 -0.34 0.34 0 0 Z " fill="#F5FDFC" transform="translate(62,183)"/>
<path d="M0 0 C0 1.32 0 2.64 0 4 C-1.90881434 5.03544174 -3.82739204 6.05290085 -5.75 7.0625 C-6.81734375 7.63097656 -7.8846875 8.19945312 -8.984375 8.78515625 C-12.02593537 10.01044806 -13.04893565 10.25348607 -16 9 C-15.83203125 7.20703125 -15.83203125 7.20703125 -15 5 C-12.63671875 3.26171875 -12.63671875 3.26171875 -9.6875 1.6875 C-8.72199219 1.15511719 -7.75648438 0.62273437 -6.76171875 0.07421875 C-3.86977029 -1.05065512 -2.81930984 -1.14513535 0 0 Z " fill="#F6FDFC" transform="translate(161,182)"/>
<path d="M0 0 C2.2265625 -0.328125 2.2265625 -0.328125 5 0 C7.2734375 2.265625 7.2734375 2.265625 9.375 5.25 C10.08398438 6.22453125 10.79296875 7.1990625 11.5234375 8.203125 C13 11 13 11 12.7265625 13.359375 C12.36691406 14.17148437 12.36691406 14.17148437 12 15 C9.22577825 14.63255341 8.12061704 14.12086676 6.11328125 12.109375 C5.51902344 11.33078125 4.92476562 10.5521875 4.3125 9.75 C3.71050781 8.98171875 3.10851562 8.2134375 2.48828125 7.421875 C0.93216432 4.88961124 0.38903865 2.92557064 0 0 Z " fill="#F7FDFC" transform="translate(173,46)"/>
<path d="M0 0 C0.66 0.33 1.32 0.66 2 1 C1.53444296 7.40140935 -0.14711836 12.26769829 -3 18 C-4.32 18 -5.64 18 -7 18 C-6.4714941 11.92218211 -4.76879145 6.45399675 -2 1 C-1.34 0.67 -0.68 0.34 0 0 Z " fill="#F5FDFB" transform="translate(194,135)"/>
<path d="M0 0 C-0.13671875 1.82421875 -0.13671875 1.82421875 -1 4 C-3.58203125 5.51953125 -3.58203125 5.51953125 -6.8125 6.8125 C-7.87082031 7.25207031 -8.92914063 7.69164062 -10.01953125 8.14453125 C-12.96349542 8.98952228 -14.20525702 9.10300994 -17 8 C-15.9572747 5.13557225 -15.17414069 4.10752497 -12.5390625 2.48046875 C-11.57742187 2.05378906 -10.61578125 1.62710937 -9.625 1.1875 C-8.19027344 0.52814453 -8.19027344 0.52814453 -6.7265625 -0.14453125 C-3.90262051 -1.03055316 -2.71372242 -1.04819136 0 0 Z " fill="#F5FDFC" transform="translate(83,22)"/>
<path d="M0 0 C2.8712936 0.25568326 5.70565708 0.56806088 8.5625 0.9375 C9.36880859 1.03740234 10.17511719 1.13730469 11.00585938 1.24023438 C13.00452132 1.48858882 15.00234487 1.7436731 17 2 C17 3.32 17 4.64 17 6 C14.72923158 6.02699725 12.45837179 6.04639453 10.1875 6.0625 C8.29064453 6.07990234 8.29064453 6.07990234 6.35546875 6.09765625 C3 6 3 6 0 5 C-0.75 3 -0.75 3 -1 1 C-0.67 0.67 -0.34 0.34 0 0 Z " fill="#F7FDFC" transform="translate(89,194)"/>
<path d="M0 0 C1.32 0.33 2.64 0.66 4 1 C4.36164523 3.62416952 4.71461153 6.24900313 5.0625 8.875 C5.16626953 9.62136719 5.27003906 10.36773437 5.37695312 11.13671875 C6.11328125 16.7734375 6.11328125 16.7734375 5 19 C3.0625 18.1875 3.0625 18.1875 1 17 C-0.18681726 13.43954823 -0.09689832 10.56191663 -0.0625 6.8125 C-0.05347656 5.54019531 -0.04445313 4.26789063 -0.03515625 2.95703125 C-0.02355469 1.98121094 -0.01195313 1.00539063 0 0 Z " fill="#F9FEFD" transform="translate(18,111)"/>
<path d="M0 0 C1.32 0.33 2.64 0.66 4 1 C3.54775239 6.91492272 2.8417395 12.35199888 1 18 C-0.32 18 -1.64 18 -3 18 C-2.57045059 11.74892565 -1.98598493 5.95795479 0 0 Z " fill="#F6FDFC" transform="translate(21,82)"/>
<path d="M0 0 C-0.5112012 4.50343911 -2.17521358 6.87525426 -5.0625 10.3125 C-5.79597656 11.19550781 -6.52945313 12.07851562 -7.28515625 12.98828125 C-7.85105469 13.65214844 -8.41695312 14.31601563 -9 15 C-10.32 14.67 -11.64 14.34 -13 14 C-13 12.68 -13 11.36 -13 10 C-11.38263741 8.6072711 -9.7074998 7.28062485 -8 6 C-6.65263027 4.34466005 -5.31665664 2.67987227 -4 1 C-2 0 -2 0 0 0 Z " fill="#F5FDFC" transform="translate(182,161)"/>
<path d="M0 0 C-0.32257501 6.12892523 -3.36101209 11.19327716 -7 16 C-7.99 16.33 -8.98 16.66 -10 17 C-11.10200041 13.66355676 -11.17649543 12.37018526 -9.63671875 9.140625 C-8.99347656 8.18671875 -8.35023437 7.2328125 -7.6875 6.25 C-7.05199219 5.28578125 -6.41648437 4.3215625 -5.76171875 3.328125 C-3.85742721 0.81158895 -3.15033031 0 0 0 Z " fill="#F6FDFC" transform="translate(37,56)"/>
<path d="M0 0 C2.93789998 1.01306896 3.95500458 1.93167363 5.6875 4.5625 C7.27485458 8.71985724 7.71549929 12.58533377 8 17 C6.68 17 5.36 17 4 17 C3.13227971 14.92227529 2.28126381 12.83756823 1.4375 10.75 C0.96183594 9.58984375 0.48617187 8.4296875 -0.00390625 7.234375 C-0.95770524 4.13733356 -1.20983356 2.92678299 0 0 Z " fill="#F8FDFC" transform="translate(190,70)"/>
<path d="M0 0 C1.27230469 0.00902344 2.54460937 0.01804687 3.85546875 0.02734375 C5.31919922 0.04474609 5.31919922 0.04474609 6.8125 0.0625 C6.8125 1.3825 6.8125 2.7025 6.8125 4.0625 C-1.6025 4.5575 -1.6025 4.5575 -10.1875 5.0625 C-10.1875 3.7425 -10.1875 2.4225 -10.1875 1.0625 C-6.62704823 -0.12431726 -3.74941663 -0.03439832 0 0 Z " fill="#F9FDFD" transform="translate(104.1875,16.9375)"/>
</svg>
