<?xml version="1.0" encoding="UTF-8"?>
<svg version="1.1" xmlns="http://www.w3.org/2000/svg" width="218" height="218">
<path d="M0 0 C1.19882813 0.32871094 2.39765625 0.65742187 3.6328125 0.99609375 C17.82566471 5.27765355 30.91877797 12.1115484 42 22 C43.2065625 22.99386719 43.2065625 22.99386719 44.4375 24.0078125 C65.72922015 42.039238 77.83628873 68.23966421 80.6875 95.75 C80.80916058 97.49887089 80.91432403 99.24899734 81 101 C81.04125 101.76054688 81.0825 102.52109375 81.125 103.3046875 C81.68380738 124.05041148 76.04975675 143.04655418 66 161 C65.44441406 161.99773437 64.88882813 162.99546875 64.31640625 164.0234375 C49.39942409 188.99239085 23.91997785 205.48125447 -3.89208984 212.51123047 C-33.26792033 219.32272139 -61.73223559 213.07661737 -87.24609375 198.09375 C-112.71607913 181.93074237 -128.74298197 157.0078865 -135.9375 128.0625 C-138.80676 111.68455008 -138.70587537 92.99618121 -134 77 C-133.6596875 75.77925781 -133.319375 74.55851562 -132.96875 73.30078125 C-128.58261623 58.88284829 -121.47488672 46.66670933 -112 35 C-111.42636719 34.27296875 -110.85273437 33.5459375 -110.26171875 32.796875 C-84.84156238 1.97721048 -37.90035201 -11.01339641 0 0 Z " fill="#76E5D5" transform="translate(137,3)"/>
<path d="M0 0 C5.21130917 3.43077854 7.88242556 7.34280605 9.15625 13.41796875 C8.73340125 19.04853364 4.72449991 23.28626437 1.34375 27.54296875 C0.34085461 28.87412562 -0.66017732 30.20669894 -1.65625 31.54296875 C-1.12515625 31.91808594 -0.5940625 32.29320312 -0.046875 32.6796875 C4.6339762 36.07074211 8.70155597 39.25858069 11.34375 44.54296875 C12.12528528 51.43585364 11.43256661 56.87387978 7.34375 62.54296875 C-2.6710316 74.69783853 -16.50517662 79.29671444 -30.76782227 84.7902832 C-32.69939504 85.52942972 -32.69939504 85.52942972 -34.65625 86.54296875 C-41.76771121 87.24245674 -41.76771121 87.24245674 -45.59375 84.23046875 C-48.27948306 80.73087719 -48.78133229 78.27764646 -48.80151367 73.9934082 C-48.80789352 73.0700618 -48.81427338 72.14671539 -48.82084656 71.19538879 C-48.82195938 70.19247299 -48.8230722 69.18955719 -48.82421875 68.15625 C-48.82754715 67.10761276 -48.83087555 66.05897552 -48.83430481 64.9785614 C-48.83937835 62.74328041 -48.841713 60.50799182 -48.84155273 58.27270508 C-48.84369473 54.94143001 -48.86171875 51.61051127 -48.88085938 48.27929688 C-48.9121466 37.25378099 -48.68343024 26.27311375 -47.89453125 15.2734375 C-47.83355759 14.28080399 -47.77258392 13.28817047 -47.70976257 12.26545715 C-47.23615591 6.52532444 -46.40430802 2.97651627 -42.65625 -1.45703125 C-31.1680879 -9.93153347 -11.5825139 -6.0951192 0 0 Z " fill="#FDFEFE" transform="translate(98.65625,68.45703125)"/>
<path d="M0 0 C3.74681398 0.85641462 5.55913495 2.74021669 8.1875 5.5 C9.71208493 8.54916986 9.09787597 11.62308996 8.875 14.94140625 C8.80333618 16.07202232 8.80333618 16.07202232 8.73022461 17.22547913 C8.13953494 25.98972433 7.17267754 34.71049863 6.1875 43.4375 C6.0074017 45.0578971 5.82771309 46.67833979 5.6484375 48.29882812 C5.39030411 50.63194999 5.13194671 52.96504191 4.87182617 55.29794312 C4.27098421 60.69502868 3.71111126 66.09480456 3.1875 71.5 C3.92355469 71.45359375 4.65960938 71.4071875 5.41796875 71.359375 C13.45751244 71.06200747 13.45751244 71.06200747 17.3125 73.375 C20.35139418 76.81908008 20.46041123 78.95147943 20.1875 83.5 C19.625 85.6875 19.625 85.6875 18.1875 87.5 C12.1854085 90.76059565 6.74926635 91.03652812 0 91.1875 C-1.0214209 91.21803467 -2.0428418 91.24856934 -3.09521484 91.2800293 C-5.10383573 91.33714875 -7.11263942 91.38823165 -9.12158203 91.43261719 C-11.35410298 91.48852136 -13.57871291 91.57816832 -15.80859375 91.6953125 C-23.0212368 91.96544894 -23.0212368 91.96544894 -27 89.625 C-29.81196317 86.32821559 -30.23596055 83.90860869 -30.140625 79.5390625 C-29.8125 77.5 -29.8125 77.5 -27.9375 74.5625 C-24.69360326 72.42152815 -23.368116 72.16079961 -19.6171875 71.87109375 C-18.26729736 71.75979126 -18.26729736 71.75979126 -16.89013672 71.64624023 C-16.2045166 71.59798096 -15.51889648 71.54972168 -14.8125 71.5 C-13.67906282 58.84081003 -12.57416377 46.18771496 -11.8125 33.5 C-12.4725 33.5 -13.1325 33.5 -13.8125 33.5 C-14.039375 34.2425 -14.26625 34.985 -14.5 35.75 C-16.11579186 39.13546867 -17.62185492 40.54210415 -20.8125 42.5 C-23.8125 43.125 -23.8125 43.125 -26.8125 42.5 C-29.90026941 39.93780837 -31.51220702 38.38654649 -32.14453125 34.4140625 C-31.88991109 27.50294393 -28.21091048 23.49154114 -23.8125 18.5 C-22.90920825 17.40918178 -22.00968784 16.31523329 -21.11328125 15.21875 C-20.15961876 14.06186929 -19.20519301 12.90561734 -18.25 11.75 C-17.80350098 11.20698242 -17.35700195 10.66396484 -16.89697266 10.10449219 C-12.06458805 4.36768828 -7.95992564 -0.43026625 0 0 Z " fill="#FCFEFE" transform="translate(153.8125,61.5)"/>
<path d="M0 0 C7.21503643 -0.30062652 13.80545641 -0.12969572 20 4 C19.39005064 9.64695052 16.59322141 11.67721407 12.41796875 15.1953125 C8.03940997 18.46331599 4.57353767 20 -1 20 C-1.02689449 17.04160645 -1.04678741 14.08345573 -1.0625 11.125 C-1.07087891 10.28324219 -1.07925781 9.44148438 -1.08789062 8.57421875 C-1.09111328 7.76855469 -1.09433594 6.96289062 -1.09765625 6.1328125 C-1.10289307 5.38918457 -1.10812988 4.64555664 -1.11352539 3.87939453 C-1 2 -1 2 0 0 Z " fill="#7AE5D6" transform="translate(70,113)"/>
<path d="M0 0 C1.77007714 -0.08114106 3.54122098 -0.13925505 5.3125 -0.1875 C6.29863281 -0.22230469 7.28476563 -0.25710937 8.30078125 -0.29296875 C11 0 11 0 12.85546875 1.51171875 C13.23316406 2.00285156 13.61085938 2.49398437 14 3 C10.34119271 7.91652229 6.5156979 11.24823902 1 14 C0.34 14 -0.32 14 -1 14 C-1.02705729 12.22925083 -1.04642195 10.45838289 -1.0625 8.6875 C-1.07410156 7.70136719 -1.08570312 6.71523437 -1.09765625 5.69921875 C-1 3 -1 3 0 0 Z " fill="#7BE6D6" transform="translate(72,80)"/>
<path d="M0 0 C1.32 0 2.64 0 4 0 C6.09111446 9.03361446 5.40811101 18.12009064 3 27 C1.68 26.67 0.36 26.34 -1 26 C-0.67 17.42 -0.34 8.84 0 0 Z " fill="#F9FDFD" transform="translate(196,98)"/>
<path d="M0 0 C3.99537963 1.48523895 5.27127081 3.61987154 7.25 7.3125 C7.77078125 8.25738281 8.2915625 9.20226562 8.828125 10.17578125 C10.02164268 13.05215886 10.24638294 14.92581291 10 18 C7.7109375 17.859375 7.7109375 17.859375 5 17 C3.1640625 14.453125 3.1640625 14.453125 1.625 11.25 C1.10164063 10.20328125 0.57828125 9.1565625 0.0390625 8.078125 C-1.06606367 4.80429258 -1.0225447 3.24808318 0 0 Z " fill="#F6FDFC" transform="translate(24,139)"/>
<path d="M0 0 C0.99 0 1.98 0 3 0 C4.28558799 4.37099915 3.51929237 6.7797434 2 11 C1.62468554 13.32694964 1.28082798 15.65976685 1 18 C-0.9375 18.5625 -0.9375 18.5625 -3 19 C-3.33 18.67 -3.66 18.34 -4 18 C-3.95444986 11.41800481 -2.99212744 5.85416238 0 0 Z " fill="#F8FDFC" transform="translate(21,82)"/>
<path d="M0 0 C6.16529701 0.31616908 10.17268433 3.49215061 15 7 C14.67 8.65 14.34 10.3 14 12 C10.33267533 11.35736133 7.80610146 9.7740488 4.75 7.6875 C3.85796875 7.09324219 2.9659375 6.49898437 2.046875 5.88671875 C1.37140625 5.26410156 0.6959375 4.64148437 0 4 C0 2.68 0 1.36 0 0 Z " fill="#F7FDFC" transform="translate(150,28)"/>
<path d="M0 0 C4 0 4 0 5.8515625 1.71484375 C6.43679687 2.44832031 7.02203125 3.18179688 7.625 3.9375 C9.93623974 6.93259705 9.93623974 6.93259705 13 9 C12.67 10.65 12.34 12.3 12 14 C7.98731042 13.45575015 6.01583154 11.47927799 3.1875 8.6875 C2.37667969 7.90761719 1.56585938 7.12773437 0.73046875 6.32421875 C-1 4 -1 4 -0.76171875 1.70703125 C-0.51035156 1.14371094 -0.25898437 0.58039063 0 0 Z " fill="#F5FDFC" transform="translate(39,165)"/>
<path d="M0 0 C1.04598499 3.28390636 1.07744705 4.78511169 -0.109375 8.078125 C-0.65078125 9.12484375 -1.1921875 10.1715625 -1.75 11.25 C-2.28109375 12.30703125 -2.8121875 13.3640625 -3.359375 14.453125 C-5 17 -5 17 -8 18 C-9.37294661 13.5067202 -8.54368034 10.99568574 -6.6875 6.75 C-6.23761719 5.69296875 -5.78773438 4.6359375 -5.32421875 3.546875 C-3.81862793 0.65116641 -3.24997029 0 0 0 Z " fill="#F4FDFB" transform="translate(195,135)"/>
<path d="M0 0 C0.99 0.33 1.98 0.66 3 1 C2.29769865 4.56227552 0.87668133 7.48447009 -0.8125 10.6875 C-1.31394531 11.66074219 -1.81539062 12.63398437 -2.33203125 13.63671875 C-4 16 -4 16 -6.19921875 16.83203125 C-6.79347656 16.88746094 -7.38773438 16.94289063 -8 17 C-8.70703125 15.38671875 -8.70703125 15.38671875 -9 13 C-7.63671875 10.01953125 -7.63671875 10.01953125 -5.6875 6.8125 C-4.73423828 5.21341797 -4.73423828 5.21341797 -3.76171875 3.58203125 C-2 1 -2 1 0 0 Z " fill="#F6FDFC" transform="translate(34,56)"/>
<path d="M0 0 C-0.10546875 1.82421875 -0.10546875 1.82421875 -1 4 C-3.80078125 5.51953125 -3.80078125 5.51953125 -7.3125 6.8125 C-8.46363281 7.25207031 -9.61476563 7.69164062 -10.80078125 8.14453125 C-13.84199913 8.95775068 -15.14055625 9.15083786 -18 8 C-16.96032427 5.16065167 -16.17625132 4.11040541 -13.57421875 2.48046875 C-12.62160156 2.05378906 -11.66898437 1.62710937 -10.6875 1.1875 C-9.74261719 0.74792969 -8.79773438 0.30835937 -7.82421875 -0.14453125 C-4.72928802 -1.08199989 -3.06296089 -0.90940369 0 0 Z " fill="#F6FDFC" transform="translate(83,22)"/>
<path d="M0 0 C0 1.32 0 2.64 0 4 C-5.89738492 6.29342747 -10.66606918 7.34548714 -17 7 C-17 5.68 -17 4.36 -17 3 C-5.47835991 -0.44419134 -5.47835991 -0.44419134 0 0 Z " fill="#F5FDFC" transform="translate(134,193)"/>
<path d="M0 0 C2.625 0.375 2.625 0.375 5 1 C4.45991831 4.82276568 2.93135626 6.27436565 0 8.6875 C-0.721875 9.28949219 -1.44375 9.89148438 -2.1875 10.51171875 C-2.785625 11.00285156 -3.38375 11.49398437 -4 12 C-4.33 12.33 -4.66 12.66 -5 13 C-6.66617115 13.04063832 -8.33388095 13.042721 -10 13 C-10 9 -10 9 -8.3203125 7.1484375 C-7.23363281 6.27058594 -7.23363281 6.27058594 -6.125 5.375 C-5.40570313 4.78460938 -4.68640625 4.19421875 -3.9453125 3.5859375 C-3.30335937 3.06257813 -2.66140625 2.53921875 -2 2 C-1.34 1.34 -0.68 0.68 0 0 Z " fill="#FAFEFD" transform="translate(52,35)"/>
<path d="M0 0 C5.1813901 0.44667156 10.11149558 1.14236832 15 3 C16.4375 5.125 16.4375 5.125 17 7 C10.91891127 8.80789124 5.83137661 6.83657235 0 5 C-0.5625 3.0625 -0.5625 3.0625 -1 1 C-0.67 0.67 -0.34 0.34 0 0 Z " fill="#F6FDFC" transform="translate(123,18)"/>
<path d="M0 0 C3.56239375 0.54617936 6.52450135 2.14442995 9.6875 3.8125 C10.66074219 4.31394531 11.63398437 4.81539062 12.63671875 5.33203125 C15 7 15 7 15.83203125 9.19921875 C15.88746094 9.79347656 15.94289063 10.38773438 16 11 C10.06070672 10.62879417 5.57513349 8.9020104 1 5 C-0.23046875 2.83203125 -0.23046875 2.83203125 -1 1 C-0.67 0.67 -0.34 0.34 0 0 Z " fill="#F6FDFC" transform="translate(61,183)"/>
<path d="M0 0 C0.53109375 0.23074219 1.0621875 0.46148437 1.609375 0.69921875 C-0.41530374 5.54398574 -3.80116564 7.43848507 -8.390625 9.69921875 C-11.890625 10.51171875 -11.890625 10.51171875 -14.390625 10.69921875 C-14.390625 9.37921875 -14.390625 8.05921875 -14.390625 6.69921875 C-11.90625 4.7421875 -11.90625 4.7421875 -8.640625 2.88671875 C-7.57328125 2.26152344 -6.5059375 1.63632813 -5.40625 0.9921875 C-2.390625 -0.30078125 -2.390625 -0.30078125 0 0 Z " fill="#F5FDFC" transform="translate(159.390625,181.30078125)"/>
<path d="M0 0 C0.99 0.33 1.98 0.66 3 1 C2.41827275 4.9520518 0.44842259 7.22095053 -2.0625 10.25 C-2.79597656 11.14203125 -3.52945313 12.0340625 -4.28515625 12.953125 C-4.85105469 13.62859375 -5.41695312 14.3040625 -6 15 C-7.32 14.67 -8.64 14.34 -10 14 C-9.47616397 9.89542181 -8.34834816 7.78489488 -5.5625 4.75 C-4.94503906 4.06421875 -4.32757813 3.3784375 -3.69140625 2.671875 C-2 1 -2 1 0 0 Z " fill="#F6FDFC" transform="translate(179,161)"/>
<path d="M0 0 C5.61 0.66 11.22 1.32 17 2 C17.33 3.32 17.66 4.64 18 6 C15.77110504 6.05428973 13.54182529 6.09292338 11.3125 6.125 C9.45044922 6.15980469 9.45044922 6.15980469 7.55078125 6.1953125 C4.18762143 6.01032021 2.0014413 5.45767895 -1 4 C-0.67 2.68 -0.34 1.36 0 0 Z " fill="#FAFEFD" transform="translate(88,194)"/>
<path d="M0 0 C0.99 0.33 1.98 0.66 3 1 C3.3396019 2.87387477 3.67138691 4.74916697 4 6.625 C4.185625 7.66914062 4.37125 8.71328125 4.5625 9.7890625 C4.98715797 12.90574865 5.07545206 15.85930812 5 19 C3.68 18.67 2.36 18.34 1 18 C-0.5019035 12.20694363 -1.32102765 6.99251613 -1 1 C-0.67 0.67 -0.34 0.34 0 0 Z " fill="#F5FDFC" transform="translate(18,111)"/>
<path d="M0 0 C0.99 0 1.98 0 3 0 C6.25711277 5.77874846 7.69343615 10.37822074 8 17 C7.34 17.33 6.68 17.66 6 18 C2.88000818 16.44000409 2.54883154 13.87220503 1.3125 10.6875 C0.85488281 9.53636719 0.39726562 8.38523437 -0.07421875 7.19921875 C-0.96030566 4.13717158 -1.176686 2.88822927 0 0 Z " fill="#F7FDFC" transform="translate(189,70)"/>
<path d="M0 0 C1.89492187 0.01353516 1.89492187 0.01353516 3.828125 0.02734375 C4.79234375 0.03894531 5.7565625 0.05054687 6.75 0.0625 C6.75 1.3825 6.75 2.7025 6.75 4.0625 C-1.665 4.5575 -1.665 4.5575 -10.25 5.0625 C-10.58 3.7425 -10.91 2.4225 -11.25 1.0625 C-7.49600202 -0.1414337 -3.91782588 -0.03627617 0 0 Z " fill="#FCFEFE" transform="translate(104.25,16.9375)"/>
<path d="M0 0 C1.32 0 2.64 0 4 0 C6.140625 2.265625 6.140625 2.265625 8.25 5.25 C8.95640625 6.22453125 9.6628125 7.1990625 10.390625 8.203125 C12 11 12 11 12 15 C10.68 15 9.36 15 8 15 C5.859375 12.734375 5.859375 12.734375 3.75 9.75 C3.04359375 8.77546875 2.3371875 7.8009375 1.609375 6.796875 C0 4 0 4 0 0 Z " fill="#F8FDFD" transform="translate(173,46)"/>
</svg>
