<?xml version="1.0" encoding="UTF-8"?>
<svg version="1.1" xmlns="http://www.w3.org/2000/svg" width="218" height="218">
<path d="M0 0 C1.70724243 0.00845947 1.70724243 0.00845947 3.44897461 0.01708984 C34.13055367 0.45723465 59.66148512 13.29203281 81.04077148 34.80004883 C85.36626159 39.28040128 88.95504987 44.02259247 92.25 49.3125 C92.82105469 50.17746094 93.39210937 51.04242188 93.98046875 51.93359375 C109.29599582 76.30996244 113.12168169 106.42991294 107.09106445 134.34667969 C100.2923963 162.74128693 82.34782193 186.90069549 57.875 202.5 C31.57915802 218.60493592 0.76983828 221.75278688 -29 214.75 C-54.43499453 207.53232092 -77.86411961 191.01726821 -91.75 168.3125 C-92.49056641 167.22388672 -92.49056641 167.22388672 -93.24609375 166.11328125 C-108.94193439 142.1006835 -112.06057039 111.23644846 -106.29345703 83.62646484 C-99.79348904 55.9505005 -82.49645379 32.31954558 -58.91992188 16.65576172 C-40.93375176 5.52165866 -21.10632532 -0.11052912 0 0 Z " fill="#76E5D5" transform="translate(108.75,-0.3125)"/>
<path d="M0 0 C5.21130917 3.43077854 7.88242556 7.34280605 9.15625 13.41796875 C8.73340125 19.04853364 4.72449991 23.28626437 1.34375 27.54296875 C0.34085461 28.87412562 -0.66017732 30.20669894 -1.65625 31.54296875 C-1.12515625 31.91808594 -0.5940625 32.29320312 -0.046875 32.6796875 C4.6339762 36.07074211 8.70155597 39.25858069 11.34375 44.54296875 C12.12528528 51.43585364 11.43256661 56.87387978 7.34375 62.54296875 C-2.6710316 74.69783853 -16.50517662 79.29671444 -30.76782227 84.7902832 C-32.69939504 85.52942972 -32.69939504 85.52942972 -34.65625 86.54296875 C-41.76771121 87.24245674 -41.76771121 87.24245674 -45.59375 84.23046875 C-48.27948306 80.73087719 -48.78133229 78.27764646 -48.80151367 73.9934082 C-48.80789352 73.0700618 -48.81427338 72.14671539 -48.82084656 71.19538879 C-48.82195938 70.19247299 -48.8230722 69.18955719 -48.82421875 68.15625 C-48.82754715 67.10761276 -48.83087555 66.05897552 -48.83430481 64.9785614 C-48.83937835 62.74328041 -48.841713 60.50799182 -48.84155273 58.27270508 C-48.84369473 54.94143001 -48.86171875 51.61051127 -48.88085938 48.27929688 C-48.9121466 37.25378099 -48.68343024 26.27311375 -47.89453125 15.2734375 C-47.83355759 14.28080399 -47.77258392 13.28817047 -47.70976257 12.26545715 C-47.23615591 6.52532444 -46.40430802 2.97651627 -42.65625 -1.45703125 C-31.1680879 -9.93153347 -11.5825139 -6.0951192 0 0 Z " fill="#FDFEFE" transform="translate(95.65625,68.45703125)"/>
<path d="M0 0 C5.67159442 3.31734768 9.25969268 7.67549603 11.3125 13.9375 C13.17579466 29.69080938 5.17371293 42.88398421 -4.17773438 54.85839844 C-5.62620682 56.67320512 -7.09152611 58.47294575 -8.5625 60.26953125 C-10.79133627 62.49939823 -10.79133627 62.49939823 -10.6875 63.9375 C-9.38554687 63.80730469 -8.08359375 63.67710937 -6.7421875 63.54296875 C-5.01574018 63.40222576 -3.2891702 63.26298171 -1.5625 63.125 C-0.7065625 63.03541016 0.149375 62.94582031 1.03125 62.85351562 C5.3498491 62.53792569 8.35634266 62.43337875 11.88671875 65.14453125 C15.11944925 68.86659616 15.11944925 68.86659616 15 72.4375 C14.74553256 75.83605408 14.30259555 76.95204717 12.3125 79.875 C5.04486955 84.87149593 -3.82688396 84.51905626 -12.37255859 84.84082031 C-13.97518202 84.90775122 -15.57715608 84.99156653 -17.17822266 85.08886719 C-19.72266596 85.24125231 -22.26528005 85.34402858 -24.8125 85.4375 C-26.0022644 85.51991943 -26.0022644 85.51991943 -27.21606445 85.60400391 C-30.61094195 85.68139858 -32.793783 85.62116534 -35.546875 83.51513672 C-38.4632694 80.32317069 -40.52775926 77.5303334 -40.4375 73.0625 C-39.72738015 63.3961747 -31.80936542 56.72585255 -25.73217773 49.80908203 C-13.90235539 36.40694273 -13.90235539 36.40694273 -7.6875 19.9375 C-13.32295066 21.70548452 -15.72701933 23.60091489 -18.6328125 28.73828125 C-19.66901076 30.89894651 -20.51447799 33.05417998 -21.3125 35.3125 C-22.6875 38.9375 -22.6875 38.9375 -25.6875 40.9375 C-31.81202002 41.60562946 -31.81202002 41.60562946 -35.0625 39.125 C-38.46396682 34.54610236 -38.47593436 29.41105389 -37.6875 23.9375 C-33.39016002 12.85650191 -26.45735508 4.94019889 -15.68359375 0.00390625 C-9.94506405 -2.03862127 -5.77305728 -1.66342328 0 0 Z " fill="#FCFEFE" transform="translate(158.6875,65.0625)"/>
<path d="M0 0 C7.21503643 -0.30062652 13.80545641 -0.12969572 20 4 C19.39005064 9.64695052 16.59322141 11.67721407 12.41796875 15.1953125 C8.03940997 18.46331599 4.57353767 20 -1 20 C-1.02689449 17.04160645 -1.04678741 14.08345573 -1.0625 11.125 C-1.07087891 10.28324219 -1.07925781 9.44148438 -1.08789062 8.57421875 C-1.09111328 7.76855469 -1.09433594 6.96289062 -1.09765625 6.1328125 C-1.10289307 5.38918457 -1.10812988 4.64555664 -1.11352539 3.87939453 C-1 2 -1 2 0 0 Z " fill="#7AE5D6" transform="translate(67,113)"/>
<path d="M0 0 C1.77007714 -0.08114106 3.54122098 -0.13925505 5.3125 -0.1875 C6.29863281 -0.22230469 7.28476563 -0.25710937 8.30078125 -0.29296875 C11 0 11 0 12.85546875 1.51171875 C13.23316406 2.00285156 13.61085938 2.49398437 14 3 C10.34119271 7.91652229 6.5156979 11.24823902 1 14 C0.34 14 -0.32 14 -1 14 C-1.02705729 12.22925083 -1.04642195 10.45838289 -1.0625 8.6875 C-1.07410156 7.70136719 -1.08570312 6.71523437 -1.09765625 5.69921875 C-1 3 -1 3 0 0 Z " fill="#7BE6D6" transform="translate(69,80)"/>
<path d="M0 0 C2.0625 0.4375 2.0625 0.4375 4 1 C4.05814085 4.58326501 4.09364357 8.16640838 4.125 11.75 C4.14175781 12.76578125 4.15851563 13.7815625 4.17578125 14.828125 C4.18222656 15.8078125 4.18867188 16.7875 4.1953125 17.796875 C4.20578613 18.69760742 4.21625977 19.59833984 4.22705078 20.52636719 C3.98721676 23.13926856 3.32312064 24.75664666 2 27 C0.68 26.67 -0.64 26.34 -2 26 C-1.835 24.845 -1.67 23.69 -1.5 22.5 C-0.87743899 17.10447122 -0.9447231 11.74388119 -1.03710938 6.32226562 C-1.0591782 4.54827122 -1.03378686 2.77380991 -1 1 C-0.67 0.67 -0.34 0.34 0 0 Z " fill="#FAFEFD" transform="translate(197,98)"/>
<path d="M0 0 C1.32 0 2.64 0 4 0 C3.57045059 6.25107435 2.98598493 12.04204521 1 18 C-0.32 18 -1.64 18 -3 18 C-3.37634203 11.19796625 -2.77471079 6.24309927 0 0 Z " fill="#F6FDFC" transform="translate(21,82)"/>
<path d="M0 0 C2.67578125 1.26953125 2.67578125 1.26953125 5.3125 2.8125 C6.19550781 3.31394531 7.07851562 3.81539062 7.98828125 4.33203125 C8.65214844 4.88246094 9.31601563 5.43289062 10 6 C10 7.32 10 8.64 10 10 C5.40191871 9.46105575 2.13215631 8.23428472 -1.875 5.9375 C-2.84179688 5.38964844 -3.80859375 4.84179688 -4.8046875 4.27734375 C-5.52914062 3.85582031 -6.25359375 3.43429688 -7 3 C-7 2.01 -7 1.02 -7 0 C-4.24931232 -1.37534384 -2.94286427 -0.80259935 0 0 Z " fill="#F4FCFB" transform="translate(67,184)"/>
<path d="M0 0 C2.0625 0.4375 2.0625 0.4375 4 1 C4.36164523 3.62416952 4.71461153 6.24900313 5.0625 8.875 C5.16626953 9.62136719 5.27003906 10.36773437 5.37695312 11.13671875 C6.11328125 16.7734375 6.11328125 16.7734375 5 19 C3.078125 18.296875 3.078125 18.296875 1 17 C-0.88159339 12.06525508 -1.40311353 6.24047593 -1 1 C-0.67 0.67 -0.34 0.34 0 0 Z " fill="#F8FDFD" transform="translate(18,111)"/>
<path d="M0 0 C0.99 0 1.98 0 3 0 C2.71150838 6.63530736 0.03924175 11.75501444 -4 17 C-4.99 17.33 -5.98 17.66 -7 18 C-8.15496195 14.57318983 -8.12530269 13.27580592 -6.6015625 9.921875 C-5.94929688 8.87515625 -5.29703125 7.8284375 -4.625 6.75 C-3.65433594 5.16445313 -3.65433594 5.16445313 -2.6640625 3.546875 C-1 1 -1 1 0 0 Z " fill="#F3FCFB" transform="translate(34,55)"/>
<path d="M0 0 C-0.27734375 1.890625 -0.27734375 1.890625 -1 4 C-6.55804006 6.73026529 -10.85501795 7.42379187 -17 7 C-17.66 6.67 -18.32 6.34 -19 6 C-18.67 5.01 -18.34 4.02 -18 3 C-15.234375 2.05078125 -15.234375 2.05078125 -11.75 1.3125 C-10.61046875 1.06113281 -9.4709375 0.80976563 -8.296875 0.55078125 C-5.44136793 0.07373564 -2.8833448 -0.11381624 0 0 Z " fill="#F8FDFC" transform="translate(135,193)"/>
<path d="M0 0 C3 1 3 1 4.60546875 3.546875 C5.12753906 4.60390625 5.64960938 5.6609375 6.1875 6.75 C6.71730469 7.79671875 7.24710938 8.8434375 7.79296875 9.921875 C8.96557195 12.91220291 9.26382945 14.83404664 9 18 C7.20703125 17.859375 7.20703125 17.859375 5 17 C3.26171875 14.453125 3.26171875 14.453125 1.6875 11.25 C1.15511719 10.20328125 0.62273438 9.1565625 0.07421875 8.078125 C-1.07171254 4.79451098 -1.0342343 3.26600306 0 0 Z " fill="#F9FDFD" transform="translate(25,139)"/>
<path d="M0 0 C0.66 0.33 1.32 0.66 2 1 C1.58516427 6.80770027 0.69562261 12.29541375 -3 17 C-5.13671875 17.72265625 -5.13671875 17.72265625 -7 18 C-8.26865284 15.03003238 -7.96850923 13.91197631 -6.85546875 10.80078125 C-6.30503906 9.64964844 -5.75460938 8.49851563 -5.1875 7.3125 C-4.64480469 6.15363281 -4.10210937 4.99476563 -3.54296875 3.80078125 C-2 1 -2 1 0 0 Z " fill="#F5FDFC" transform="translate(194,135)"/>
<path d="M0 0 C6.08014008 0.05321786 11.51260599 1.45228135 17 4 C17.33 4.99 17.66 5.98 18 7 C13.64156793 8.23940347 10.54363011 7.66253286 6.1875 6.5625 C5.02605469 6.27503906 3.86460938 5.98757812 2.66796875 5.69140625 C1.78753906 5.46324219 0.90710938 5.23507813 0 5 C-0.5625 3.0625 -0.5625 3.0625 -1 1 C-0.67 0.67 -0.34 0.34 0 0 Z " fill="#F7FDFC" transform="translate(123,18)"/>
<path d="M0 0 C0 1.32 0 2.64 0 4 C-1.91149668 5.0098473 -3.82941569 6.00754495 -5.75 7 C-6.81734375 7.556875 -7.8846875 8.11375 -8.984375 8.6875 C-12 10 -12 10 -16 10 C-15.83203125 7.7109375 -15.83203125 7.7109375 -15 5 C-12.63671875 3.1640625 -12.63671875 3.1640625 -9.6875 1.625 C-8.72199219 1.10164062 -7.75648438 0.57828125 -6.76171875 0.0390625 C-3.87699424 -1.04627939 -2.80384858 -1.13219539 0 0 Z " fill="#F6FDFC" transform="translate(161,182)"/>
<path d="M0 0 C3.37089048 0.30160599 4.77413524 0.78694201 7.2734375 3.14453125 C7.96695313 4.02496094 8.66046875 4.90539063 9.375 5.8125 C10.08398438 6.68519531 10.79296875 7.55789062 11.5234375 8.45703125 C13 11 13 11 12.7265625 13.32421875 C12.36691406 14.15373047 12.36691406 14.15373047 12 15 C9.02963628 14.65880957 8.01169776 14.01171911 5.859375 11.85546875 C5.16328125 10.97503906 4.4671875 10.09460937 3.75 9.1875 C3.04359375 8.31480469 2.3371875 7.44210938 1.609375 6.54296875 C0 4 0 4 0 0 Z " fill="#F7FDFC" transform="translate(173,46)"/>
<path d="M0 0 C0.56332031 0.23976562 1.12664063 0.47953125 1.70703125 0.7265625 C1.70703125 4.7265625 1.70703125 4.7265625 -0.0859375 6.61328125 C-0.87613281 7.20753906 -1.66632812 7.80179688 -2.48046875 8.4140625 C-3.25777344 9.01605469 -4.03507812 9.61804688 -4.8359375 10.23828125 C-7.38334686 11.78130663 -9.36121971 12.33600979 -12.29296875 12.7265625 C-11.82374746 8.19340769 -10.36607397 6.33266824 -6.98046875 3.3515625 C-6.20058594 2.64257812 -5.42070313 1.93359375 -4.6171875 1.203125 C-2.29296875 -0.2734375 -2.29296875 -0.2734375 0 0 Z " fill="#F7FDFC" transform="translate(55.29296875,35.2734375)"/>
<path d="M0 0 C1.19496094 0.14888672 1.19496094 0.14888672 2.4140625 0.30078125 C5.54990224 0.72468141 8.68262057 1.15884774 11.8125 1.625 C12.1425 2.945 12.4725 4.265 12.8125 5.625 C10.58394426 5.7064222 8.35452345 5.76438079 6.125 5.8125 C4.26294922 5.86470703 4.26294922 5.86470703 2.36328125 5.91796875 C-1.38741035 5.60850575 -3.25468955 4.94096695 -6.1875 2.625 C-6.1875 1.965 -6.1875 1.305 -6.1875 0.625 C-3.75601667 -0.59074166 -2.66929468 -0.33997901 0 0 Z " fill="#F4FCFB" transform="translate(93.1875,194.375)"/>
<path d="M0 0 C-0.13671875 1.82421875 -0.13671875 1.82421875 -1 4 C-3.58203125 5.51953125 -3.58203125 5.51953125 -6.8125 6.8125 C-7.87082031 7.25207031 -8.92914063 7.69164062 -10.01953125 8.14453125 C-12.96349542 8.98952228 -14.20525702 9.10300994 -17 8 C-15.54527172 4.20470332 -13.78555385 2.97304097 -10.1875 1.1875 C-9.33542969 0.74792969 -8.48335937 0.30835937 -7.60546875 -0.14453125 C-4.61986238 -1.1248128 -2.97908073 -0.87179562 0 0 Z " fill="#F7FDFC" transform="translate(83,22)"/>
<path d="M0 0 C3.86328884 0.56853364 6.50025759 1.65872776 9.75 3.8125 C10.52859375 4.31394531 11.3071875 4.81539062 12.109375 5.33203125 C14.22678745 7.20007901 14.6414456 8.245107 15 11 C13.359375 11.73046875 13.359375 11.73046875 11 12 C8.203125 10.48828125 8.203125 10.48828125 5.25 8.3125 C4.26515625 7.60738281 3.2803125 6.90226562 2.265625 6.17578125 C1.51796875 5.45777344 0.7703125 4.73976563 0 4 C0 2.68 0 1.36 0 0 Z " fill="#F5FDFC" transform="translate(151,28)"/>
<path d="M0 0 C2.93789998 1.01306896 3.95500458 1.93167363 5.6875 4.5625 C7.27485458 8.71985724 7.71549929 12.58533377 8 17 C6.68 17 5.36 17 4 17 C3.13227971 14.92227529 2.28126381 12.83756823 1.4375 10.75 C0.96183594 9.58984375 0.48617187 8.4296875 -0.00390625 7.234375 C-0.95770524 4.13733356 -1.20983356 2.92678299 0 0 Z " fill="#F7FDFC" transform="translate(190,70)"/>
<path d="M0 0 C-0.5112012 4.50343911 -2.17521358 6.87525426 -5.0625 10.3125 C-5.79597656 11.19550781 -6.52945313 12.07851562 -7.28515625 12.98828125 C-7.85105469 13.65214844 -8.41695312 14.31601563 -9 15 C-10.32 14.67 -11.64 14.34 -13 14 C-13 12.68 -13 11.36 -13 10 C-11.38263741 8.6072711 -9.7074998 7.28062485 -8 6 C-6.65263027 4.34466005 -5.31665664 2.67987227 -4 1 C-2 0 -2 0 0 0 Z " fill="#F5FDFC" transform="translate(182,161)"/>
<path d="M0 0 C1.32 0 2.64 0 4 0 C5.3927289 1.61736259 6.71937515 3.2925002 8 5 C8.886875 5.680625 9.77375 6.36125 10.6875 7.0625 C13.10394436 9.08708852 13.67140682 9.93313028 14 13 C12.35 13.33 10.7 13.66 9 14 C8.51789062 13.44570312 8.03578125 12.89140625 7.5390625 12.3203125 C6.90742187 11.59585938 6.27578125 10.87140625 5.625 10.125 C4.99851562 9.40570313 4.37203125 8.68640625 3.7265625 7.9453125 C2.52573166 6.5923402 1.2791655 5.2791655 0 4 C0 2.68 0 1.36 0 0 Z " fill="#F8FDFD" transform="translate(39,165)"/>
<path d="M0 0 C1.27230469 0.00902344 2.54460937 0.01804687 3.85546875 0.02734375 C5.31919922 0.04474609 5.31919922 0.04474609 6.8125 0.0625 C6.8125 1.3825 6.8125 2.7025 6.8125 4.0625 C0.74553301 4.83290851 -5.07264973 5.15956112 -11.1875 5.0625 C-10.875 3.125 -10.875 3.125 -10.1875 1.0625 C-6.62704823 -0.12431726 -3.74941663 -0.03439832 0 0 Z " fill="#F9FEFD" transform="translate(104.1875,16.9375)"/>
</svg>
