<?xml version="1.0" encoding="UTF-8"?>
<svg version="1.1" xmlns="http://www.w3.org/2000/svg" width="89" height="89">
<path d="M0 0 C1.43665555 1.03531228 2.85462061 2.09719405 4.25 3.1875 C4.86617188 3.66574219 5.48234375 4.14398438 6.1171875 4.63671875 C12.81303816 10.543947 18.63843058 21.19536354 19.42700195 30.21118164 C19.84219572 44.6867222 18.42368404 55.44697007 9.25 67.1875 C8.77175781 67.80367188 8.29351562 68.41984375 7.80078125 69.0546875 C1.893553 75.75053816 -8.75786354 81.57593058 -17.77368164 82.36450195 C-32.2492222 82.77969572 -43.00947007 81.36118404 -54.75 72.1875 C-55.36617187 71.70925781 -55.98234375 71.23101562 -56.6171875 70.73828125 C-63.31303816 64.831053 -69.13843058 54.17963646 -69.92700195 45.16381836 C-70.34219572 30.6882778 -68.92368404 19.92802993 -59.75 8.1875 C-59.27175781 7.57132813 -58.79351562 6.95515625 -58.30078125 6.3203125 C-43.77397364 -10.14584222 -17.71312561 -11.04848805 0 0 Z " fill="#FEFEFE" transform="translate(69.75,6.8125)"/>
<path d="M0 0 C2.97 0.33 5.94 0.66 9 1 C9 3.31 9 5.62 9 8 C6.69 8 4.38 8 2 8 C2 9.32 2 10.64 2 12 C3.2684375 12.3403125 3.2684375 12.3403125 4.5625 12.6875 C8.56655705 14.21632178 12.22645011 15.62350449 15 19 C15.58507685 22.08589207 15.42547919 24.9000802 15 28 C16.05960938 27.97679688 17.11921875 27.95359375 18.2109375 27.9296875 C19.5989513 27.91093056 20.9869727 27.89273028 22.375 27.875 C23.42300781 27.84986328 23.42300781 27.84986328 24.4921875 27.82421875 C26.32897486 27.80655733 28.16601963 27.89696739 30 28 C32.80293793 30.80293793 32.33349748 33.48310349 32.37890625 37.23828125 C32.39590073 37.95606247 32.4128952 38.67384369 32.43040466 39.41337585 C32.48359892 41.71299381 32.5238199 44.01259573 32.5625 46.3125 C32.60656273 48.60159517 32.65345467 50.89055689 32.70530701 53.17948914 C32.73700969 54.60403951 32.76397644 56.02870548 32.78553772 57.45344543 C32.84535408 60.35274175 33.00376249 63.01675838 33.64038086 65.85229492 C33.75905518 66.5610376 33.87772949 67.26978027 34 68 C31.29658085 70.70341915 29.89415955 70.25327453 26.11328125 70.25878906 C24.87860107 70.26509338 23.6439209 70.27139771 22.37182617 70.27789307 C21.018716 70.27431338 19.66560713 70.27021145 18.3125 70.265625 C16.93009371 70.26697175 15.54768787 70.26891236 14.1652832 70.27142334 C11.26671849 70.27437418 8.36827697 70.27007836 5.46972656 70.26074219 C1.75039363 70.24934755 -1.96865068 70.25590725 -5.68797302 70.26788712 C-8.54295027 70.27510688 -11.39785885 70.27281728 -14.25283813 70.26763153 C-15.62440017 70.26629535 -16.99596839 70.26794166 -18.36752319 70.27259064 C-20.2827747 70.27765748 -22.19804801 70.26856831 -24.11328125 70.25878906 C-25.20423096 70.25719788 -26.29518066 70.25560669 -27.41918945 70.25396729 C-30 70 -30 70 -32 68 C-31.71930858 66.32366435 -31.3723322 64.65839007 -31 63 C-30.87573697 60.44780161 -30.79254384 57.91640018 -30.75390625 55.36328125 C-30.72100245 53.88475893 -30.68779028 52.40624345 -30.65429688 50.92773438 C-30.60670058 48.61031265 -30.56217079 46.29292525 -30.52319336 43.9753418 C-30.48360763 41.72938505 -30.43207564 39.48395164 -30.37890625 37.23828125 C-30.3704921 36.54245438 -30.36207794 35.8466275 -30.35340881 35.12971497 C-30.22678697 30.22678697 -30.22678697 30.22678697 -28 28 C-25.41935871 27.85502015 -22.95056116 27.81322455 -20.375 27.875 C-19.31539062 27.88853516 -19.31539062 27.88853516 -18.234375 27.90234375 C-16.48943902 27.92592397 -14.74467705 27.96179539 -13 28 C-13.10441406 27.41992188 -13.20882813 26.83984375 -13.31640625 26.2421875 C-13.59177379 23.59341399 -13.63032734 21.59745628 -13 19 C-9.26353026 15.19303083 -5.12328322 13.2808208 0 12 C0 8.04 0 4.08 0 0 Z " fill="#3B366D" transform="translate(44,3)"/>
<path d="M0 0 C0.721875 0.00257812 1.44375 0.00515625 2.1875 0.0078125 C2.909375 0.00523438 3.63125 0.00265625 4.375 0 C6.1875 0.1328125 6.1875 0.1328125 7.1875 1.1328125 C7.26069621 3.82936104 7.27992537 6.49972708 7.25 9.1953125 C7.24548828 9.95392578 7.24097656 10.71253906 7.23632812 11.49414062 C7.2245068 13.37373121 7.20657078 15.25328149 7.1875 17.1328125 C3.8875 17.1328125 0.5875 17.1328125 -2.8125 17.1328125 C-2.83934679 14.48691236 -2.85926357 11.84128154 -2.875 9.1953125 C-2.88337891 8.44056641 -2.89175781 7.68582031 -2.90039062 6.90820312 C-2.90902441 4.98286937 -2.86474333 3.05745669 -2.8125 1.1328125 C-1.8125 0.1328125 -1.8125 0.1328125 0 0 Z " fill="#F1F1F5" transform="translate(42.8125,48.8671875)"/>
<path d="M0 0 C1.010625 0.0825 2.02125 0.165 3.0625 0.25 C5.0625 3.25 5.0625 3.25 4.8125 5.8125 C4.0625 8.25 4.0625 8.25 2.0625 10.25 C-1.23464793 9.92028521 -2.5601839 9.6273161 -4.9375 7.25 C-4.23447766 0.36038108 -4.23447766 0.36038108 0 0 Z " fill="#EFEFF3" transform="translate(44.9375,22.75)"/>
<path d="M0 0 C2.97 0.33 5.94 0.66 9 1 C9 3.31 9 5.62 9 8 C6.69 8 4.38 8 2 8 C2 8.99 2 9.98 2 11 C1.34 11 0.68 11 0 11 C0 7.37 0 3.74 0 0 Z " fill="#4A4678" transform="translate(44,3)"/>
<path d="M0 0 C1.4540625 0.0309375 1.4540625 0.0309375 2.9375 0.0625 C2.9375 2.3725 2.9375 4.6825 2.9375 7.0625 C0.93795254 7.10504356 -1.06291636 7.10330783 -3.0625 7.0625 C-4.0625 6.0625 -4.0625 6.0625 -4.1875 3.5625 C-4.00295237 -0.12845252 -3.76342282 0.07680455 0 0 Z " fill="#EAE9EF" transform="translate(68.0625,39.9375)"/>
<path d="M0 0 C1.4540625 0.0309375 1.4540625 0.0309375 2.9375 0.0625 C2.9375 2.3725 2.9375 4.6825 2.9375 7.0625 C0.93795254 7.10504356 -1.06291636 7.10330783 -3.0625 7.0625 C-4.0625 6.0625 -4.0625 6.0625 -4.1875 3.5625 C-4.00295237 -0.12845252 -3.76342282 0.07680455 0 0 Z " fill="#EAE9EF" transform="translate(33.0625,39.9375)"/>
<path d="M0 0 C2.5 0.125 2.5 0.125 3.5 1.125 C3.625 3.625 3.625 3.625 3.5 6.125 C2.5 7.125 2.5 7.125 0 7.25 C-2.5 7.125 -2.5 7.125 -3.5 6.125 C-3.625 3.625 -3.625 3.625 -3.5 1.125 C-2.5 0.125 -2.5 0.125 0 0 Z " fill="#EEEEF3" transform="translate(57.5,39.875)"/>
<path d="M0 0 C2.5 0.125 2.5 0.125 3.5 1.125 C3.625 3.625 3.625 3.625 3.5 6.125 C2.5 7.125 2.5 7.125 0 7.25 C-2.5 7.125 -2.5 7.125 -3.5 6.125 C-3.625 3.625 -3.625 3.625 -3.5 1.125 C-2.5 0.125 -2.5 0.125 0 0 Z " fill="#EFEEF3" transform="translate(22.5,39.875)"/>
<path d="M0 0 C2.31 0 4.62 0 7 0 C7 1.98 7 3.96 7 6 C4.69 6 2.38 6 0 6 C0 4.02 0 2.04 0 0 Z " fill="#F0EFF3" transform="translate(64,51)"/>
<path d="M0 0 C2.31 0 4.62 0 7 0 C7 1.98 7 3.96 7 6 C4.69 6 2.38 6 0 6 C0 4.02 0 2.04 0 0 Z " fill="#F0EFF3" transform="translate(54,51)"/>
<path d="M0 0 C2.31 0 4.62 0 7 0 C7 1.98 7 3.96 7 6 C4.69 6 2.38 6 0 6 C0 4.02 0 2.04 0 0 Z " fill="#F0F0F4" transform="translate(19,51)"/>
<path d="M0 0 C2.31 0 4.62 0 7 0 C7 1.98 7 3.96 7 6 C5.00045254 6.04254356 2.99958364 6.04080783 1 6 C0 5 0 5 -0.0625 2.4375 C-0.041875 1.633125 -0.02125 0.82875 0 0 Z " fill="#F3F2F6" transform="translate(29,51)"/>
</svg>
