<?xml version="1.0" encoding="UTF-8"?>
<svg version="1.1" xmlns="http://www.w3.org/2000/svg" width="89" height="89">
<path d="M0 0 C1.43665555 1.03531228 2.85462061 2.09719405 4.25 3.1875 C4.86617188 3.66574219 5.48234375 4.14398438 6.1171875 4.63671875 C12.81303816 10.543947 18.63843058 21.19536354 19.42700195 30.21118164 C19.84219572 44.6867222 18.42368404 55.44697007 9.25 67.1875 C8.77175781 67.80367188 8.29351562 68.41984375 7.80078125 69.0546875 C1.893553 75.75053816 -8.75786354 81.57593058 -17.77368164 82.36450195 C-32.2492222 82.77969572 -43.00947007 81.36118404 -54.75 72.1875 C-55.36617187 71.70925781 -55.98234375 71.23101562 -56.6171875 70.73828125 C-63.31303816 64.831053 -69.13843058 54.17963646 -69.92700195 45.16381836 C-70.34219572 30.6882778 -68.92368404 19.92802993 -59.75 8.1875 C-59.27175781 7.57132813 -58.79351562 6.95515625 -58.30078125 6.3203125 C-43.77397364 -10.14584222 -17.71312561 -11.04848805 0 0 Z " fill="#FCFCFD" transform="translate(69.75,6.8125)"/>
<path d="M0 0 C1.72863281 0.54720703 1.72863281 0.54720703 3.4921875 1.10546875 C9.7897688 3.14772684 9.7897688 3.14772684 12.125 4.125 C12.62 5.115 12.62 5.115 13.125 6.125 C12.135 6.125 11.145 6.125 10.125 6.125 C10.23328125 7.73568359 10.23328125 7.73568359 10.34375 9.37890625 C10.43761864 10.81509642 10.53136195 12.25129478 10.625 13.6875 C10.67269531 14.39197266 10.72039062 15.09644531 10.76953125 15.82226562 C11.0563271 20.26760135 11.17182842 24.67044659 11.125 29.125 C9.145 29.125 7.165 29.125 5.125 29.125 C5.09813447 27.14590602 5.07866625 25.16671029 5.0625 23.1875 C5.05089844 22.08535156 5.03929687 20.98320313 5.02734375 19.84765625 C5.125 17.125 5.125 17.125 6.125 16.125 C6.35575082 14.77752916 6.53653063 13.42122435 6.6875 12.0625 C6.831875 10.763125 6.97625 9.46375 7.125 8.125 C5.145 8.455 3.165 8.785 1.125 9.125 C1.17720703 10.50171875 1.17720703 10.50171875 1.23046875 11.90625 C1.47916863 23.18064449 0.35191163 29.14484245 -7.15625 37.55859375 C-10.49461735 40.60106035 -14.30693866 40.46192287 -18.59375 40.40625 C-23.29268012 39.82692985 -26.03350061 37.03662434 -29.125 33.6875 C-32.86383185 28.21278193 -33.14030213 23.75020948 -33 17.3125 C-32.99097656 16.52423828 -32.98195313 15.73597656 -32.97265625 14.92382812 C-32.94922504 12.99075334 -32.91335838 11.0578362 -32.875 9.125 C-34.133125 8.98191406 -35.39125 8.83882812 -36.6875 8.69140625 C-40.03179349 8.3110614 -42.80433254 7.56437537 -45.875 6.125 C-42.1781989 1.79247732 -36.90587245 1.00474777 -31.625 -0.5625 C-30.60019531 -0.88283203 -29.57539063 -1.20316406 -28.51953125 -1.53320312 C-17.67093953 -4.80732765 -10.64130644 -3.51065932 0 0 Z " fill="#3D386E" transform="translate(60.875,13.875)"/>
<path d="M0 0 C4.75493422 1.99222938 7.93280231 5.64145104 11.5625 9.19921875 C13.75746994 11.17141229 13.75746994 11.17141229 15.953125 11.0859375 C18.96025984 9.49054917 21.30679066 7.26848844 23.75 4.9375 C24.25660156 4.46505859 24.76320312 3.99261719 25.28515625 3.50585938 C26.52949613 2.34369289 27.76558064 1.17269839 29 0 C34.03343806 2.32231693 36.2073873 5.47138979 38.75 10.375 C40.05621252 14.16301631 40.24336397 17.02505519 40 21 C38.29422658 21.65256456 36.58523911 22.29673041 34.875 22.9375 C33.92367187 23.29714844 32.97234375 23.65679687 31.9921875 24.02734375 C19.83452665 27.97937711 4.29229582 27.3966903 -7.328125 21.8984375 C-7.87984375 21.60195312 -8.4315625 21.30546875 -9 21 C-9.65176345 13.96095477 -7.96718257 8.87769417 -4 3 C-1.828125 1.20703125 -1.828125 1.20703125 0 0 Z " fill="#3A356C" transform="translate(29,52)"/>
<path d="M0 0 C3.5 3.5 3.5 3.5 7 7 C6.70742343 11.38864862 5.56821691 14.44400735 3 18 C-0.68814773 20.45876515 -3.716843 20.6943399 -8 20 C-11.27981751 17.93228896 -12.84746007 16.22880989 -15 13 C-15 12.01 -15 11.02 -15 10 C-14.33613281 9.69707031 -13.67226563 9.39414062 -12.98828125 9.08203125 C-7.77378998 6.60800254 -3.76754403 4.39546803 0 0 Z " fill="#FAFAFB" transform="translate(49,29)"/>
</svg>
