<?xml version="1.0" encoding="UTF-8"?>
<svg version="1.1" xmlns="http://www.w3.org/2000/svg" width="89" height="89">
<path d="M0 0 C1.43665555 1.03531228 2.85462061 2.09719405 4.25 3.1875 C4.86617188 3.66574219 5.48234375 4.14398438 6.1171875 4.63671875 C12.81303816 10.543947 18.63843058 21.19536354 19.42700195 30.21118164 C19.84219572 44.6867222 18.42368404 55.44697007 9.25 67.1875 C8.77175781 67.80367188 8.29351562 68.41984375 7.80078125 69.0546875 C1.893553 75.75053816 -8.75786354 81.57593058 -17.77368164 82.36450195 C-32.2492222 82.77969572 -43.00947007 81.36118404 -54.75 72.1875 C-55.36617187 71.70925781 -55.98234375 71.23101562 -56.6171875 70.73828125 C-63.31303816 64.831053 -69.13843058 54.17963646 -69.92700195 45.16381836 C-70.34219572 30.6882778 -68.92368404 19.92802993 -59.75 8.1875 C-59.27175781 7.57132813 -58.79351562 6.95515625 -58.30078125 6.3203125 C-43.77397364 -10.14584222 -17.71312561 -11.04848805 0 0 Z " fill="#39346B" transform="translate(69.75,6.8125)"/>
<path d="M0 0 C1.43665555 1.03531228 2.85462061 2.09719405 4.25 3.1875 C4.86617188 3.66574219 5.48234375 4.14398438 6.1171875 4.63671875 C12.81303816 10.543947 18.63843058 21.19536354 19.42700195 30.21118164 C19.84219572 44.6867222 18.42368404 55.44697007 9.25 67.1875 C8.77175781 67.80367188 8.29351562 68.41984375 7.80078125 69.0546875 C1.893553 75.75053816 -8.75786354 81.57593058 -17.77368164 82.36450195 C-32.2492222 82.77969572 -43.00947007 81.36118404 -54.75 72.1875 C-55.36617187 71.70925781 -55.98234375 71.23101562 -56.6171875 70.73828125 C-63.31303816 64.831053 -69.13843058 54.17963646 -69.92700195 45.16381836 C-70.34219572 30.6882778 -68.92368404 19.92802993 -59.75 8.1875 C-59.27175781 7.57132813 -58.79351562 6.95515625 -58.30078125 6.3203125 C-43.77397364 -10.14584222 -17.71312561 -11.04848805 0 0 Z M-50.94876099 9.16246033 C-52.6810632 13.54065542 -52.4149459 18.11220048 -52.34375 22.75390625 C-52.34379028 23.86555649 -52.34383057 24.97720673 -52.34387207 26.12254333 C-52.33852262 28.46676301 -52.32096482 30.81098257 -52.29199219 33.1550293 C-52.25010185 36.74128035 -52.25092918 40.32565464 -52.2578125 43.91210938 C-52.24732081 46.19272137 -52.23438282 48.4733237 -52.21875 50.75390625 C-52.21854858 51.82484024 -52.21834717 52.89577423 -52.21813965 53.99916077 C-52.11373427 60.56926554 -51.52908124 64.40841876 -46.75 69.1875 C-44.68919856 69.47916082 -44.68919856 69.47916082 -42.30029297 69.41455078 C-40.91908768 69.41432419 -40.91908768 69.41432419 -39.50997925 69.41409302 C-38.01617233 69.39860916 -38.01617233 69.39860916 -36.4921875 69.3828125 C-34.96490524 69.37856766 -34.96490524 69.37856766 -33.4067688 69.37423706 C-30.146061 69.3630177 -26.88562516 69.33790996 -23.625 69.3125 C-21.41797271 69.30247247 -19.21094112 69.29334623 -17.00390625 69.28515625 C-11.58584428 69.26307268 -6.16794157 69.22957795 -0.75 69.1875 C0.26283304 64.86061768 -0.08702817 61.57968838 -0.75 57.1875 C-0.255 56.1975 -0.255 56.1975 0.25 55.1875 C0.35475662 53.69223697 0.3986741 52.19247985 0.41113281 50.69360352 C0.42074036 49.76246231 0.4303479 48.83132111 0.44024658 47.8719635 C0.44449646 46.86362961 0.44874634 45.85529572 0.453125 44.81640625 C0.46167511 43.26650246 0.46167511 43.26650246 0.47039795 41.68528748 C0.47985453 39.49715196 0.48638454 37.30900217 0.49023438 35.12084961 C0.49995027 31.76716413 0.53097203 28.41408869 0.5625 25.06054688 C0.56902884 22.93750365 0.57427978 20.81445603 0.578125 18.69140625 C0.5904718 17.68509659 0.6028186 16.67878693 0.61553955 15.64198303 C0.61253845 14.70768967 0.60953735 13.7733963 0.60644531 12.81079102 C0.61009094 11.98853531 0.61373657 11.1662796 0.61749268 10.31910706 C0.15318702 7.62594533 -0.53191034 6.76015033 -2.75 5.1875 C-4.78432303 4.71589855 -4.78432303 4.71589855 -7.05029297 4.75170898 C-7.914841 4.73256943 -8.77938904 4.71342987 -9.6701355 4.69371033 C-10.60141266 4.69037186 -11.53268982 4.68703339 -12.4921875 4.68359375 C-13.45271027 4.67360855 -14.41323303 4.66362335 -15.40286255 4.65333557 C-17.43536062 4.63814489 -19.4679335 4.63111007 -21.50048828 4.6315918 C-24.60705263 4.62503786 -27.71040878 4.57058806 -30.81640625 4.51367188 C-32.79165574 4.50486819 -34.76692041 4.49891506 -36.7421875 4.49609375 C-37.6694162 4.4745372 -38.5966449 4.45298065 -39.55197144 4.43077087 C-44.43187864 4.48249147 -47.98460425 4.7453902 -50.94876099 9.16246033 Z " fill="#FCFCFC" transform="translate(69.75,6.8125)"/>
<path d="M0 0 C1.47583955 0.0001591 2.95168467 0.00585225 4.42749023 0.01586914 C5.20293686 0.01728409 5.97838348 0.01869904 6.77732849 0.02015686 C9.26361893 0.02577194 11.74982059 0.03832693 14.23608398 0.05102539 C15.91772331 0.05603845 17.59936405 0.06060169 19.28100586 0.06469727 C23.41189965 0.07574626 27.54272674 0.09302094 31.67358398 0.11352539 C31.67358398 2.09352539 31.67358398 4.07352539 31.67358398 6.11352539 C20.12358398 6.11352539 8.57358398 6.11352539 -3.32641602 6.11352539 C-3.65641602 4.46352539 -3.98641602 2.81352539 -4.32641602 1.11352539 C-3.32641602 0.11352539 -3.32641602 0.11352539 0 0 Z " fill="#FEFEFE" transform="translate(29.326416015625,63.886474609375)"/>
<path d="M0 0 C1.57043101 0.01330874 3.14079971 0.03717648 4.7109375 0.0703125 C5.51273438 0.07933594 6.31453125 0.08835937 7.140625 0.09765625 C9.12252273 0.12125027 11.10426731 0.15712185 13.0859375 0.1953125 C13.46812517 1.85145907 13.79988852 3.51988274 14.0859375 5.1953125 C13.0859375 6.1953125 13.0859375 6.1953125 11.32006836 6.30883789 C10.57120361 6.30360107 9.82233887 6.29836426 9.05078125 6.29296875 C8.24189453 6.28974609 7.43300781 6.28652344 6.59960938 6.28320312 C5.74947266 6.27482422 4.89933594 6.26644531 4.0234375 6.2578125 C3.16943359 6.25330078 2.31542969 6.24878906 1.43554688 6.24414062 C-0.68101913 6.23231623 -2.79754935 6.21438019 -4.9140625 6.1953125 C-5.5390625 4.3203125 -5.5390625 4.3203125 -5.9140625 2.1953125 C-3.9140625 0.1953125 -3.9140625 0.1953125 0 0 Z " fill="#F7F6F9" transform="translate(39.9140625,27.8046875)"/>
</svg>
