<?xml version="1.0" encoding="UTF-8"?>
<svg version="1.1" xmlns="http://www.w3.org/2000/svg" width="421" height="198">
<path d="M0 0 C0.33 0.33 0.66 0.66 1 1 C3.07262076 1.08767112 5.14820294 1.10695873 7.22265625 1.09765625 C9.11274414 1.09282227 9.11274414 1.09282227 11.04101562 1.08789062 C12.38151109 1.07953403 13.72200588 1.07106907 15.0625 1.0625 C16.40689942 1.0574866 17.7513006 1.05292342 19.09570312 1.04882812 C22.39717941 1.03699488 25.69856803 1.02050971 29 1 C32.5965334 9.84147794 32.5965334 9.84147794 32 14 C30.3034668 15.62158203 30.3034668 15.62158203 27.94921875 17.0078125 C26.68368164 17.77544922 26.68368164 17.77544922 25.39257812 18.55859375 C24.49990234 19.07550781 23.60722656 19.59242187 22.6875 20.125 C20.93940995 21.16592561 19.19323533 22.21007631 17.44921875 23.2578125 C16.27879028 23.94061279 16.27879028 23.94061279 15.0847168 24.63720703 C13.10854934 25.92904059 11.59315223 27.26774537 10 29 C10.30292969 30.04978027 10.60585938 31.09956055 10.91796875 32.18115234 C12.03879947 36.06792039 13.1561593 39.95567899 14.27246094 43.84375 C14.75653641 45.52794278 15.24155886 47.21186366 15.72753906 48.89550781 C16.42500641 51.31244568 17.11908729 53.73033371 17.8125 56.1484375 C18.03123779 56.9036972 18.24997559 57.65895691 18.4753418 58.43710327 C20 63.77225659 20 63.77225659 20 66 C21.051875 65.938125 22.10375 65.87625 23.1875 65.8125 C27.26146259 66.01285882 28.86408495 66.47384621 32 69 C35.12699358 73.1229447 35.10578768 75.57298466 34.5625 80.625 C34.32112108 90.50222532 38.83819717 97.5111951 43.72998047 105.83056641 C45.47104463 108.80463334 47.09674573 111.81759285 48.6875 114.875 C49.16574219 115.75929688 49.64398438 116.64359375 50.13671875 117.5546875 C51.22576842 120.63950693 51.36925936 122.0044362 50 125 C47.58928223 126.30814143 45.57448945 127.16904789 43 128 C42.31131836 128.23525391 41.62263672 128.47050781 40.91308594 128.71289062 C38.7440972 129.43159707 36.56438276 130.09627971 34.375 130.75 C33.63765625 130.98332031 32.9003125 131.21664062 32.140625 131.45703125 C28.10215249 132.66567804 25.13365702 133.42539897 21 132 C18.89780097 129.89780097 19.46066508 125.46090895 19.23828125 122.546875 C19.08799753 120.79545145 18.93625811 119.0441523 18.78320312 117.29296875 C18.54410372 114.5243202 18.31295883 111.7561646 18.10668945 108.98486328 C17.90502283 106.31522672 17.66843102 103.65055898 17.42578125 100.984375 C17.3723909 100.16024109 17.31900055 99.33610718 17.26399231 98.48699951 C16.86266251 94.09018047 16.86266251 94.09018047 14.62338257 90.41125488 C13.14311803 89.19599642 11.5742617 88.09075036 10 87 C7.52968764 83.13342413 7.84059092 79.55596926 8.44921875 75.15625 C9.24007884 72.06011687 10.73049717 70.20073002 13 68 C13.66 67.67 14.32 67.34 15 67 C14.40553464 62.24691919 13.48736429 57.78981032 12.15234375 53.19140625 C11.61577148 51.33032227 11.61577148 51.33032227 11.06835938 49.43164062 C10.69150862 48.14189717 10.31455423 46.85218399 9.9375 45.5625 C9.55621014 44.24556727 9.1753469 42.92851094 8.79492188 41.61132812 C7.86746338 38.40631333 6.93569947 35.20261665 6 32 C1.76252398 32 -0.78570905 34.27140904 -4.1875 36.5625 C-5.70967941 37.56831281 -7.23319861 38.57209996 -8.7578125 39.57421875 C-9.58958008 40.12126465 -10.42134766 40.66831055 -11.27832031 41.23193359 C-16.33043391 44.51390405 -21.44876078 47.69024785 -26.5625 50.875 C-27.57272217 51.5047876 -28.58294434 52.1345752 -29.6237793 52.78344727 C-31.46829847 53.93288587 -33.31313778 55.08181107 -35.15844727 56.22998047 C-38.77481257 58.4826352 -42.38751796 60.74112473 -46 63 C-45.47043701 64.85347046 -45.47043701 64.85347046 -44.93017578 66.74438477 C-35.32861328 100.34985352 -35.32861328 100.34985352 -34.64328003 102.75547791 C-34.2311723 104.19339742 -33.81453236 105.63003039 -33.39212036 107.06495667 C-30.89158954 115.59432209 -31.17581843 123.31514513 -34.5390625 131.55078125 C-38.91794714 138.89185256 -44.58521063 143.05503595 -51.8125 147.4375 C-53.78303166 148.66068608 -55.75306425 149.88467644 -57.72265625 151.109375 C-59.26203857 152.05973633 -59.26203857 152.05973633 -60.83251953 153.02929688 C-65.1045998 155.687246 -69.33371593 158.40962965 -73.56298828 161.13500977 C-77.74253322 163.82670843 -81.93396175 166.49951092 -86.12744141 169.16943359 C-87.94159161 170.32551877 -89.75400502 171.48433801 -91.56396484 172.64697266 C-105.81778354 181.78283884 -119.97837531 188.91649885 -136.375 193.375 C-137.23440186 193.61387939 -138.09380371 193.85275879 -138.97924805 194.09887695 C-159.0084809 199.1606871 -180.07470774 198.37573491 -200.57568359 198.37060547 C-204.80730158 198.37040035 -209.03826256 198.39797319 -213.26972389 198.43214989 C-216.56935614 198.45447074 -219.86882952 198.45844183 -223.16852951 198.45738602 C-224.7288787 198.4597237 -226.28923351 198.46844207 -227.84950638 198.48405075 C-239.08228131 198.58615909 -248.95874715 197.74536408 -257.48970032 189.73829651 C-262.96871612 183.43216128 -265.33129523 175.58405013 -267.55078125 167.69140625 C-267.85445114 166.64347397 -268.15812103 165.59554169 -268.47099304 164.51585388 C-269.10533232 162.31974105 -269.73448279 160.12212332 -270.35864258 157.9230957 C-271.31743168 154.54512487 -272.2910682 151.17171445 -273.26757812 147.79882812 C-273.88366531 145.65909953 -274.49892956 143.51913378 -275.11328125 141.37890625 C-275.54910271 139.86182823 -275.54910271 139.86182823 -275.99372864 138.31410217 C-276.25788071 137.38230637 -276.52203278 136.45051056 -276.79418945 135.49047852 C-277.14463066 134.25878685 -277.14463066 134.25878685 -277.50215149 133.00221252 C-278 131 -278 131 -278 129 C-279.09723389 129.03029297 -280.19446777 129.06058594 -281.32495117 129.09179688 C-309.88896424 129.8672772 -338.42615989 130.13209812 -367 130 C-367.48773663 128.72326691 -367.97322532 127.44567492 -368.45776367 126.16772461 C-368.72836105 125.45635849 -368.99895844 124.74499237 -369.27775574 124.0120697 C-370.80468607 119.75825917 -370.80468607 119.75825917 -370 117 C-367.62425095 114.92069913 -364.9383841 113.46670942 -362.1875 111.9375 C-360.51596062 110.96389698 -358.84541724 109.98858231 -357.17578125 109.01171875 C-355.88148193 108.26414307 -355.88148193 108.26414307 -354.56103516 107.50146484 C-350.60350743 105.18127461 -346.74120681 102.7183544 -342.875 100.25 C-341.28299893 99.24018061 -339.69053817 98.23108562 -338.09765625 97.22265625 C-337.27539551 96.70203613 -336.45313477 96.18141602 -335.60595703 95.64501953 C-330.85123341 92.64358354 -326.08168564 89.66588318 -321.3125 86.6875 C-320.30727295 86.059646 -319.3020459 85.43179199 -318.26635742 84.78491211 C-314.14374589 82.2105331 -310.02059049 79.63702579 -305.89746094 77.06347656 C-295.75166063 70.72995992 -285.60701335 64.39528868 -275.5 58 C-263.33264116 50.30101223 -251.11191904 42.68742066 -238.89746094 35.06347656 C-227.04317492 27.66343758 -215.19694095 20.25146446 -203.38671875 12.78125 C-202.71567108 12.36929697 -202.04462341 11.95734394 -201.35324097 11.53290749 C-198.96988814 10.03427477 -198.96988814 10.03427477 -196.78526306 8.23097801 C-188.36322459 1.90889929 -180.4156055 1.98427546 -170.3671875 2.03759766 C-168.60687838 2.02145739 -166.84659508 2.00225853 -165.08634949 1.98025513 C-160.33677594 1.92932985 -155.58796461 1.9205228 -150.83815384 1.91931581 C-145.85991549 1.91049 -140.88207391 1.8615577 -135.90405273 1.81674194 C-126.48737551 1.7378288 -117.07087448 1.69315066 -107.65393162 1.66164339 C-93.81343923 1.61368094 -79.97332044 1.51165888 -66.13311768 1.41248131 C-64.09216331 1.39795248 -62.05120872 1.38345445 -60.01025391 1.36898804 C-58.51611465 1.35833268 -58.51611465 1.35833268 -56.99179077 1.34746206 C-51.06585856 1.30632456 -45.13996164 1.27426126 -39.2139349 1.25043797 C-35.53726151 1.23534531 -31.86060959 1.2167949 -28.18395424 1.1978569 C-26.47590147 1.19004954 -24.76783977 1.18397961 -23.0597744 1.17974854 C-20.73389773 1.17389422 -18.40812089 1.16216183 -16.08227539 1.14907837 C-14.77932022 1.1443432 -13.47636505 1.13960804 -12.13392639 1.13472939 C-7.90969915 0.95312731 -4.32279294 -0.18794752 0 0 Z " fill="#3F568D" transform="translate(370,0)"/>
<path d="M0 0 C2 1 2 1 2.77200317 2.86177063 C3.01627045 3.6760704 3.26053772 4.49037018 3.51220703 5.3293457 C3.7923465 6.25153397 4.07248596 7.17372223 4.3611145 8.12385559 C4.65702484 9.13099106 4.95293518 10.13812653 5.2578125 11.17578125 C5.56572723 12.21131638 5.87364197 13.2468515 6.19088745 14.31376648 C6.84223195 16.51596418 7.48924811 18.71944588 8.13232422 20.92407227 C9.1111935 24.26537249 10.11529738 27.59836318 11.12109375 30.93164062 C11.75157606 33.07505787 12.38052906 35.21892566 13.0078125 37.36328125 C13.4577507 38.84058464 13.4577507 38.84058464 13.91677856 40.34773254 C16.69376632 50.05135969 17.32609224 59.08610747 13.4609375 68.55078125 C9.08205286 75.89185256 3.41478937 80.05503595 -3.8125 84.4375 C-5.78303166 85.66068608 -7.75306425 86.88467644 -9.72265625 88.109375 C-10.74891113 88.74294922 -11.77516602 89.37652344 -12.83251953 90.02929688 C-17.1045998 92.687246 -21.33371593 95.40962965 -25.56298828 98.13500977 C-29.74253322 100.82670843 -33.93396175 103.49951092 -38.12744141 106.16943359 C-39.94159161 107.32551877 -41.75400502 108.48433801 -43.56396484 109.64697266 C-57.81778354 118.78283884 -71.97837531 125.91649885 -88.375 130.375 C-89.23440186 130.61387939 -90.09380371 130.85275879 -90.97924805 131.09887695 C-111.0084809 136.1606871 -132.07470774 135.37573491 -152.57568359 135.37060547 C-156.80730158 135.37040035 -161.03826256 135.39797319 -165.26972389 135.43214989 C-168.56935614 135.45447074 -171.86882952 135.45844183 -175.16852951 135.45738602 C-176.7288787 135.4597237 -178.28923351 135.46844207 -179.84950638 135.48405075 C-191.08228131 135.58615909 -200.95874715 134.74536408 -209.48970032 126.73829651 C-214.96871612 120.43216128 -217.33129523 112.58405013 -219.55078125 104.69140625 C-219.85445114 103.64347397 -220.15812103 102.59554169 -220.47099304 101.51585388 C-221.10533232 99.31974105 -221.73448279 97.12212332 -222.35864258 94.9230957 C-223.31743168 91.54512487 -224.2910682 88.17171445 -225.26757812 84.79882812 C-225.88366531 82.65909953 -226.49892956 80.51913378 -227.11328125 78.37890625 C-227.40382889 77.3675209 -227.69437653 76.35613556 -227.99372864 75.31410217 C-228.25788071 74.38230637 -228.52203278 73.45051056 -228.79418945 72.49047852 C-229.02781693 71.66935074 -229.2614444 70.84822296 -229.50215149 70.00221252 C-230 68 -230 68 -230 66 C-222.3958207 65.17001667 -214.92596044 64.88350131 -207.28076172 64.96923828 C-204.97093966 64.98532701 -202.66111485 65.00102583 -200.35128784 65.01638794 C-198.53828501 65.0306954 -198.53828501 65.0306954 -196.68865585 65.0452919 C-189.54208636 65.09286119 -182.39535867 65.09035752 -175.24865508 65.0950911 C-167.72063946 65.100859 -160.19366382 65.1245279 -152.66601562 65.20214844 C-146.00673677 65.27067324 -139.34957473 65.28053765 -132.68988419 65.25689316 C-130.16954682 65.25749929 -127.64913053 65.27731433 -125.12911606 65.31766129 C-109.55037723 65.55439785 -98.80165384 64.39601229 -86.56314373 54.26765347 C-84.49917517 52.59384904 -82.29702529 51.20500318 -80.02734375 49.828125 C-79.34905518 49.39975342 -78.6707666 48.97138184 -77.97192383 48.5300293 C-76.96488403 47.89641479 -76.96488403 47.89641479 -75.9375 47.25 C-75.16623779 46.76378174 -74.39497559 46.27756348 -73.6003418 45.77661133 C-64.11876766 39.80548049 -54.61229311 33.87407542 -45.10693359 27.94091797 C-41.99294077 25.99559006 -38.88094281 24.04710962 -35.76953125 22.09765625 C-30.78816688 18.97677776 -25.80181341 15.86401182 -20.8125 12.75585938 C-18.05837032 11.03644092 -15.31033738 9.30757528 -12.5625 7.578125 C-10.91696498 6.55160498 -9.27114873 5.52553558 -7.625 4.5 C-6.87557129 4.0246582 -6.12614258 3.54931641 -5.35400391 3.05957031 C-3.60627878 1.97762555 -1.80747395 0.9788695 0 0 Z " fill="#3F568E" transform="translate(322,63)"/>
<path d="M0 0 C0.33 0.33 0.66 0.66 1 1 C3.07262076 1.08767112 5.14820294 1.10695873 7.22265625 1.09765625 C9.11274414 1.09282227 9.11274414 1.09282227 11.04101562 1.08789062 C12.38151109 1.07953403 13.72200588 1.07106907 15.0625 1.0625 C16.40689942 1.0574866 17.7513006 1.05292342 19.09570312 1.04882812 C22.39717941 1.03699488 25.69856803 1.02050971 29 1 C32.5965334 9.84147794 32.5965334 9.84147794 32 14 C30.3034668 15.62158203 30.3034668 15.62158203 27.94921875 17.0078125 C26.68368164 17.77544922 26.68368164 17.77544922 25.39257812 18.55859375 C24.49990234 19.07550781 23.60722656 19.59242187 22.6875 20.125 C20.93940995 21.16592561 19.19323533 22.21007631 17.44921875 23.2578125 C16.27879028 23.94061279 16.27879028 23.94061279 15.0847168 24.63720703 C13.10854934 25.92904059 11.59315223 27.26774537 10 29 C10.30292969 30.04978027 10.60585938 31.09956055 10.91796875 32.18115234 C12.03879947 36.06792039 13.1561593 39.95567899 14.27246094 43.84375 C14.75653641 45.52794278 15.24155886 47.21186366 15.72753906 48.89550781 C16.42500641 51.31244568 17.11908729 53.73033371 17.8125 56.1484375 C18.03123779 56.9036972 18.24997559 57.65895691 18.4753418 58.43710327 C20 63.77225659 20 63.77225659 20 66 C21.051875 65.938125 22.10375 65.87625 23.1875 65.8125 C27.26146259 66.01285882 28.86408495 66.47384621 32 69 C35.12699358 73.1229447 35.10578768 75.57298466 34.5625 80.625 C34.32112108 90.50222532 38.83819717 97.5111951 43.72998047 105.83056641 C45.47104463 108.80463334 47.09674573 111.81759285 48.6875 114.875 C49.16574219 115.75929688 49.64398438 116.64359375 50.13671875 117.5546875 C51.22576842 120.63950693 51.36925936 122.0044362 50 125 C47.58928223 126.30814143 45.57448945 127.16904789 43 128 C42.31131836 128.23525391 41.62263672 128.47050781 40.91308594 128.71289062 C38.7440972 129.43159707 36.56438276 130.09627971 34.375 130.75 C33.63765625 130.98332031 32.9003125 131.21664062 32.140625 131.45703125 C28.10215249 132.66567804 25.13365702 133.42539897 21 132 C18.89780097 129.89780097 19.46066508 125.46090895 19.23828125 122.546875 C19.08799753 120.79545145 18.93625811 119.0441523 18.78320312 117.29296875 C18.54410372 114.5243202 18.31295883 111.7561646 18.10668945 108.98486328 C17.90502283 106.31522672 17.66843102 103.65055898 17.42578125 100.984375 C17.3723909 100.16024109 17.31900055 99.33610718 17.26399231 98.48699951 C16.86266251 94.09018047 16.86266251 94.09018047 14.62338257 90.41125488 C13.14311803 89.19599642 11.5742617 88.09075036 10 87 C7.52968764 83.13342413 7.84059092 79.55596926 8.44921875 75.15625 C9.24007884 72.06011687 10.73049717 70.20073002 13 68 C13.66 67.67 14.32 67.34 15 67 C14.40553464 62.24691919 13.48736429 57.78981032 12.15234375 53.19140625 C11.61577148 51.33032227 11.61577148 51.33032227 11.06835938 49.43164062 C10.69150862 48.14189717 10.31455423 46.85218399 9.9375 45.5625 C9.55621014 44.24556727 9.1753469 42.92851094 8.79492188 41.61132812 C7.86746338 38.40631333 6.93569947 35.20261665 6 32 C1.76234551 32 -0.78546232 34.27166277 -4.1875 36.5625 C-5.72149077 37.57468519 -7.25672005 38.58499508 -8.79296875 39.59375 C-9.62618652 40.14160156 -10.4594043 40.68945312 -11.31787109 41.25390625 C-23.63363399 49.27159569 -36.14963575 56.99139076 -48.85522461 64.37451172 C-55.6325227 68.33017113 -62.24634572 72.53158192 -68.8671875 76.7421875 C-74.45515901 80.29579832 -80.0699725 83.80585601 -85.6875 87.3125 C-86.69264648 87.94027344 -87.69779297 88.56804687 -88.73339844 89.21484375 C-92.85604981 91.78937071 -96.97931437 94.36291482 -101.10253906 96.93652344 C-111.55731566 103.46291855 -122.01056119 109.99168685 -132.4375 116.5625 C-133.17589111 117.0268042 -133.91428223 117.4911084 -134.67504883 117.96948242 C-135.73115356 118.63620972 -135.73115356 118.63620972 -136.80859375 119.31640625 C-137.46000147 119.72262113 -138.11140919 120.128836 -138.78255653 120.54736042 C-141.00298707 121.95981442 -141.00298707 121.95981442 -142.99524498 123.54795361 C-148.97604913 128.05604609 -153.5097512 128.8614372 -160.88916016 128.75708008 C-161.94329605 128.76610352 -162.99743195 128.77512695 -164.08351135 128.78442383 C-167.5692068 128.80739754 -171.05336304 128.78838907 -174.5390625 128.76953125 C-177.01761967 128.77827419 -179.49616844 128.78978004 -181.97470093 128.80387878 C-187.86598081 128.83121662 -193.75680999 128.83271098 -199.64813268 128.82095498 C-206.77070578 128.80780356 -213.89308855 128.82745274 -221.015625 128.84960938 C-223.57168058 128.85736523 -226.12773629 128.86508108 -228.68379211 128.87275696 C-229.94835047 128.87660212 -231.21290882 128.88044727 -232.51578712 128.88440895 C-236.36051646 128.89455488 -240.2052334 128.90040394 -244.04997253 128.90544128 C-263.80056205 128.93933853 -283.5405713 129.22240371 -303.28640747 129.64851379 C-324.52451307 130.10103485 -345.7581063 130.1034637 -367 130 C-367.50833591 128.75336669 -368.00631145 127.50250613 -368.5 126.25 C-368.7784375 125.55390625 -369.056875 124.8578125 -369.34375 124.140625 C-370 122 -370 122 -370 118 C-362.16347523 117.88216575 -354.32687082 117.77156784 -346.4901762 117.66575909 C-342.34215786 117.609276 -338.19421641 117.54978026 -334.04632568 117.48455811 C-310.2878013 117.11204181 -286.53873918 116.98247824 -262.77804607 117.07487959 C-257.38106081 117.09483032 -251.98413285 117.10411336 -246.58711243 117.10652161 C-245.82015747 117.10687277 -245.05320252 117.10722393 -244.26300651 117.10758573 C-240.37790773 117.10896637 -236.4928116 117.10895496 -232.60771275 117.10801029 C-224.08426381 117.10806361 -215.56226577 117.14363511 -207.03916782 117.221147 C-201.09072595 117.27223405 -195.14303038 117.28223013 -189.19440705 117.26263386 C-185.71632867 117.25258691 -182.24077085 117.26061469 -178.76309395 117.31778145 C-162.74595598 117.54141699 -151.16535155 116.90461831 -138.61874485 106.32019901 C-136.20941634 104.35522404 -133.59146195 102.77597767 -130.93359375 101.171875 C-130.02891357 100.60766846 -129.1242334 100.04346191 -128.19213867 99.4621582 C-127.28310791 98.897146 -126.37407715 98.33213379 -125.4375 97.75 C-123.38019447 96.46747015 -121.32290323 95.18491738 -119.265625 93.90234375 C-118.23244141 93.25894043 -117.19925781 92.61553711 -116.13476562 91.95263672 C-110.98296719 88.74359592 -105.83492203 85.52855477 -100.6875 82.3125 C-99.18401001 81.37325684 -99.18401001 81.37325684 -97.65014648 80.41503906 C-91.5896494 76.62642214 -85.53970275 72.82166732 -79.5 69 C-72.45148546 64.53999944 -65.3866568 60.10671655 -58.3125 55.6875 C-56.80067139 54.7430603 -56.80067139 54.7430603 -55.25830078 53.77954102 C-50.14353166 50.58534861 -45.02734218 47.39344391 -39.91015625 44.203125 C-37.89837706 42.94801354 -35.88665788 41.69280588 -33.875 40.4375 C-32.89619873 39.82729004 -31.91739746 39.21708008 -30.90893555 38.58837891 C-25.81037496 35.40383152 -20.72975667 32.19413668 -15.671875 28.9453125 C-14.65625488 28.29377197 -13.64063477 27.64223145 -12.59423828 26.97094727 C-10.65248578 25.72290588 -8.71324507 24.47094565 -6.77685547 23.21459961 C-5.91463379 22.6603833 -5.05241211 22.10616699 -4.1640625 21.53515625 C-3.40561035 21.044104 -2.6471582 20.55305176 -1.86572266 20.04711914 C0 19 0 19 2 19 C1.52396226 16.87429688 1.04407402 14.74945573 0.5625 12.625 C0.16224609 10.84996094 0.16224609 10.84996094 -0.24609375 9.0390625 C-0.85634695 6.10505419 -0.85634695 6.10505419 -2 4 C-8.39334034 5.04808858 -14.41436536 6.69491798 -20.5625 8.6875 C-28.05934207 11.11418442 -35.59313664 13.33586705 -43.1875 15.4375 C-54.49209597 18.56836206 -65.75671031 21.82077734 -77.01171875 25.125 C-80.01681975 26.004925 -83.02370351 26.87847294 -86.03125 27.75 C-96.00060186 30.64123298 -105.95124769 33.58065504 -115.875 36.625 C-122.98043283 38.80050403 -130.09561282 40.92820138 -137.25 42.9375 C-137.99491699 43.14906738 -138.73983398 43.36063477 -139.50732422 43.57861328 C-142.43402038 44.38947581 -144.94717413 45 -148 45 C-147.814375 46.3303125 -147.814375 46.3303125 -147.625 47.6875 C-148 51 -148 51 -150.1875 53.5 C-161.72865616 61.95075179 -175.84237487 65.69236393 -190 64 C-191.90234375 62.625 -191.90234375 62.625 -193 61 C-193.1875 58.6875 -193.1875 58.6875 -192 56 C-183.90059285 47.85862701 -171.34412576 43.92487571 -160.125 43.6875 C-154.42565284 43.37311666 -149.47018245 42.47691747 -144.0390625 40.765625 C-142.54090188 40.30932797 -141.04269087 39.85319636 -139.54443359 39.3972168 C-138.78894226 39.16424896 -138.03345093 38.93128113 -137.25506592 38.69125366 C-133.72566902 37.60937463 -130.1830227 36.57349892 -126.640625 35.53515625 C-125.25555559 35.12707412 -123.87054615 34.71878842 -122.4855957 34.31030273 C-110.97043135 30.91731454 -99.45341461 27.53475115 -87.90576172 24.25366211 C-70.09507855 19.18977145 -52.31960606 13.99844283 -34.5625 8.75 C-33.45156982 8.42209473 -32.34063965 8.09418945 -31.19604492 7.75634766 C-26.44089003 6.34605721 -21.69545787 4.91828362 -16.9765625 3.390625 C-16.23849365 3.1524707 -15.5004248 2.91431641 -14.73999023 2.66894531 C-12.86924174 2.05923306 -11.00273105 1.43655692 -9.13671875 0.8125 C-5.93742621 -0.0162084 -3.28948591 -0.23322795 0 0 Z " fill="#5674B1" transform="translate(370,0)"/>
<path d="M0 0 C2.45417612 5.673142 4.46246904 10.81839396 5 17 C4.01 17.33 3.02 17.66 2 18 C0.68 13.38 -0.64 8.76 -2 4 C-8.39334034 5.04808858 -14.41436536 6.69491798 -20.5625 8.6875 C-28.05934207 11.11418442 -35.59313664 13.33586705 -43.1875 15.4375 C-54.49209597 18.56836206 -65.75671031 21.82077734 -77.01171875 25.125 C-80.01681975 26.004925 -83.02370351 26.87847294 -86.03125 27.75 C-96.00060186 30.64123298 -105.95124769 33.58065504 -115.875 36.625 C-122.98043283 38.80050403 -130.09561282 40.92820138 -137.25 42.9375 C-137.99491699 43.14906738 -138.73983398 43.36063477 -139.50732422 43.57861328 C-142.43402038 44.38947581 -144.94717413 45 -148 45 C-147.814375 46.3303125 -147.814375 46.3303125 -147.625 47.6875 C-148 51 -148 51 -150.1875 53.5 C-161.72865616 61.95075179 -175.84237487 65.69236393 -190 64 C-191.90234375 62.625 -191.90234375 62.625 -193 61 C-193.1875 58.6875 -193.1875 58.6875 -192 56 C-183.90059285 47.85862701 -171.34412576 43.92487571 -160.125 43.6875 C-154.42565284 43.37311666 -149.47018245 42.47691747 -144.0390625 40.765625 C-142.54090188 40.30932797 -141.04269087 39.85319636 -139.54443359 39.3972168 C-138.78894226 39.16424896 -138.03345093 38.93128113 -137.25506592 38.69125366 C-133.72566902 37.60937463 -130.1830227 36.57349892 -126.640625 35.53515625 C-125.25555559 35.12707412 -123.87054615 34.71878842 -122.4855957 34.31030273 C-110.97043135 30.91731454 -99.45341461 27.53475115 -87.90576172 24.25366211 C-70.09507855 19.18977145 -52.31960606 13.99844283 -34.5625 8.75 C-33.45156982 8.42209473 -32.34063965 8.09418945 -31.19604492 7.75634766 C-26.44089003 6.34605721 -21.69545787 4.91828362 -16.9765625 3.390625 C-15.86945923 3.03339355 -15.86945923 3.03339355 -14.73999023 2.66894531 C-12.86924174 2.05923306 -11.00273105 1.43655692 -9.13671875 0.8125 C-5.95507865 -0.01163592 -3.27097886 -0.15835299 0 0 Z " fill="#E69D0E" transform="translate(370,0)"/>
<path d="M0 0 C1.89730618 3.62423091 3.79256838 7.24952707 5.6875 10.875 C6.21794922 11.88820313 6.74839844 12.90140625 7.29492188 13.9453125 C8.35455871 15.97357442 9.40910523 18.00450401 10.45849609 20.03808594 C11.4662411 21.97441194 12.49449098 23.90023919 13.54541016 25.81347656 C14.01124512 26.68198242 14.47708008 27.55048828 14.95703125 28.4453125 C15.37573486 29.20602051 15.79443848 29.96672852 16.22583008 30.75048828 C17.20552098 33.59718395 16.99463975 35.17694774 16 38 C13.58928223 39.30814143 11.57448945 40.16904789 9 41 C8.31131836 41.23525391 7.62263672 41.47050781 6.91308594 41.71289062 C4.7440972 42.43159707 2.56438276 43.09627971 0.375 43.75 C-0.36234375 43.98332031 -1.0996875 44.21664062 -1.859375 44.45703125 C-5.89784751 45.66567804 -8.86634298 46.42539897 -13 45 C-14.8484817 43.1515183 -14.50255467 40.14858169 -14.75390625 37.65625 C-14.88603516 36.3465625 -15.01816406 35.036875 -15.15429688 33.6875 C-15.22124756 32.99914062 -15.28819824 32.31078125 -15.35717773 31.6015625 C-15.55900841 29.53573797 -15.77014841 27.47102429 -15.98242188 25.40625 C-16.66777727 18.58061909 -17.17460354 11.86267824 -17 5 C-16.33613281 4.97421875 -15.67226563 4.9484375 -14.98828125 4.921875 C-9.28619431 4.55560956 -4.51724136 0 0 0 Z " fill="#F6B14D" transform="translate(404,87)"/>
<path d="M0 0 C3.35139534 2.85854309 4.87047027 4.9552721 5.48046875 9.40625 C5.72234204 14.26986417 5.81189412 16.90282941 2.8125 20.875 C-2.96557493 25.0405889 -6.79766819 25.80332645 -13.875 24.8125 C-17.30977349 23.17624963 -19.26779152 20.76291328 -21.3125 17.5625 C-22.4000179 12.24574584 -21.91147336 7.55229456 -19.125 2.875 C-13.80108098 -2.0052591 -6.62022258 -2.73443976 0 0 Z " fill="#3F568D" transform="translate(399.875,67.1875)"/>
<path d="M0 0 C-2.93270882 1.5613959 -5.82068273 2.66538899 -9 3.625 C-9.845625 3.88539062 -10.69125 4.14578125 -11.5625 4.4140625 C-14 5 -14 5 -18 5 C-18 5.99 -18 6.98 -18 8 C-14.39545654 7.02221682 -10.7914315 6.04253613 -7.1875 5.0625 C-5.65125977 4.64581055 -5.65125977 4.64581055 -4.08398438 4.22070312 C-3.10107422 3.95322266 -2.11816406 3.68574219 -1.10546875 3.41015625 C0.25348511 3.04096069 0.25348511 3.04096069 1.63989258 2.66430664 C3.44076195 2.15741044 5.22515724 1.59161425 7 1 C7.375 3.6875 7.375 3.6875 7 7 C0.53563609 14.38784447 -11.32630781 19.03416385 -21 20 C-33.92075854 20.78006775 -33.92075854 20.78006775 -36.90234375 18.625 C-38 17 -38 17 -38.1875 14.6875 C-35.61454553 8.86449778 -29.59777657 6.07815657 -23.9375 3.75 C-22.29676925 3.15246528 -20.65128587 2.56771481 -19 2 C-17.88625 1.5875 -16.7725 1.175 -15.625 0.75 C-10.41311085 -0.32832189 -5.3023358 -0.15671928 0 0 Z " fill="#F2AF4D" transform="translate(215,44)"/>
<path d="M0 0 C-4.33084991 3.63065262 -8.94986115 6.68801459 -13.6875 9.75 C-14.45900391 10.25660156 -15.23050781 10.76320313 -16.02539062 11.28515625 C-16.76337891 11.76339844 -17.50136719 12.24164063 -18.26171875 12.734375 C-18.93162842 13.16975586 -19.60153809 13.60513672 -20.29174805 14.05371094 C-22 15 -22 15 -24 15 C-24.67031719 13.0429132 -25.33614683 11.08428887 -26 9.125 C-26.37125 8.03445313 -26.7425 6.94390625 -27.125 5.8203125 C-28 3 -28 3 -28 1 C-24.83350749 0.82991412 -21.6667838 0.66456601 -18.5 0.5 C-17.1696875 0.42845703 -17.1696875 0.42845703 -15.8125 0.35546875 C-10.53287287 0.08372324 -5.28655326 -0.04940704 0 0 Z " fill="#40568D" transform="translate(399,1)"/>
<path d="M0 0 C0.99 0.33 1.98 0.66 3 1 C3.98418042 3.57643351 4.76555433 6.03099825 5.48046875 8.68359375 C5.69818436 9.45429703 5.91589996 10.22500031 6.14021301 11.01905823 C6.83441288 13.48875278 7.51075341 15.96297286 8.1875 18.4375 C8.65450793 20.10251994 9.12259354 21.76723802 9.59179688 23.43164062 C13 35.61605346 13 35.61605346 13 38 C11.02 38.495 11.02 38.495 9 39 C7.54482525 34.09235183 6.10273425 29.18111916 4.67260742 24.26611328 C4.18432163 22.59481691 3.69248361 20.92455408 3.19702148 19.25537109 C2.48524375 16.85517377 1.78634587 14.45154303 1.08984375 12.046875 C0.86594467 11.30193787 0.64204559 10.55700073 0.41136169 9.78948975 C-0.64411408 6.09830984 -1.13805669 3.66230637 0 0 Z " fill="#F8A500" transform="translate(377,28)"/>
<path d="M0 0 C0 0.66 0 1.32 0 2 C-7.86584023 5.7456382 -17.19891967 9.48156855 -26 9 C-26 8.01 -26 7.02 -26 6 C-22.60732806 4.98905456 -19.21040545 3.99319949 -15.8125 3 C-14.85279297 2.71382812 -13.89308594 2.42765625 -12.90429688 2.1328125 C-11.97294922 1.86210938 -11.04160156 1.59140625 -10.08203125 1.3125 C-9.22843018 1.06113281 -8.3748291 0.80976562 -7.49536133 0.55078125 C-4.91904455 -0.01786865 -2.62952773 -0.09883894 0 0 Z " fill="#F7A609" transform="translate(223,43)"/>
<path d="M0 0 C0.33 0.66 0.66 1.32 1 2 C-1.95716407 2.83752161 -4.915913 3.66930031 -7.875 4.5 C-9.13763672 4.85771484 -9.13763672 4.85771484 -10.42578125 5.22265625 C-11.63427734 5.56103516 -11.63427734 5.56103516 -12.8671875 5.90625 C-13.61081543 6.11572266 -14.35444336 6.32519531 -15.12060547 6.54101562 C-17 7 -17 7 -19 7 C-19 6.34 -19 5.68 -19 5 C-19.66 4.67 -20.32 4.34 -21 4 C-20.02417969 3.72285156 -19.04835937 3.44570313 -18.04296875 3.16015625 C-16.75780249 2.794306 -15.47264679 2.42841864 -14.1875 2.0625 C-12.92292969 1.70285156 -11.65835938 1.34320313 -10.35546875 0.97265625 C-3.09060819 -1.133223 -3.09060819 -1.133223 0 0 Z " fill="#DF9A13" transform="translate(242,38)"/>
<path d="M0 0 C3 1 3 1 3.984375 2.890625 C6.52201258 10.71069182 6.52201258 10.71069182 5 15 C4.34 15 3.68 15 3 15 C2.49564306 13.0636296 1.99666126 11.12585854 1.5 9.1875 C1.2215625 8.10855469 0.943125 7.02960937 0.65625 5.91796875 C0 3 0 3 0 0 Z " fill="#E39C11" transform="translate(369,3)"/>
</svg>
