<?xml version="1.0" encoding="UTF-8"?>
<svg version="1.1" xmlns="http://www.w3.org/2000/svg" width="50" height="50">
<path d="M0 0 C15.18 0 30.36 0 46 0 C46 0.66 46 1.32 46 2 C30.82 2 15.64 2 0 2 C0 1.34 0 0.68 0 0 Z " fill="#FFFFFF" transform="translate(2,39)"/>
<path d="M0 0 C15.18 0 30.36 0 46 0 C46 0.66 46 1.32 46 2 C30.82 2 15.64 2 0 2 C0 1.34 0 0.68 0 0 Z " fill="#FFFFFF" transform="translate(2,24)"/>
<path d="M0 0 C15.18 0 30.36 0 46 0 C46 0.66 46 1.32 46 2 C30.82 2 15.64 2 0 2 C0 1.34 0 0.68 0 0 Z " fill="#FFFFFF" transform="translate(2,9)"/>
</svg>
